<svg width="1128" height="191" viewBox="0 0 1128 191" fill="none" xmlns="http://www.w3.org/2000/svg">
<rect width="1128" height="191" fill="#05192D"/>
<mask id="mask0_7902_131633" style="mask-type:alpha" maskUnits="userSpaceOnUse" x="0" y="0" width="1128" height="191">
<rect width="1128" height="191" fill="#05192D"/>
</mask>
<g mask="url(#mask0_7902_131633)">
<path d="M527.99 172.628C527.99 157.566 515.78 145.355 500.717 145.355L252 145.355L252 205.999L527.99 205.999L527.99 172.628Z" stroke="url(#paint0_linear_7902_131633)" stroke-width="1.13636"/>
<path d="M351.196 121.909C351.196 99.3156 332.88 81 310.287 81L252 81L252 166.515L351.196 166.515L351.196 121.909Z" stroke="url(#paint1_linear_7902_131633)" stroke-width="1.13636"/>
<path d="M-1.27899 171.387V171.387C16.0035 171.387 30.0137 157.376 30.0137 140.094L30.0137 -2.76403L-1.27901 -2.76403" stroke="url(#paint2_linear_7902_131633)"/>
<rect x="-4" y="-3" width="147.267" height="58.4889" stroke="url(#paint3_linear_7902_131633)"/>
<circle cx="143.789" cy="56.0099" r="40.2111" stroke="url(#paint4_linear_7902_131633)"/>
<path d="M349 16C349 33.6731 363.327 48 381 48L636 48.0001L636 -11L349 -11.0001L349 16Z" stroke="url(#paint5_linear_7902_131633)"/>
<rect width="106.088" height="111" rx="53.0442" transform="matrix(1 9.20383e-08 8.30387e-08 -1 583.38 48)" stroke="url(#paint6_linear_7902_131633)"/>
</g>
<path d="M773.203 79.9448C777.523 79.9448 780.355 76.9928 780.907 73.7288H777.595C776.995 75.6248 775.219 76.7528 773.203 76.7528C770.107 76.7528 767.659 74.2568 767.659 71.1608C767.659 68.0648 770.107 65.5688 773.203 65.5688C775.123 65.5688 777.043 66.8648 777.571 68.6648H780.883C780.355 65.7128 777.595 62.3768 773.203 62.3768C768.355 62.3768 764.467 66.3128 764.467 71.1608C764.467 76.0088 768.355 79.9448 773.203 79.9448ZM794.535 74.4968C794.559 74.2808 794.583 73.9208 794.583 73.5608C794.583 70.1048 792.039 67.2728 788.823 67.2728C785.415 67.2728 782.703 70.0328 782.703 73.6088C782.703 77.2568 785.343 79.9448 788.919 79.9448C792.879 79.9448 794.223 76.8248 794.367 75.7448H791.175C790.935 76.4168 790.167 77.1368 788.919 77.1368C787.071 77.1368 786.207 75.9608 786.015 74.4968H794.535ZM788.823 70.0808C790.263 70.0808 791.079 71.0408 791.343 72.3608H786.111C786.399 71.0408 787.311 70.0808 788.823 70.0808ZM803.497 67.2728C802.081 67.2728 800.881 67.8488 800.137 69.0728V67.4168H796.945V79.8008H800.137V73.6568C800.137 71.3768 801.312 70.3928 803.161 70.3928C803.953 70.3928 804.577 70.5128 804.865 70.5608V67.3688C804.577 67.3448 804.121 67.2728 803.497 67.2728ZM812.379 77.0168C811.491 77.0168 810.867 76.6568 810.867 75.6968V70.2008H813.795V67.4168H810.867V63.8888H807.675V67.4168H805.659V70.2008H807.675V75.7688C807.675 78.6728 809.211 79.9448 811.659 79.9448C812.355 79.9448 813.123 79.8008 813.795 79.6088V76.7768C813.363 76.8968 812.859 77.0168 812.379 77.0168ZM817.794 66.0488C818.946 66.0488 819.978 65.0888 819.978 63.8888C819.978 62.7128 818.994 61.7768 817.794 61.7768C816.594 61.7768 815.658 62.7128 815.658 63.8888C815.658 65.0888 816.594 66.0488 817.794 66.0488ZM819.378 67.4168H816.186V79.8008H819.378V67.4168ZM826.879 67.4168V66.6488C826.879 65.6408 827.551 65.3048 828.391 65.3048C828.943 65.3048 829.471 65.4488 829.615 65.4968V62.6888C829.351 62.5928 828.463 62.3768 827.383 62.3768C825.007 62.3768 823.687 64.1528 823.687 66.6248V67.4168H821.695V70.2008H823.687V79.8008H826.879V70.2008H829.807V67.4168H826.879ZM833.521 66.0488C834.673 66.0488 835.705 65.0888 835.705 63.8888C835.705 62.7128 834.721 61.7768 833.521 61.7768C832.321 61.7768 831.385 62.7128 831.385 63.8888C831.385 65.0888 832.321 66.0488 833.521 66.0488ZM835.105 67.4168H831.913V79.8008H835.105V67.4168ZM849.379 74.4968C849.403 74.2808 849.427 73.9208 849.427 73.5608C849.427 70.1048 846.883 67.2728 843.667 67.2728C840.259 67.2728 837.547 70.0328 837.547 73.6088C837.547 77.2568 840.187 79.9448 843.763 79.9448C847.723 79.9448 849.067 76.8248 849.211 75.7448H846.019C845.779 76.4168 845.011 77.1368 843.763 77.1368C841.915 77.1368 841.051 75.9608 840.859 74.4968H849.379ZM843.667 70.0808C845.107 70.0808 845.923 71.0408 846.187 72.3608H840.955C841.243 71.0408 842.155 70.0808 843.667 70.0808ZM860.303 62.5208V69.0968C859.511 68.0408 858.191 67.2728 856.727 67.2728C853.823 67.2728 851.375 69.8888 851.375 73.6088C851.375 77.3288 853.823 79.9448 856.727 79.9448C858.191 79.9448 859.463 79.4168 860.303 78.1208V79.8008H863.495V62.5208H860.303ZM857.447 76.7768C855.839 76.7768 854.543 75.3608 854.543 73.6088C854.543 71.8568 855.839 70.4408 857.447 70.4408C859.079 70.4408 860.303 71.8568 860.303 73.6088C860.303 75.3608 859.079 76.7768 857.447 76.7768ZM882.146 69.0008C881.234 67.9448 879.962 67.2728 878.522 67.2728C875.57 67.2728 873.218 70.1048 873.218 73.6088C873.218 77.1128 875.57 79.9448 878.522 79.9448C879.962 79.9448 881.21 79.2728 882.146 78.2168V79.8008H885.338V67.4168H882.146V69.0008ZM879.29 76.7768C877.682 76.7768 876.386 75.3608 876.386 73.6088C876.386 71.8568 877.682 70.4648 879.29 70.4648C880.898 70.4648 882.146 71.8568 882.146 73.6088C882.146 75.3608 880.898 76.7768 879.29 76.7768ZM887.745 75.6248C887.769 77.6408 889.449 79.9448 892.617 79.9448C895.329 79.9448 897.369 78.4568 897.417 75.9128C897.465 74.1608 896.241 72.7928 893.817 72.2408L892.137 71.8568C891.513 71.7128 891.201 71.4008 891.201 70.8968C891.201 70.2728 891.753 69.8168 892.641 69.8168C893.529 69.8168 894.177 70.4408 894.201 71.3288H897.033C897.033 69.3368 895.329 67.2728 892.665 67.2728C889.977 67.2728 888.057 68.7848 888.057 70.9448C888.057 72.7208 888.993 74.0408 891.321 74.6168L892.833 74.9768C893.793 75.2168 894.273 75.5048 894.273 76.1288C894.273 76.8008 893.601 77.2088 892.761 77.2088C891.777 77.2088 890.961 76.6328 890.937 75.6248H887.745ZM915.17 69.0008C914.258 67.9448 912.986 67.2728 911.546 67.2728C908.594 67.2728 906.242 70.1048 906.242 73.6088C906.242 77.1128 908.594 79.9448 911.546 79.9448C912.986 79.9448 914.234 79.2728 915.17 78.2168V79.8008H918.362V67.4168H915.17V69.0008ZM912.314 76.7768C910.706 76.7768 909.41 75.3608 909.41 73.6088C909.41 71.8568 910.706 70.4648 912.314 70.4648C913.922 70.4648 915.17 71.8568 915.17 73.6088C915.17 75.3608 913.922 76.7768 912.314 76.7768ZM652.339 92.5208V109.801H659.083C663.811 109.801 667.723 106.033 667.723 101.161C667.723 96.2888 663.787 92.5208 659.083 92.5208H652.339ZM655.531 106.609V95.7128H659.083C662.083 95.7128 664.531 98.1608 664.531 101.161C664.531 104.161 662.083 106.609 659.083 106.609H655.531ZM678.334 99.0008C677.422 97.9448 676.15 97.2728 674.71 97.2728C671.758 97.2728 669.406 100.105 669.406 103.609C669.406 107.113 671.758 109.945 674.71 109.945C676.15 109.945 677.398 109.273 678.334 108.217V109.801H681.526V97.4168H678.334V99.0008ZM675.478 106.777C673.87 106.777 672.574 105.361 672.574 103.609C672.574 101.857 673.87 100.465 675.478 100.465C677.086 100.465 678.334 101.857 678.334 103.609C678.334 105.361 677.086 106.777 675.478 106.777ZM690.34 107.017C689.452 107.017 688.828 106.657 688.828 105.697V100.201H691.756V97.4168H688.828V93.8888H685.636V97.4168H683.62V100.201H685.636V105.769C685.636 108.673 687.172 109.945 689.62 109.945C690.316 109.945 691.084 109.801 691.756 109.609V106.777C691.324 106.897 690.82 107.017 690.34 107.017ZM702.123 99.0008C701.211 97.9448 699.939 97.2728 698.499 97.2728C695.547 97.2728 693.195 100.105 693.195 103.609C693.195 107.113 695.547 109.945 698.499 109.945C699.939 109.945 701.187 109.273 702.123 108.217V109.801H705.315V97.4168H702.123V99.0008ZM699.267 106.777C697.659 106.777 696.363 105.361 696.363 103.609C696.363 101.857 697.659 100.465 699.267 100.465C700.875 100.465 702.123 101.857 702.123 103.609C702.123 105.361 700.875 106.777 699.267 106.777ZM731.12 109.801L724.424 92.5208H720.944L714.224 109.801H717.68L719.384 105.385H725.96L727.664 109.801H731.12ZM721.136 100.873C721.736 99.3848 722.192 98.1128 722.648 96.7208H722.672C723.176 98.1128 723.632 99.3848 724.208 100.873L724.808 102.433H720.536L721.136 100.873ZM739.512 97.2728C738.096 97.2728 736.8 97.9448 736.08 99.0488V97.4168H732.984V109.801H736.176V102.913C736.176 101.449 737.208 100.465 738.528 100.465C739.824 100.465 740.856 101.425 740.856 102.889V109.801H744.048V102.505C744.048 98.9528 742.272 97.2728 739.512 97.2728ZM755.396 99.0008C754.484 97.9448 753.212 97.2728 751.772 97.2728C748.82 97.2728 746.468 100.105 746.468 103.609C746.468 107.113 748.82 109.945 751.772 109.945C753.212 109.945 754.46 109.273 755.396 108.217V109.801H758.588V97.4168H755.396V99.0008ZM752.54 106.777C750.932 106.777 749.636 105.361 749.636 103.609C749.636 101.857 750.932 100.465 752.54 100.465C754.148 100.465 755.396 101.857 755.396 103.609C755.396 105.361 754.148 106.777 752.54 106.777ZM761.931 92.5208V109.801H765.123V92.5208H761.931ZM776.247 97.4168V104.305C776.247 105.625 775.215 106.753 773.895 106.753C772.551 106.753 771.567 105.649 771.567 104.305V97.4168H768.375V104.881C768.375 107.737 769.791 109.945 772.647 109.945C774.015 109.945 775.359 109.249 776.247 108.265V109.561C776.247 111.289 775.191 112.729 773.439 112.729C771.927 112.729 770.871 111.841 770.727 110.641H767.415C767.535 112.945 769.551 115.705 773.391 115.705C776.775 115.705 779.439 113.113 779.439 109.513V97.4168H776.247ZM781.831 105.625C781.854 107.641 783.535 109.945 786.703 109.945C789.415 109.945 791.455 108.457 791.503 105.913C791.551 104.161 790.327 102.793 787.903 102.241L786.223 101.857C785.599 101.713 785.287 101.401 785.287 100.897C785.287 100.273 785.839 99.8168 786.727 99.8168C787.615 99.8168 788.263 100.441 788.287 101.329H791.119C791.119 99.3368 789.415 97.2728 786.751 97.2728C784.062 97.2728 782.143 98.7848 782.143 100.945C782.143 102.721 783.079 104.041 785.407 104.617L786.919 104.977C787.879 105.217 788.359 105.505 788.359 106.129C788.359 106.801 787.687 107.209 786.847 107.209C785.863 107.209 785.047 106.633 785.023 105.625H781.831ZM799.09 107.017C798.202 107.017 797.578 106.657 797.578 105.697V100.201H800.506V97.4168H797.578V93.8888H794.386V97.4168H792.37V100.201H794.386V105.769C794.386 108.673 795.922 109.945 798.37 109.945C799.066 109.945 799.834 109.801 800.506 109.609V106.777C800.074 106.897 799.57 107.017 799.09 107.017ZM825.48 109.801L818.784 92.5208H815.304L808.584 109.801H812.04L813.744 105.385H820.32L822.024 109.801H825.48ZM815.496 100.873C816.096 99.3848 816.552 98.1128 817.008 96.7208H817.032C817.536 98.1128 817.992 99.3848 818.568 100.873L819.168 102.433H814.896L815.496 100.873ZM826.479 105.625C826.503 107.641 828.183 109.945 831.351 109.945C834.063 109.945 836.103 108.457 836.151 105.913C836.199 104.161 834.975 102.793 832.551 102.241L830.871 101.857C830.247 101.713 829.935 101.401 829.935 100.897C829.935 100.273 830.487 99.8168 831.375 99.8168C832.263 99.8168 832.911 100.441 832.935 101.329H835.767C835.767 99.3368 834.063 97.2728 831.399 97.2728C828.711 97.2728 826.791 98.7848 826.791 100.945C826.791 102.721 827.727 104.041 830.055 104.617L831.567 104.977C832.527 105.217 833.007 105.505 833.007 106.129C833.007 106.801 832.335 107.209 831.495 107.209C830.511 107.209 829.695 106.633 829.671 105.625H826.479ZM837.729 105.625C837.753 107.641 839.433 109.945 842.601 109.945C845.313 109.945 847.353 108.457 847.401 105.913C847.449 104.161 846.225 102.793 843.801 102.241L842.121 101.857C841.497 101.713 841.185 101.401 841.185 100.897C841.185 100.273 841.737 99.8168 842.625 99.8168C843.513 99.8168 844.161 100.441 844.185 101.329H847.017C847.017 99.3368 845.313 97.2728 842.649 97.2728C839.961 97.2728 838.041 98.7848 838.041 100.945C838.041 102.721 838.977 104.041 841.305 104.617L842.817 104.977C843.777 105.217 844.257 105.505 844.257 106.129C844.257 106.801 843.585 107.209 842.745 107.209C841.761 107.209 840.945 106.633 840.921 105.625H837.729ZM855.339 109.945H855.363C858.747 109.945 861.483 107.089 861.483 103.609C861.483 100.129 858.747 97.2728 855.363 97.2728H855.339C851.931 97.2728 849.195 100.105 849.195 103.609C849.195 107.113 851.931 109.945 855.339 109.945ZM855.339 106.777C853.659 106.777 852.363 105.337 852.363 103.609C852.363 101.881 853.659 100.465 855.339 100.441H855.363C856.995 100.441 858.291 101.881 858.291 103.609C858.291 105.337 857.019 106.777 855.363 106.777H855.339ZM875.278 102.025C875.134 100.081 873.286 97.2728 869.566 97.2728C866.158 97.2728 863.422 100.105 863.422 103.609C863.422 107.113 866.158 109.945 869.566 109.945C872.926 109.945 875.134 107.017 875.23 105.193H872.062C871.846 106.153 870.79 106.921 869.566 106.921C867.79 106.921 866.59 105.337 866.59 103.609C866.59 101.881 867.694 100.297 869.566 100.297C870.694 100.297 871.726 100.969 872.038 102.025H875.278ZM879.341 96.0488C880.493 96.0488 881.525 95.0888 881.525 93.8888C881.525 92.7128 880.541 91.7768 879.341 91.7768C878.141 91.7768 877.205 92.7128 877.205 93.8888C877.205 95.0888 878.141 96.0488 879.341 96.0488ZM880.925 97.4168H877.733V109.801H880.925V97.4168ZM892.295 99.0008C891.383 97.9448 890.111 97.2728 888.671 97.2728C885.719 97.2728 883.367 100.105 883.367 103.609C883.367 107.113 885.719 109.945 888.671 109.945C890.111 109.945 891.359 109.273 892.295 108.217V109.801H895.487V97.4168H892.295V99.0008ZM889.439 106.777C887.831 106.777 886.535 105.361 886.535 103.609C886.535 101.857 887.831 100.465 889.439 100.465C891.047 100.465 892.295 101.857 892.295 103.609C892.295 105.361 891.047 106.777 889.439 106.777ZM904.301 107.017C903.413 107.017 902.789 106.657 902.789 105.697V100.201H905.717V97.4168H902.789V93.8888H899.597V97.4168H897.581V100.201H899.597V105.769C899.597 108.673 901.133 109.945 903.581 109.945C904.277 109.945 905.045 109.801 905.717 109.609V106.777C905.285 106.897 904.781 107.017 904.301 107.017ZM918.988 104.497C919.012 104.281 919.036 103.921 919.036 103.561C919.036 100.105 916.492 97.2728 913.276 97.2728C909.868 97.2728 907.156 100.033 907.156 103.609C907.156 107.257 909.796 109.945 913.372 109.945C917.332 109.945 918.676 106.825 918.82 105.745H915.628C915.388 106.417 914.62 107.137 913.372 107.137C911.524 107.137 910.66 105.961 910.468 104.497H918.988ZM913.276 100.081C914.716 100.081 915.532 101.041 915.796 102.361H910.564C910.852 101.041 911.764 100.081 913.276 100.081Z" fill="white"/>
<path d="M831.323 128.099C831.917 127.769 832.345 127.132 832.345 126.406C832.345 125.241 831.301 124.285 830.081 124.285H826.926V132.199H830.4C831.587 132.199 832.653 131.243 832.653 130.078C832.664 129.242 832.18 128.462 831.323 128.11V128.099ZM830.081 125.428C830.707 125.428 831.202 125.923 831.202 126.538C831.202 127.099 830.74 127.593 830.125 127.604H828.069V125.428H830.081ZM828.069 131.056V128.759H830.4C831.015 128.759 831.51 129.297 831.51 129.913C831.51 130.539 831.015 131.056 830.4 131.056H828.069ZM837.531 126.527V129.825C837.531 130.528 836.959 131.133 836.234 131.133C835.519 131.133 834.947 130.539 834.947 129.825V126.527H833.804V129.957C833.804 131.243 834.574 132.265 835.827 132.265C836.53 132.265 837.146 131.891 837.531 131.43V132.133C837.531 133.156 836.959 133.826 836.047 133.826C835.178 133.826 834.695 133.375 834.607 132.672H833.408C833.474 133.804 834.376 134.903 836.025 134.903C837.564 134.903 838.674 133.749 838.674 132.089V126.527H837.531Z" fill="white"/>
<g clip-path="url(#clip0_7902_131633)">
<path fill-rule="evenodd" clip-rule="evenodd" d="M864.47 131.782C863.131 131.782 862.045 130.693 862.045 129.348C862.045 128.004 863.131 126.914 864.47 126.914C865.808 126.914 866.894 128.004 866.894 129.348C866.894 129.994 866.638 130.613 866.184 131.07C865.729 131.526 865.112 131.782 864.47 131.782ZM866.898 122.967V126.751C865.491 125.424 863.285 125.47 861.934 126.855C860.583 128.24 860.583 130.456 861.934 131.841C863.285 133.226 865.491 133.272 866.898 131.945V132.729H868.018V122.967H866.898ZM898.094 131.782C896.756 131.782 895.67 130.693 895.67 129.348C895.67 128.004 896.756 126.914 898.094 126.914C899.433 126.914 900.519 128.004 900.519 129.348C900.519 129.994 900.263 130.613 899.809 131.07C899.354 131.526 898.737 131.782 898.094 131.782ZM901.642 129.348V125.823H900.522V126.751C899.115 125.424 896.909 125.47 895.558 126.855C894.207 128.24 894.207 130.456 895.558 131.841C896.909 133.226 899.115 133.272 900.522 131.945V132.729H901.642V129.348H901.642ZM910.576 126.085C910.677 125.92 910.856 125.819 911.048 125.819H911.264C911.722 125.819 912.093 126.192 912.093 126.651V132.729H910.95V127.58C910.422 128.435 908.534 131.534 907.968 132.464C907.868 132.629 907.689 132.729 907.497 132.729H907.263C906.958 132.729 906.711 132.481 906.711 132.174V127.567C906.093 128.569 904.196 131.681 903.599 132.677L903.567 132.729H902.471V125.821H903.614V125.835L903.588 130.601L906.329 126.086C906.429 125.921 906.608 125.82 906.801 125.82H907.018C907.475 125.82 907.846 126.192 907.847 126.651C907.847 127.921 907.853 130.234 907.853 130.57L910.576 126.085ZM894.433 131.446C893.521 132.705 891.9 133.223 890.431 132.725C888.962 132.227 887.985 130.828 888.02 129.272C888.054 127.715 889.091 126.362 890.58 125.929C892.07 125.497 893.666 126.086 894.522 127.384L893.448 127.945C892.869 127.125 891.836 126.762 890.874 127.041C889.912 127.32 889.231 128.179 889.175 129.183C889.12 130.187 889.704 131.117 890.629 131.5C891.555 131.883 892.621 131.637 893.287 130.886L894.433 131.446ZM916.376 131.788C915.094 131.787 914.034 130.785 913.958 129.5V129.209C914.037 127.886 915.155 126.869 916.474 126.922C917.793 126.975 918.828 128.078 918.801 129.403C918.775 130.729 917.697 131.789 916.377 131.789L916.376 131.788ZM916.377 125.792C915.479 125.791 914.613 126.133 913.958 126.75V125.823H912.837V135.549H913.958V131.958C915.12 133.048 916.863 133.227 918.222 132.397C919.58 131.566 920.223 129.929 919.793 128.392C919.364 126.854 917.967 125.791 916.377 125.792V125.792ZM878.398 126.901V131.149C878.398 131.401 878.601 131.605 878.852 131.605H880.156V132.729H878.853C877.984 132.728 877.28 132.021 877.279 131.149L877.275 126.901H876.067V125.807H877.275V123.918H878.397V125.811H880.386V126.901H878.398ZM883.828 131.782C882.49 131.782 881.404 130.692 881.404 129.348C881.404 128.003 882.49 126.913 883.828 126.913C885.167 126.913 886.253 128.003 886.253 129.348C886.253 129.993 885.997 130.612 885.543 131.069C885.088 131.525 884.471 131.782 883.828 131.782ZM886.256 125.822V126.751C884.849 125.424 882.643 125.47 881.292 126.855C879.941 128.24 879.941 130.456 881.292 131.841C882.643 133.226 884.849 133.272 886.256 131.945V132.729H887.377V125.821L886.256 125.822ZM872.015 131.782C870.676 131.782 869.591 130.693 869.591 129.348C869.591 128.004 870.676 126.914 872.015 126.914C873.354 126.914 874.439 128.004 874.439 129.348C874.44 129.994 874.184 130.613 873.73 131.07C873.275 131.526 872.658 131.783 872.015 131.782ZM874.443 125.823V126.751C873.036 125.424 870.83 125.47 869.479 126.855C868.128 128.24 868.128 130.456 869.479 131.841C870.83 133.226 873.036 133.272 874.443 131.945V132.729H875.563V125.821L874.443 125.823Z" fill="white"/>
<path fill-rule="evenodd" clip-rule="evenodd" d="M851.332 123.838V127.4L847.568 129.556V121.669L851.332 123.838ZM852.55 131.322V128.112L857.59 125.223L856.364 124.518L852.55 126.703V123.482C852.549 123.263 852.432 123.061 852.244 122.951L847.652 120.308C847.64 120.301 847.628 120.294 847.615 120.288C847.343 120.155 847.021 120.172 846.764 120.334C846.506 120.496 846.351 120.779 846.351 121.084V130.14C846.35 130.445 846.506 130.728 846.763 130.891C847.02 131.053 847.343 131.07 847.616 130.937L847.651 130.919L851.329 128.811V131.683C851.33 131.903 851.447 132.105 851.636 132.215L856.356 134.904L857.583 134.198L852.55 131.322Z" fill="#03EF62"/>
</g>
<g filter="url(#filter0_dd_7902_131633)">
<path d="M953.65 86.1C953.65 56.0281 978.028 31.65 1008.1 31.65C1038.17 31.65 1062.55 56.0281 1062.55 86.1V155.4C1062.55 158.134 1060.33 160.35 1057.6 160.35H958.6C955.866 160.35 953.65 158.134 953.65 155.4V86.1Z" fill="#05192D" stroke="#06BDFC" stroke-width="3.3"/>
<circle cx="1008.1" cy="84.4496" r="39.6" stroke="url(#paint7_linear_7902_131633)" stroke-width="1.65"/>
<circle cx="1008.1" cy="79.5004" r="23.1" fill="url(#paint8_linear_7902_131633)"/>
<g filter="url(#filter1_d_7902_131633)">
<circle cx="1008.1" cy="79.5" r="16.5" fill="white"/>
</g>
<path fill-rule="evenodd" clip-rule="evenodd" d="M1008.1 70.6992C1011.44 70.6992 1014.15 73.4079 1014.15 76.7492C1014.15 78.628 1013.29 80.3067 1011.95 81.4164V87.3598C1011.95 88.1234 1011.2 88.6414 1010.5 88.4023L1010.38 88.3553L1008.1 87.2811L1005.82 88.355C1005.13 88.6805 1004.34 88.2198 1004.26 87.4848L1004.25 87.3598V81.4163C1002.91 80.3066 1002.05 78.6279 1002.05 76.7492C1002.05 73.4079 1004.76 70.6992 1008.1 70.6992ZM1006.45 82.5715V85.6245L1007.63 85.071C1007.88 84.9513 1008.17 84.9341 1008.44 85.0194L1008.56 85.0706L1009.75 85.6267V82.5715C1009.23 82.7198 1008.67 82.7992 1008.1 82.7992C1007.53 82.7992 1006.97 82.7198 1006.45 82.5715ZM1008.1 72.899C1005.97 72.899 1004.25 74.6227 1004.25 76.749C1004.25 78.8753 1005.97 80.599 1008.1 80.599C1010.23 80.599 1011.95 78.8753 1011.95 76.749C1011.95 74.6227 1010.23 72.899 1008.1 72.899Z" fill="#05192D"/>
<path d="M952 142.201H1064.2V155.401C1064.2 159.046 1061.25 162.001 1057.6 162.001H958.6C954.955 162.001 952 159.046 952 155.401V142.201Z" fill="#06BDFC"/>
<path d="M982.262 154.852L979.5 147.724H978.065L975.293 154.852H976.718L977.421 153.03H980.134L980.837 154.852H982.262ZM978.144 151.169C978.392 150.555 978.58 150.03 978.768 149.456H978.778C978.986 150.03 979.174 150.555 979.411 151.169L979.659 151.812H977.897L978.144 151.169ZM983.987 152.357C983.997 153.941 985.195 154.911 986.63 154.911C988.046 154.911 989.046 154.03 989.046 152.763C989.046 151.664 988.383 150.991 987.046 150.654L986.234 150.446C985.7 150.307 985.541 150.01 985.541 149.723C985.541 149.337 985.888 148.921 986.502 148.921C987.106 148.921 987.521 149.357 987.521 149.951H988.818C988.818 148.723 987.947 147.664 986.561 147.664C985.294 147.664 984.185 148.506 984.185 149.713C984.185 150.674 984.868 151.426 986.026 151.713L986.858 151.921C987.383 152.05 987.69 152.367 987.69 152.782C987.69 153.208 987.343 153.644 986.63 153.644C985.848 153.644 985.324 153.178 985.314 152.357H983.987ZM991.05 152.357C991.06 153.941 992.258 154.911 993.693 154.911C995.109 154.911 996.109 154.03 996.109 152.763C996.109 151.664 995.445 150.991 994.109 150.654L993.297 150.446C992.762 150.307 992.604 150.01 992.604 149.723C992.604 149.337 992.951 148.921 993.564 148.921C994.168 148.921 994.584 149.357 994.584 149.951H995.881C995.881 148.723 995.01 147.664 993.624 147.664C992.357 147.664 991.248 148.506 991.248 149.713C991.248 150.674 991.931 151.426 993.089 151.713L993.921 151.921C994.445 152.05 994.752 152.367 994.752 152.782C994.752 153.208 994.406 153.644 993.693 153.644C992.911 153.644 992.386 153.178 992.376 152.357H991.05ZM1001.7 154.911C1003.7 154.911 1005.31 153.287 1005.31 151.288C1005.31 149.288 1003.7 147.664 1001.7 147.664C999.697 147.664 998.093 149.288 998.093 151.288C998.093 153.287 999.697 154.911 1001.7 154.911ZM1001.7 153.594C1000.42 153.594 999.409 152.565 999.409 151.288C999.409 150.01 1000.42 148.981 1001.7 148.981C1002.97 148.981 1003.99 150.01 1003.99 151.288C1003.99 152.565 1002.97 153.594 1001.7 153.594ZM1011 154.911C1012.78 154.911 1013.95 153.693 1014.18 152.347H1012.81C1012.57 153.129 1011.83 153.594 1011 153.594C1009.72 153.594 1008.72 152.565 1008.72 151.288C1008.72 150.01 1009.72 148.981 1011 148.981C1011.79 148.981 1012.59 149.515 1012.8 150.258H1014.17C1013.95 149.04 1012.81 147.664 1011 147.664C1009 147.664 1007.4 149.288 1007.4 151.288C1007.4 153.287 1009 154.911 1011 154.911ZM1016.58 147.724V154.852H1017.89V147.724H1016.58ZM1027.03 154.852L1024.26 147.724H1022.83L1020.06 154.852H1021.48L1022.19 153.03H1024.9L1025.6 154.852H1027.03ZM1022.91 151.169C1023.16 150.555 1023.34 150.03 1023.53 149.456H1023.54C1023.75 150.03 1023.94 150.555 1024.18 151.169L1024.42 151.812H1022.66L1022.91 151.169ZM1033.39 147.724H1027.79V149.04H1029.93V154.852H1031.24V149.04H1033.39V147.724ZM1035.56 147.724V154.852H1040.54V153.535H1036.88V151.941H1040.16V150.634H1036.88V149.04H1040.54V147.724H1035.56Z" fill="#05192D"/>
<g clip-path="url(#clip1_7902_131633)">
<path fill-rule="evenodd" clip-rule="evenodd" d="M988.052 109.835V112.07L985.745 113.423V108.473L988.052 109.835ZM988.798 114.531V112.517L991.886 110.704L991.135 110.261L988.798 111.633V109.611C988.797 109.473 988.726 109.347 988.61 109.278L985.797 107.619C985.79 107.614 985.782 107.611 985.775 107.607C985.607 107.523 985.41 107.534 985.253 107.635C985.095 107.737 985 107.915 985 108.106V113.789C984.999 113.981 985.095 114.159 985.252 114.261C985.41 114.363 985.608 114.374 985.775 114.29L985.796 114.279L988.05 112.955V114.758C988.05 114.896 988.122 115.023 988.238 115.092L991.13 116.779L991.881 116.337L988.798 114.531Z" fill="#03EF62"/>
</g>
<path d="M998.216 115.589C999.724 115.589 1000.79 114.62 1001.09 113.373H1000.1C999.813 114.171 999.069 114.656 998.216 114.656C996.915 114.656 995.91 113.606 995.91 112.305C995.91 111.004 996.915 109.954 998.216 109.954C998.997 109.954 999.831 110.484 1000.07 111.228H1001.06C1000.79 110.062 999.688 109.021 998.216 109.021C996.404 109.021 994.977 110.492 994.977 112.305C994.977 114.118 996.404 115.589 998.216 115.589Z" fill="white"/>
<path d="M1006.16 113.507C1006.17 113.409 1006.18 113.292 1006.18 113.166C1006.18 111.901 1005.27 110.851 1004.03 110.851C1002.75 110.851 1001.81 111.901 1001.81 113.22C1001.81 114.566 1002.74 115.589 1004.07 115.589C1005.5 115.589 1006.03 114.494 1006.1 114.055H1005.14C1005.05 114.324 1004.72 114.746 1004.07 114.746C1003.28 114.746 1002.85 114.198 1002.77 113.507H1006.16ZM1004.03 111.695C1004.72 111.695 1005.13 112.188 1005.23 112.807H1002.8C1002.92 112.179 1003.34 111.695 1004.03 111.695Z" fill="white"/>
<path d="M1009.33 110.851C1008.77 110.851 1008.35 111.112 1008.11 111.515V110.905H1007.17V115.535H1008.11V113.05C1008.11 112.161 1008.6 111.767 1009.3 111.767C1009.5 111.767 1009.68 111.794 1009.78 111.811V110.878C1009.68 110.869 1009.55 110.851 1009.33 110.851Z" fill="white"/>
<path d="M1012.41 114.719C1012.07 114.719 1011.85 114.566 1011.85 114.18V111.722H1013.03V110.905H1011.85V109.595H1010.91V110.905H1010.12V111.722H1010.91V114.198C1010.91 115.14 1011.42 115.589 1012.24 115.589C1012.56 115.589 1012.87 115.481 1013.03 115.419V114.548C1012.91 114.602 1012.65 114.719 1012.41 114.719Z" fill="white"/>
<path d="M1014.46 110.25C1014.83 110.25 1015.15 109.954 1015.15 109.577C1015.15 109.2 1014.84 108.904 1014.46 108.904C1014.08 108.904 1013.78 109.2 1013.78 109.577C1013.78 109.954 1014.08 110.25 1014.46 110.25ZM1014.91 110.905H1013.98V115.535H1014.91V110.905Z" fill="white"/>
<path d="M1017.55 110.905V110.475C1017.55 110.08 1017.82 109.9 1018.15 109.9C1018.38 109.9 1018.58 109.954 1018.71 110.008V109.147C1018.56 109.093 1018.25 109.021 1017.9 109.021C1017.11 109.021 1016.62 109.613 1016.62 110.457V110.905H1015.87V111.722H1016.62V115.535H1017.55V111.722H1018.74V110.905H1017.55Z" fill="white"/>
<path d="M1020.08 110.25C1020.46 110.25 1020.77 109.954 1020.77 109.577C1020.77 109.2 1020.47 108.904 1020.08 108.904C1019.7 108.904 1019.41 109.2 1019.41 109.577C1019.41 109.954 1019.7 110.25 1020.08 110.25ZM1020.54 110.905H1019.61V115.535H1020.54V110.905Z" fill="white"/>
<path d="M1025.95 113.507C1025.96 113.409 1025.97 113.292 1025.97 113.166C1025.97 111.901 1025.05 110.851 1023.81 110.851C1022.54 110.851 1021.6 111.901 1021.6 113.22C1021.6 114.566 1022.52 115.589 1023.86 115.589C1025.29 115.589 1025.81 114.494 1025.89 114.055H1024.93C1024.84 114.324 1024.5 114.746 1023.86 114.746C1023.07 114.746 1022.64 114.198 1022.56 113.507H1025.95ZM1023.81 111.695C1024.5 111.695 1024.92 112.188 1025.02 112.807H1022.58C1022.7 112.179 1023.12 111.695 1023.81 111.695Z" fill="white"/>
<path d="M1030.27 109.075V111.614C1029.97 111.174 1029.43 110.851 1028.8 110.851C1027.72 110.851 1026.78 111.856 1026.78 113.22C1026.78 114.584 1027.72 115.589 1028.8 115.589C1029.43 115.589 1029.93 115.347 1030.27 114.826V115.535H1031.2V109.075H1030.27ZM1029.02 114.683C1028.26 114.683 1027.71 114.028 1027.71 113.22C1027.71 112.413 1028.26 111.767 1029.02 111.767C1029.78 111.767 1030.27 112.413 1030.27 113.22C1030.27 114.028 1029.78 114.683 1029.02 114.683Z" fill="white"/>
<path d="M967.627 122.437V131.941H971.337C973.937 131.941 976.089 129.869 976.089 127.189C976.089 124.51 973.924 122.437 971.337 122.437H967.627ZM969.383 130.186V124.193H971.337C972.987 124.193 974.333 125.539 974.333 127.189C974.333 128.839 972.987 130.186 971.337 130.186H969.383ZM981.924 126.001C981.423 125.421 980.723 125.051 979.931 125.051C978.308 125.051 977.014 126.609 977.014 128.536C977.014 130.463 978.308 132.021 979.931 132.021C980.723 132.021 981.41 131.651 981.924 131.07V131.941H983.68V125.13H981.924V126.001ZM980.354 130.278C979.469 130.278 978.756 129.499 978.756 128.536C978.756 127.572 979.469 126.807 980.354 126.807C981.238 126.807 981.924 127.572 981.924 128.536C981.924 129.499 981.238 130.278 980.354 130.278ZM988.528 130.41C988.04 130.41 987.696 130.212 987.696 129.684V126.661H989.307V125.13H987.696V123.19H985.941V125.13H984.832V126.661H985.941V129.724C985.941 131.321 986.786 132.021 988.132 132.021C988.515 132.021 988.937 131.941 989.307 131.836V130.278C989.069 130.344 988.792 130.41 988.528 130.41ZM995.008 126.001C994.507 125.421 993.807 125.051 993.015 125.051C991.392 125.051 990.098 126.609 990.098 128.536C990.098 130.463 991.392 132.021 993.015 132.021C993.807 132.021 994.494 131.651 995.008 131.07V131.941H996.764V125.13H995.008V126.001ZM993.438 130.278C992.553 130.278 991.84 129.499 991.84 128.536C991.84 127.572 992.553 126.807 993.438 126.807C994.322 126.807 995.008 127.572 995.008 128.536C995.008 129.499 994.322 130.278 993.438 130.278ZM1010.96 131.941L1007.27 122.437H1005.36L1001.66 131.941H1003.57L1004.5 129.513H1008.12L1009.06 131.941H1010.96ZM1005.47 127.031C1005.8 126.213 1006.05 125.513 1006.3 124.747H1006.31C1006.59 125.513 1006.84 126.213 1007.16 127.031L1007.49 127.889H1005.14L1005.47 127.031ZM1015.57 125.051C1014.79 125.051 1014.08 125.421 1013.68 126.028V125.13H1011.98V131.941H1013.74V128.153C1013.74 127.348 1014.31 126.807 1015.03 126.807C1015.74 126.807 1016.31 127.335 1016.31 128.14V131.941H1018.07V127.929C1018.07 125.975 1017.09 125.051 1015.57 125.051ZM1024.31 126.001C1023.81 125.421 1023.11 125.051 1022.32 125.051C1020.69 125.051 1019.4 126.609 1019.4 128.536C1019.4 130.463 1020.69 132.021 1022.32 132.021C1023.11 132.021 1023.79 131.651 1024.31 131.07V131.941H1026.06V125.13H1024.31V126.001ZM1022.74 130.278C1021.85 130.278 1021.14 129.499 1021.14 128.536C1021.14 127.572 1021.85 126.807 1022.74 126.807C1023.62 126.807 1024.31 127.572 1024.31 128.536C1024.31 129.499 1023.62 130.278 1022.74 130.278ZM1027.9 122.437V131.941H1029.66V122.437H1027.9ZM1035.78 125.13V128.919C1035.78 129.645 1035.21 130.265 1034.48 130.265C1033.74 130.265 1033.2 129.658 1033.2 128.919V125.13H1031.45V129.235C1031.45 130.806 1032.23 132.021 1033.8 132.021C1034.55 132.021 1035.29 131.638 1035.78 131.097V131.809C1035.78 132.76 1035.2 133.552 1034.23 133.552C1033.4 133.552 1032.82 133.063 1032.74 132.403H1030.92C1030.98 133.671 1032.09 135.189 1034.21 135.189C1036.07 135.189 1037.53 133.763 1037.53 131.783V125.13H1035.78ZM1038.85 129.645C1038.86 130.753 1039.78 132.021 1041.53 132.021C1043.02 132.021 1044.14 131.202 1044.17 129.803C1044.19 128.839 1043.52 128.087 1042.19 127.783L1041.26 127.572C1040.92 127.493 1040.75 127.321 1040.75 127.044C1040.75 126.701 1041.05 126.45 1041.54 126.45C1042.03 126.45 1042.39 126.793 1042.4 127.282H1043.96C1043.96 126.186 1043.02 125.051 1041.55 125.051C1040.08 125.051 1039.02 125.883 1039.02 127.071C1039.02 128.047 1039.53 128.773 1040.81 129.09L1041.65 129.288C1042.17 129.42 1042.44 129.579 1042.44 129.922C1042.44 130.291 1042.07 130.516 1041.61 130.516C1041.07 130.516 1040.62 130.199 1040.6 129.645H1038.85ZM1048.34 130.41C1047.85 130.41 1047.51 130.212 1047.51 129.684V126.661H1049.12V125.13H1047.51V123.19H1045.75V125.13H1044.64V126.661H1045.75V129.724C1045.75 131.321 1046.6 132.021 1047.94 132.021C1048.33 132.021 1048.75 131.941 1049.12 131.836V130.278C1048.88 130.344 1048.6 130.41 1048.34 130.41Z" fill="white"/>
</g>
<defs>
<filter id="filter0_dd_7902_131633" x="947.05" y="26.7" width="122.1" height="141.902" filterUnits="userSpaceOnUse" color-interpolation-filters="sRGB">
<feFlood flood-opacity="0" result="BackgroundImageFix"/>
<feColorMatrix in="SourceAlpha" type="matrix" values="0 0 0 0 0 0 0 0 0 0 0 0 0 0 0 0 0 0 127 0" result="hardAlpha"/>
<feMorphology radius="1.65" operator="erode" in="SourceAlpha" result="effect1_dropShadow_7902_131633"/>
<feOffset dy="1.65"/>
<feGaussianBlur stdDeviation="3.3"/>
<feColorMatrix type="matrix" values="0 0 0 0 0.0196078 0 0 0 0 0.0980392 0 0 0 0 0.176471 0 0 0 0.3 0"/>
<feBlend mode="normal" in2="BackgroundImageFix" result="effect1_dropShadow_7902_131633"/>
<feColorMatrix in="SourceAlpha" type="matrix" values="0 0 0 0 0 0 0 0 0 0 0 0 0 0 0 0 0 0 127 0" result="hardAlpha"/>
<feOffset/>
<feGaussianBlur stdDeviation="0.825"/>
<feColorMatrix type="matrix" values="0 0 0 0 0.0196078 0 0 0 0 0.0980392 0 0 0 0 0.176471 0 0 0 0.3 0"/>
<feBlend mode="normal" in2="effect1_dropShadow_7902_131633" result="effect2_dropShadow_7902_131633"/>
<feBlend mode="normal" in="SourceGraphic" in2="effect2_dropShadow_7902_131633" result="shape"/>
</filter>
<filter id="filter1_d_7902_131633" x="963.147" y="57.3095" width="89.9051" height="89.9051" filterUnits="userSpaceOnUse" color-interpolation-filters="sRGB">
<feFlood flood-opacity="0" result="BackgroundImageFix"/>
<feColorMatrix in="SourceAlpha" type="matrix" values="0 0 0 0 0 0 0 0 0 0 0 0 0 0 0 0 0 0 127 0" result="hardAlpha"/>
<feOffset dy="22.762"/>
<feGaussianBlur stdDeviation="14.2263"/>
<feComposite in2="hardAlpha" operator="out"/>
<feColorMatrix type="matrix" values="0 0 0 0 0 0 0 0 0 0.0313726 0 0 0 0 0.12549 0 0 0 1 0"/>
<feBlend mode="normal" in2="BackgroundImageFix" result="effect1_dropShadow_7902_131633"/>
<feBlend mode="normal" in="SourceGraphic" in2="effect1_dropShadow_7902_131633" result="shape"/>
</filter>
<linearGradient id="paint0_linear_7902_131633" x1="307.545" y1="240.086" x2="505.8" y2="321.019" gradientUnits="userSpaceOnUse">
<stop stop-color="#06BDFC"/>
<stop offset="1" stop-color="#05192D"/>
</linearGradient>
<linearGradient id="paint1_linear_7902_131633" x1="308.684" y1="162.403" x2="317.709" y2="73.067" gradientUnits="userSpaceOnUse">
<stop stop-color="#06BDFC"/>
<stop offset="1" stop-color="#05192D"/>
</linearGradient>
<linearGradient id="paint2_linear_7902_131633" x1="13.6873" y1="28.5287" x2="57.4554" y2="213.187" gradientUnits="userSpaceOnUse">
<stop stop-color="#06BDFC"/>
<stop offset="1" stop-color="#05192D"/>
</linearGradient>
<linearGradient id="paint3_linear_7902_131633" x1="5.54523" y1="-2.99998" x2="145.366" y2="-30.2698" gradientUnits="userSpaceOnUse">
<stop stop-color="#06BDFC"/>
<stop offset="1" stop-color="#05192D"/>
</linearGradient>
<linearGradient id="paint4_linear_7902_131633" x1="23.6778" y1="68.021" x2="187.133" y2="68.021" gradientUnits="userSpaceOnUse">
<stop stop-color="#06BDFC"/>
<stop offset="1" stop-color="#05192D"/>
</linearGradient>
<linearGradient id="paint5_linear_7902_131633" x1="393.661" y1="-96" x2="355.412" y2="57.6174" gradientUnits="userSpaceOnUse">
<stop stop-color="#06BDFC"/>
<stop offset="1" stop-color="#05192D"/>
</linearGradient>
<linearGradient id="paint6_linear_7902_131633" x1="4.9115" y1="79.5664" x2="-18.6637" y2="-79.0752" gradientUnits="userSpaceOnUse">
<stop stop-color="#06BDFC"/>
<stop offset="1" stop-color="#05192D"/>
</linearGradient>
<linearGradient id="paint7_linear_7902_131633" x1="1008.1" y1="44.8496" x2="1008.1" y2="101.775" gradientUnits="userSpaceOnUse">
<stop stop-color="white" stop-opacity="0.24"/>
<stop offset="1" stop-color="#05192D"/>
</linearGradient>
<linearGradient id="paint8_linear_7902_131633" x1="1008.1" y1="56.4004" x2="1008.1" y2="102.6" gradientUnits="userSpaceOnUse">
<stop stop-color="white" stop-opacity="0.24"/>
<stop offset="1" stop-color="white" stop-opacity="0"/>
</linearGradient>
<clipPath id="clip0_7902_131633">
<rect width="73.649" height="15.3893" fill="white" transform="translate(846.351 120.199)"/>
</clipPath>
<clipPath id="clip1_7902_131633">
<rect width="7.04252" height="9.39003" fill="white" transform="translate(985 107.551)"/>
</clipPath>
</defs>
</svg>
