<svg width="1500" height="500" viewBox="0 0 1500 500" fill="none" xmlns="http://www.w3.org/2000/svg">
<g clip-path="url(#clip0_7902_131704)">
<rect width="1500" height="500" fill="#05192D"/>
<mask id="mask0_7902_131704" style="mask-type:alpha" maskUnits="userSpaceOnUse" x="0" y="0" width="1500" height="500">
<rect width="1500" height="500" fill="#05192D"/>
</mask>
<g mask="url(#mask0_7902_131704)">
<path d="M-1.09454 332V332C32.2807 332 59.3366 304.944 59.3366 271.569L59.3366 -4.31239L-1.09457 -4.31238" stroke="url(#paint0_linear_7902_131704)" stroke-width="1.95036"/>
<rect x="-6.34918" y="-4.76367" width="284.395" height="112.951" stroke="url(#paint1_linear_7902_131704)" stroke-width="1.95036"/>
<circle cx="279.054" cy="109.193" r="77.654" stroke="url(#paint2_linear_7902_131704)" stroke-width="1.95036"/>
<path d="M525 33.245C525 67.6825 552.917 95.5996 587.355 95.5996L930.972 95.5997L930.972 -5.38841L525 -5.38849L525 33.245Z" stroke="url(#paint3_linear_7902_131704)" stroke-width="1.94858"/>
<rect width="181.457" height="189.857" rx="90.7283" transform="matrix(1 9.20383e-08 8.30387e-08 -1 840.369 95.5996)" stroke="url(#paint4_linear_7902_131704)" stroke-width="1.94858"/>
<path d="M733.38 458.627C733.38 433.189 712.759 412.568 687.322 412.568L182.54 412.568L182.54 533.605L733.38 533.605L733.38 458.627Z" stroke="url(#paint5_linear_7902_131704)" stroke-width="1.91911"/>
<path d="M380.523 353.213C380.523 315.057 349.591 284.125 311.435 284.125L182.54 284.125L182.54 454.801L380.523 454.801L380.523 353.213Z" stroke="url(#paint6_linear_7902_131704)" stroke-width="1.91911"/>
</g>
<path d="M827.76 215.729C836.743 215.729 842.631 209.591 843.779 202.804H836.892C835.645 206.746 831.952 209.092 827.76 209.092C821.322 209.092 816.232 203.902 816.232 197.464C816.232 191.027 821.322 185.837 827.76 185.837C831.752 185.837 835.744 188.531 836.842 192.274H843.729C842.631 186.136 836.892 179.199 827.76 179.199C817.679 179.199 809.595 187.384 809.595 197.464C809.595 207.545 817.679 215.729 827.76 215.729ZM872.115 204.401C872.165 203.952 872.215 203.203 872.215 202.455C872.215 195.268 866.925 189.38 860.238 189.38C853.152 189.38 847.513 195.119 847.513 202.554C847.513 210.14 853.002 215.729 860.438 215.729C868.672 215.729 871.466 209.242 871.766 206.996H865.129C864.63 208.393 863.033 209.89 860.438 209.89C856.595 209.89 854.799 207.445 854.399 204.401H872.115ZM860.238 195.219C863.232 195.219 864.929 197.215 865.478 199.959H854.599C855.198 197.215 857.094 195.219 860.238 195.219ZM890.75 189.38C887.805 189.38 885.31 190.577 883.763 193.123V189.679H877.126V215.43H883.763V202.654C883.763 197.913 886.208 195.867 890.051 195.867C891.698 195.867 892.995 196.117 893.594 196.217V189.579C892.995 189.529 892.047 189.38 890.75 189.38ZM909.22 209.641C907.373 209.641 906.076 208.892 906.076 206.896V195.468H912.164V189.679H906.076V182.343H899.439V189.679H895.247V195.468H899.439V207.046C899.439 213.084 902.632 215.729 907.723 215.729C909.17 215.729 910.767 215.43 912.164 215.03V209.142C911.266 209.391 910.218 209.641 909.22 209.641ZM920.479 186.835C922.875 186.835 925.021 184.838 925.021 182.343C925.021 179.898 922.975 177.952 920.479 177.952C917.984 177.952 916.038 179.898 916.038 182.343C916.038 184.838 917.984 186.835 920.479 186.835ZM923.773 189.679H917.136V215.43H923.773V189.679ZM939.37 189.679V188.082C939.37 185.986 940.767 185.288 942.514 185.288C943.661 185.288 944.759 185.587 945.059 185.687V179.848C944.51 179.648 942.663 179.199 940.418 179.199C935.477 179.199 932.732 182.892 932.732 188.032V189.679H928.59V195.468H932.732V215.43H939.37V195.468H945.458V189.679H939.37ZM953.18 186.835C955.576 186.835 957.721 184.838 957.721 182.343C957.721 179.898 955.675 177.952 953.18 177.952C950.685 177.952 948.739 179.898 948.739 182.343C948.739 184.838 950.685 186.835 953.18 186.835ZM956.474 189.679H949.837V215.43H956.474V189.679ZM986.154 204.401C986.204 203.952 986.254 203.203 986.254 202.455C986.254 195.268 980.964 189.38 974.277 189.38C967.19 189.38 961.551 195.119 961.551 202.554C961.551 210.14 967.041 215.729 974.476 215.729C982.711 215.729 985.505 209.242 985.805 206.996H979.167C978.668 208.393 977.071 209.89 974.476 209.89C970.634 209.89 968.837 207.445 968.438 204.401H986.154ZM974.277 195.219C977.271 195.219 978.968 197.215 979.517 199.959H968.638C969.236 197.215 971.133 195.219 974.277 195.219ZM1008.87 179.499V193.172C1007.22 190.977 1004.48 189.38 1001.43 189.38C995.395 189.38 990.305 194.819 990.305 202.554C990.305 210.29 995.395 215.729 1001.43 215.729C1004.48 215.729 1007.12 214.631 1008.87 211.936V215.43H1015.51V179.499H1008.87ZM1002.93 209.142C999.587 209.142 996.892 206.197 996.892 202.554C996.892 198.911 999.587 195.967 1002.93 195.967C1006.32 195.967 1008.87 198.911 1008.87 202.554C1008.87 206.197 1006.32 209.142 1002.93 209.142ZM1054.29 192.973C1052.39 190.777 1049.75 189.38 1046.75 189.38C1040.62 189.38 1035.73 195.268 1035.73 202.554C1035.73 209.84 1040.62 215.729 1046.75 215.729C1049.75 215.729 1052.34 214.332 1054.29 212.136V215.43H1060.93V189.679H1054.29V192.973ZM1048.35 209.142C1045.01 209.142 1042.31 206.197 1042.31 202.554C1042.31 198.911 1045.01 196.017 1048.35 196.017C1051.69 196.017 1054.29 198.911 1054.29 202.554C1054.29 206.197 1051.69 209.142 1048.35 209.142ZM1065.93 206.746C1065.98 210.938 1069.47 215.729 1076.06 215.729C1081.7 215.729 1085.94 212.635 1086.04 207.345C1086.14 203.702 1083.6 200.858 1078.56 199.71L1075.06 198.911C1073.76 198.612 1073.12 197.963 1073.12 196.915C1073.12 195.618 1074.26 194.67 1076.11 194.67C1077.96 194.67 1079.3 195.967 1079.35 197.814H1085.24C1085.24 193.671 1081.7 189.38 1076.16 189.38C1070.57 189.38 1066.58 192.524 1066.58 197.015C1066.58 200.708 1068.53 203.453 1073.37 204.65L1076.51 205.399C1078.51 205.898 1079.5 206.497 1079.5 207.794C1079.5 209.192 1078.11 210.04 1076.36 210.04C1074.31 210.04 1072.62 208.842 1072.57 206.746H1065.93ZM1122.96 192.973C1121.06 190.777 1118.42 189.38 1115.42 189.38C1109.28 189.38 1104.39 195.268 1104.39 202.554C1104.39 209.84 1109.28 215.729 1115.42 215.729C1118.42 215.729 1121.01 214.332 1122.96 212.136V215.43H1129.59V189.679H1122.96V192.973ZM1117.02 209.142C1113.67 209.142 1110.98 206.197 1110.98 202.554C1110.98 198.911 1113.67 196.017 1117.02 196.017C1120.36 196.017 1122.96 198.911 1122.96 202.554C1122.96 206.197 1120.36 209.142 1117.02 209.142ZM576.442 241.499V277.43H590.465C600.296 277.43 608.431 269.595 608.431 259.464C608.431 249.334 600.246 241.499 590.465 241.499H576.442ZM583.079 270.792V248.136H590.465C596.703 248.136 601.793 253.226 601.793 259.464C601.793 265.702 596.703 270.792 590.465 270.792H583.079ZM630.494 254.973C628.598 252.777 625.953 251.38 622.959 251.38C616.82 251.38 611.93 257.268 611.93 264.554C611.93 271.84 616.82 277.729 622.959 277.729C625.953 277.729 628.548 276.332 630.494 274.136V277.43H637.131V251.679H630.494V254.973ZM624.556 271.142C621.212 271.142 618.517 268.197 618.517 264.554C618.517 260.911 621.212 258.017 624.556 258.017C627.899 258.017 630.494 260.911 630.494 264.554C630.494 268.197 627.899 271.142 624.556 271.142ZM655.459 271.641C653.613 271.641 652.315 270.892 652.315 268.896V257.468H658.403V251.679H652.315V244.343H645.678V251.679H641.486V257.468H645.678V269.046C645.678 275.084 648.872 277.729 653.962 277.729C655.409 277.729 657.006 277.43 658.403 277.03V271.142C657.505 271.391 656.457 271.641 655.459 271.641ZM679.96 254.973C678.063 252.777 675.418 251.38 672.424 251.38C666.286 251.38 661.395 257.268 661.395 264.554C661.395 271.84 666.286 277.729 672.424 277.729C675.418 277.729 678.013 276.332 679.96 274.136V277.43H686.597V251.679H679.96V254.973ZM674.021 271.142C670.678 271.142 667.983 268.197 667.983 264.554C667.983 260.911 670.678 258.017 674.021 258.017C677.365 258.017 679.96 260.911 679.96 264.554C679.96 268.197 677.365 271.142 674.021 271.142ZM740.255 277.43L726.332 241.499H719.096L705.123 277.43H712.309L715.852 268.247H729.526L733.069 277.43H740.255ZM719.495 258.865C720.743 255.771 721.691 253.126 722.639 250.232H722.689C723.737 253.126 724.685 255.771 725.883 258.865L727.13 262.109H718.247L719.495 258.865ZM757.703 251.38C754.759 251.38 752.064 252.777 750.567 255.073V251.679H744.129V277.43H750.767V263.107C750.767 260.063 752.913 258.017 755.657 258.017C758.352 258.017 760.498 260.013 760.498 263.057V277.43H767.135V262.259C767.135 254.873 763.442 251.38 757.703 251.38ZM790.733 254.973C788.837 252.777 786.192 251.38 783.198 251.38C777.06 251.38 772.169 257.268 772.169 264.554C772.169 271.84 777.06 277.729 783.198 277.729C786.192 277.729 788.787 276.332 790.733 274.136V277.43H797.37V251.679H790.733V254.973ZM784.795 271.142C781.451 271.142 778.756 268.197 778.756 264.554C778.756 260.911 781.451 258.017 784.795 258.017C788.138 258.017 790.733 260.911 790.733 264.554C790.733 268.197 788.138 271.142 784.795 271.142ZM804.32 241.499V277.43H810.957V241.499H804.32ZM834.088 251.679V266.002C834.088 268.746 831.942 271.092 829.198 271.092C826.403 271.092 824.357 268.796 824.357 266.002V251.679H817.72V267.199C817.72 273.138 820.664 277.729 826.603 277.729C829.447 277.729 832.242 276.282 834.088 274.236V276.931C834.088 280.524 831.892 283.518 828.249 283.518C825.105 283.518 822.91 281.672 822.61 279.176H815.724C815.973 283.967 820.165 289.706 828.15 289.706C835.186 289.706 840.725 284.316 840.725 276.831V251.679H834.088ZM845.699 268.746C845.749 272.938 849.242 277.729 855.829 277.729C861.468 277.729 865.71 274.635 865.81 269.345C865.91 265.702 863.365 262.858 858.324 261.71L854.831 260.911C853.534 260.612 852.885 259.963 852.885 258.915C852.885 257.618 854.033 256.67 855.879 256.67C857.726 256.67 859.073 257.967 859.123 259.814H865.012C865.012 255.671 861.468 251.38 855.929 251.38C850.34 251.38 846.347 254.524 846.347 259.015C846.347 262.708 848.294 265.453 853.134 266.65L856.278 267.399C858.275 267.898 859.273 268.497 859.273 269.794C859.273 271.192 857.875 272.04 856.129 272.04C854.083 272.04 852.386 270.842 852.336 268.746H845.699ZM881.587 271.641C879.741 271.641 878.443 270.892 878.443 268.896V257.468H884.532V251.679H878.443V244.343H871.806V251.679H867.614V257.468H871.806V269.046C871.806 275.084 875 277.729 880.09 277.729C881.537 277.729 883.134 277.43 884.532 277.03V271.142C883.633 271.391 882.585 271.641 881.587 271.641ZM936.46 277.43L922.537 241.499H915.301L901.328 277.43H908.514L912.057 268.247H925.731L929.274 277.43H936.46ZM915.7 258.865C916.948 255.771 917.896 253.126 918.844 250.232H918.894C919.942 253.126 920.89 255.771 922.088 258.865L923.336 262.109H914.453L915.7 258.865ZM938.538 268.746C938.588 272.938 942.081 277.729 948.669 277.729C954.308 277.729 958.55 274.635 958.649 269.345C958.749 265.702 956.204 262.858 951.164 261.71L947.67 260.911C946.373 260.612 945.724 259.963 945.724 258.915C945.724 257.618 946.872 256.67 948.718 256.67C950.565 256.67 951.912 257.967 951.962 259.814H957.851C957.851 255.671 954.308 251.38 948.768 251.38C943.179 251.38 939.187 254.524 939.187 259.015C939.187 262.708 941.133 265.453 945.974 266.65L949.118 267.399C951.114 267.898 952.112 268.497 952.112 269.794C952.112 271.192 950.715 272.04 948.968 272.04C946.922 272.04 945.225 270.842 945.175 268.746H938.538ZM961.931 268.746C961.98 272.938 965.474 277.729 972.061 277.729C977.7 277.729 981.942 274.635 982.042 269.345C982.142 265.702 979.597 262.858 974.556 261.71L971.063 260.911C969.766 260.612 969.117 259.963 969.117 258.915C969.117 257.618 970.265 256.67 972.111 256.67C973.957 256.67 975.305 257.967 975.355 259.814H981.243C981.243 255.671 977.7 251.38 972.161 251.38C966.572 251.38 962.579 254.524 962.579 259.015C962.579 262.708 964.526 265.453 969.366 266.65L972.51 267.399C974.506 267.898 975.504 268.497 975.504 269.794C975.504 271.192 974.107 272.04 972.361 272.04C970.314 272.04 968.618 270.842 968.568 268.746H961.931ZM998.548 277.729H998.598C1005.63 277.729 1011.32 271.791 1011.32 264.554C1011.32 257.318 1005.63 251.38 998.598 251.38H998.548C991.461 251.38 985.772 257.268 985.772 264.554C985.772 271.84 991.461 277.729 998.548 277.729ZM998.548 271.142C995.054 271.142 992.36 268.148 992.36 264.554C992.36 260.961 995.054 258.017 998.548 257.967H998.598C1001.99 257.967 1004.69 260.961 1004.69 264.554C1004.69 268.148 1002.04 271.142 998.598 271.142H998.548ZM1040.01 261.261C1039.71 257.219 1035.86 251.38 1028.13 251.38C1021.04 251.38 1015.35 257.268 1015.35 264.554C1015.35 271.84 1021.04 277.729 1028.13 277.729C1035.12 277.729 1039.71 271.641 1039.91 267.848H1033.32C1032.87 269.844 1030.67 271.441 1028.13 271.441C1024.44 271.441 1021.94 268.148 1021.94 264.554C1021.94 260.961 1024.24 257.668 1028.13 257.668C1030.48 257.668 1032.62 259.065 1033.27 261.261H1040.01ZM1048.46 248.835C1050.85 248.835 1053 246.838 1053 244.343C1053 241.898 1050.95 239.952 1048.46 239.952C1045.96 239.952 1044.01 241.898 1044.01 244.343C1044.01 246.838 1045.96 248.835 1048.46 248.835ZM1051.75 251.679H1045.11V277.43H1051.75V251.679ZM1075.39 254.973C1073.5 252.777 1070.85 251.38 1067.86 251.38C1061.72 251.38 1056.83 257.268 1056.83 264.554C1056.83 271.84 1061.72 277.729 1067.86 277.729C1070.85 277.729 1073.45 276.332 1075.39 274.136V277.43H1082.03V251.679H1075.39V254.973ZM1069.45 271.142C1066.11 271.142 1063.41 268.197 1063.41 264.554C1063.41 260.911 1066.11 258.017 1069.45 258.017C1072.8 258.017 1075.39 260.911 1075.39 264.554C1075.39 268.197 1072.8 271.142 1069.45 271.142ZM1100.36 271.641C1098.51 271.641 1097.21 270.892 1097.21 268.896V257.468H1103.3V251.679H1097.21V244.343H1090.58V251.679H1086.38V257.468H1090.58V269.046C1090.58 275.084 1093.77 277.729 1098.86 277.729C1100.31 277.729 1101.9 277.43 1103.3 277.03V271.142C1102.4 271.391 1101.35 271.641 1100.36 271.641ZM1130.9 266.401C1130.95 265.952 1131 265.203 1131 264.455C1131 257.268 1125.71 251.38 1119.02 251.38C1111.93 251.38 1106.29 257.119 1106.29 264.554C1106.29 272.14 1111.78 277.729 1119.22 277.729C1127.45 277.729 1130.25 271.242 1130.55 268.996H1123.91C1123.41 270.393 1121.81 271.89 1119.22 271.89C1115.38 271.89 1113.58 269.445 1113.18 266.401H1130.9ZM1119.02 257.219C1122.01 257.219 1123.71 259.215 1124.26 261.959H1113.38C1113.98 259.215 1115.87 257.219 1119.02 257.219Z" fill="white"/>
<path d="M949.166 316.047C950.4 315.361 951.291 314.035 951.291 312.527C951.291 310.104 949.12 308.115 946.583 308.115H940.023V324.572H947.246C949.714 324.572 951.931 322.584 951.931 320.161C951.954 318.424 950.949 316.801 949.166 316.07V316.047ZM946.583 310.492C947.886 310.492 948.914 311.521 948.914 312.801C948.914 313.967 947.954 314.995 946.674 315.018H942.4V310.492H946.583ZM942.4 322.195V317.418H947.246C948.526 317.418 949.554 318.538 949.554 319.818C949.554 321.121 948.526 322.195 947.246 322.195H942.4ZM962.073 312.778V319.635C962.073 321.098 960.885 322.355 959.376 322.355C957.891 322.355 956.702 321.121 956.702 319.635V312.778H954.325V319.909C954.325 322.584 955.925 324.709 958.531 324.709C959.993 324.709 961.273 323.932 962.073 322.972V324.435C962.073 326.561 960.885 327.955 958.988 327.955C957.182 327.955 956.176 327.018 955.994 325.555H953.502C953.639 327.909 955.514 330.195 958.942 330.195C962.142 330.195 964.451 327.795 964.451 324.344V312.778H962.073Z" fill="white"/>
<g clip-path="url(#clip1_7902_131704)">
<path fill-rule="evenodd" clip-rule="evenodd" d="M1017.53 323.657C1014.75 323.657 1012.49 321.391 1012.49 318.595C1012.49 315.8 1014.75 313.534 1017.53 313.534C1020.32 313.534 1022.57 315.8 1022.57 318.595C1022.57 319.938 1022.04 321.225 1021.1 322.174C1020.15 323.124 1018.87 323.657 1017.53 323.657ZM1022.58 305.326V313.195C1019.66 310.435 1015.07 310.531 1012.26 313.411C1009.45 316.291 1009.45 320.898 1012.26 323.778C1015.07 326.658 1019.66 326.754 1022.58 323.994V325.625H1024.91V305.326H1022.58ZM1087.45 323.657C1084.67 323.657 1082.41 321.391 1082.41 318.595C1082.41 315.8 1084.67 313.534 1087.45 313.534C1090.23 313.534 1092.49 315.8 1092.49 318.595C1092.49 319.938 1091.96 321.225 1091.01 322.174C1090.07 323.124 1088.79 323.657 1087.45 323.657ZM1094.83 318.595V311.265H1092.5V313.195C1089.57 310.435 1084.99 310.531 1082.18 313.411C1079.37 316.291 1079.37 320.898 1082.18 323.778C1084.99 326.658 1089.57 326.754 1092.5 323.994V325.625H1094.83V318.595H1094.83ZM1113.4 311.81C1113.61 311.466 1113.99 311.256 1114.39 311.257H1114.84C1115.79 311.257 1116.56 312.032 1116.56 312.988V325.625H1114.18V314.919C1113.08 316.697 1109.16 323.141 1107.98 325.074C1107.77 325.417 1107.4 325.626 1107 325.625H1106.52C1105.88 325.625 1105.37 325.109 1105.37 324.472V314.892C1104.08 316.974 1100.14 323.447 1098.9 325.517L1098.83 325.625H1096.55V311.261H1098.93V311.291L1098.87 321.199L1104.57 311.813C1104.78 311.469 1105.15 311.26 1105.55 311.26H1106.01C1106.96 311.26 1107.73 312.032 1107.73 312.986C1107.73 315.627 1107.74 320.437 1107.74 321.137L1113.4 311.81ZM1079.84 322.957C1077.94 325.575 1074.57 326.652 1071.52 325.616C1068.46 324.581 1066.43 321.673 1066.5 318.437C1066.57 315.2 1068.73 312.385 1071.83 311.486C1074.92 310.587 1078.24 311.812 1080.02 314.511L1077.79 315.677C1076.58 313.972 1074.44 313.218 1072.44 313.798C1070.44 314.378 1069.02 316.165 1068.91 318.252C1068.79 320.34 1070 322.272 1071.93 323.07C1073.85 323.867 1076.07 323.354 1077.45 321.792L1079.84 322.957ZM1125.46 323.668C1122.8 323.667 1120.6 321.582 1120.44 318.911V318.305C1120.6 315.554 1122.93 313.44 1125.67 313.551C1128.41 313.661 1130.56 315.954 1130.51 318.71C1130.45 321.465 1128.21 323.67 1125.47 323.67L1125.46 323.668ZM1125.47 311.201C1123.6 311.198 1121.8 311.91 1120.44 313.192V311.265H1118.11V331.489H1120.44V324.023C1122.85 326.288 1126.48 326.66 1129.3 324.934C1132.13 323.207 1133.46 319.804 1132.57 316.606C1131.68 313.409 1128.77 311.199 1125.47 311.2V311.201ZM1046.49 313.507V322.34C1046.49 322.864 1046.92 323.289 1047.44 323.289H1050.15V325.625H1047.44C1045.63 325.624 1044.17 324.154 1044.17 322.34L1044.16 313.507H1041.65V311.231H1044.16V307.304H1046.49V311.24H1050.63V313.507H1046.49ZM1057.79 323.656C1055 323.656 1052.75 321.389 1052.75 318.594C1052.75 315.798 1055 313.532 1057.79 313.532C1060.57 313.532 1062.83 315.798 1062.83 318.594C1062.83 319.936 1062.3 321.224 1061.35 322.173C1060.41 323.122 1059.12 323.656 1057.79 323.656ZM1062.83 311.264V313.195C1059.91 310.435 1055.32 310.531 1052.51 313.411C1049.7 316.291 1049.7 320.898 1052.51 323.778C1055.32 326.658 1059.91 326.754 1062.83 323.994V325.625H1065.16V311.261L1062.83 311.264ZM1033.22 323.657C1030.44 323.657 1028.18 321.391 1028.18 318.595C1028.18 315.8 1030.44 313.534 1033.22 313.534C1036.01 313.534 1038.26 315.8 1038.26 318.595C1038.26 319.938 1037.73 321.226 1036.79 322.175C1035.84 323.124 1034.56 323.657 1033.22 323.657ZM1038.27 311.265V313.195C1035.35 310.435 1030.76 310.531 1027.95 313.411C1025.14 316.291 1025.14 320.898 1027.95 323.778C1030.76 326.658 1035.35 326.754 1038.27 323.994V325.625H1040.6V311.261L1038.27 311.265Z" fill="white"/>
<path fill-rule="evenodd" clip-rule="evenodd" d="M990.215 307.139V314.546L982.388 319.028V302.629L990.215 307.139ZM992.747 322.7V316.025L1003.23 310.019L1000.68 308.552L992.747 313.096V306.398C992.746 305.942 992.504 305.522 992.111 305.294L982.564 299.799C982.538 299.783 982.513 299.77 982.487 299.757C981.92 299.48 981.251 299.516 980.716 299.852C980.182 300.189 979.858 300.778 979.859 301.411V320.241C979.857 320.876 980.181 321.466 980.716 321.803C981.251 322.141 981.921 322.177 982.489 321.9L982.561 321.863L990.209 317.478V323.451C990.211 323.908 990.454 324.329 990.848 324.556L1000.66 330.149L1003.21 328.681L992.747 322.7Z" fill="#03EF62"/>
</g>
<g filter="url(#filter0_dd_7902_131704)">
<path d="M1192.39 229.599C1192.39 167.63 1242.63 117.394 1304.6 117.394C1366.57 117.394 1416.8 167.63 1416.8 229.599V372.423C1416.8 378.046 1412.25 382.604 1406.62 382.604H1202.57C1196.95 382.604 1192.39 378.046 1192.39 372.423V229.599Z" fill="#05192D" stroke="#06BDFC" stroke-width="6.7872"/>
<circle cx="1304.6" cy="226.201" r="81.5993" stroke="url(#paint7_linear_7902_131704)" stroke-width="3.3936"/>
<circle cx="1304.6" cy="216.002" r="47.5996" fill="url(#paint8_linear_7902_131704)"/>
<g filter="url(#filter1_d_7902_131704)">
<circle cx="1304.6" cy="216.004" r="33.9997" fill="white"/>
</g>
<path fill-rule="evenodd" clip-rule="evenodd" d="M1304.6 197.869C1311.48 197.869 1317.07 203.451 1317.07 210.336C1317.07 214.207 1315.3 217.666 1312.53 219.953V232.2C1312.53 233.774 1310.98 234.841 1309.54 234.348L1309.3 234.252L1304.59 232.038L1299.9 234.251C1298.47 234.921 1296.85 233.972 1296.68 232.458L1296.67 232.2V219.953C1293.9 217.666 1292.13 214.207 1292.13 210.336C1292.13 203.451 1297.71 197.869 1304.6 197.869ZM1301.2 222.333V228.624L1303.63 227.484C1304.15 227.237 1304.75 227.202 1305.29 227.378L1305.56 227.483L1308 228.629V222.333C1306.92 222.639 1305.78 222.802 1304.6 222.802C1303.42 222.802 1302.28 222.639 1301.2 222.333ZM1304.6 202.401C1300.22 202.401 1296.67 205.953 1296.67 210.334C1296.67 214.715 1300.22 218.267 1304.6 218.267C1308.98 218.267 1312.53 214.715 1312.53 210.334C1312.53 205.953 1308.98 202.401 1304.6 202.401Z" fill="#05192D"/>
<path d="M1189 345.201H1420.2V372.426C1420.2 379.923 1414.12 386.001 1406.62 386.001H1202.57C1195.08 386.001 1189 379.923 1189 372.426V345.201Z" fill="#06BDFC"/>
<path d="M1251.46 371.604L1245.78 356.943H1242.82L1237.12 371.604H1240.06L1241.5 367.857H1247.08L1248.53 371.604H1251.46ZM1242.99 364.029C1243.5 362.767 1243.88 361.687 1244.27 360.506H1244.29C1244.72 361.687 1245.11 362.767 1245.59 364.029L1246.1 365.353H1242.48L1242.99 364.029ZM1255 366.472C1255.03 369.73 1257.49 371.726 1260.44 371.726C1263.35 371.726 1265.41 369.914 1265.41 367.307C1265.41 365.047 1264.05 363.662 1261.3 362.97L1259.63 362.543C1258.53 362.258 1258.2 361.647 1258.2 361.056C1258.2 360.262 1258.91 359.407 1260.18 359.407C1261.42 359.407 1262.27 360.303 1262.27 361.525H1264.94C1264.94 359 1263.15 356.821 1260.3 356.821C1257.69 356.821 1255.41 358.552 1255.41 361.036C1255.41 363.011 1256.82 364.558 1259.2 365.149L1260.91 365.576C1261.99 365.841 1262.62 366.493 1262.62 367.348C1262.62 368.223 1261.91 369.119 1260.44 369.119C1258.83 369.119 1257.75 368.162 1257.73 366.472H1255ZM1269.53 366.472C1269.55 369.73 1272.02 371.726 1274.97 371.726C1277.88 371.726 1279.94 369.914 1279.94 367.307C1279.94 365.047 1278.57 363.662 1275.82 362.97L1274.15 362.543C1273.05 362.258 1272.73 361.647 1272.73 361.056C1272.73 360.262 1273.44 359.407 1274.7 359.407C1275.95 359.407 1276.8 360.303 1276.8 361.525H1279.47C1279.47 359 1277.68 356.821 1274.83 356.821C1272.22 356.821 1269.94 358.552 1269.94 361.036C1269.94 363.011 1271.34 364.558 1273.73 365.149L1275.44 365.576C1276.52 365.841 1277.15 366.493 1277.15 367.348C1277.15 368.223 1276.43 369.119 1274.97 369.119C1273.36 369.119 1272.28 368.162 1272.26 366.472H1269.53ZM1291.43 371.726C1295.54 371.726 1298.86 368.386 1298.86 364.273C1298.86 360.16 1295.54 356.821 1291.43 356.821C1287.32 356.821 1284.02 360.16 1284.02 364.273C1284.02 368.386 1287.32 371.726 1291.43 371.726ZM1291.43 369.018C1288.8 369.018 1286.72 366.9 1286.72 364.273C1286.72 361.647 1288.8 359.529 1291.43 359.529C1294.05 359.529 1296.15 361.647 1296.15 364.273C1296.15 366.9 1294.05 369.018 1291.43 369.018ZM1310.57 371.726C1314.23 371.726 1316.64 369.221 1317.1 366.452H1314.29C1313.78 368.061 1312.28 369.018 1310.57 369.018C1307.94 369.018 1305.86 366.9 1305.86 364.273C1305.86 361.647 1307.94 359.529 1310.57 359.529C1312.2 359.529 1313.83 360.629 1314.27 362.156H1317.08C1316.64 359.651 1314.29 356.821 1310.57 356.821C1306.45 356.821 1303.16 360.16 1303.16 364.273C1303.16 368.386 1306.45 371.726 1310.57 371.726ZM1322.03 356.943V371.604H1324.74V356.943H1322.03ZM1343.53 371.604L1337.85 356.943H1334.89L1329.19 371.604H1332.12L1333.57 367.857H1339.15L1340.59 371.604H1343.53ZM1335.06 364.029C1335.57 362.767 1335.95 361.687 1336.34 360.506H1336.36C1336.79 361.687 1337.17 362.767 1337.66 364.029L1338.17 365.353H1334.55L1335.06 364.029ZM1356.62 356.943H1345.09V359.651H1349.49V371.604H1352.2V359.651H1356.62V356.943ZM1361.08 356.943V371.604H1371.32V368.895H1363.79V365.617H1370.55V362.929H1363.79V359.651H1371.32V356.943H1361.08Z" fill="#05192D"/>
<g clip-path="url(#clip2_7902_131704)">
<path fill-rule="evenodd" clip-rule="evenodd" d="M1263.36 278.498V283.096L1258.62 285.879V275.698L1263.36 278.498ZM1264.9 288.158V284.014L1271.25 280.286L1269.71 279.375L1264.9 282.196V278.038C1264.9 277.755 1264.75 277.494 1264.51 277.353L1258.73 273.941C1258.71 273.932 1258.7 273.924 1258.68 273.916C1258.34 273.744 1257.93 273.766 1257.61 273.975C1257.28 274.184 1257.09 274.549 1257.09 274.943V286.632C1257.09 287.025 1257.28 287.392 1257.61 287.601C1257.93 287.811 1258.34 287.833 1258.68 287.661L1258.73 287.638L1263.36 284.916V288.624C1263.36 288.908 1263.51 289.169 1263.75 289.31L1269.7 292.782L1271.24 291.871L1264.9 288.158Z" fill="#03EF62"/>
</g>
<path d="M1284.27 290.331C1287.37 290.331 1289.57 288.338 1290.18 285.772H1288.15C1287.56 287.415 1286.02 288.411 1284.27 288.411C1281.59 288.411 1279.53 286.252 1279.53 283.576C1279.53 280.9 1281.59 278.741 1284.27 278.741C1285.88 278.741 1287.59 279.83 1288.09 281.362H1290.12C1289.57 278.963 1287.3 276.822 1284.27 276.822C1280.54 276.822 1277.61 279.849 1277.61 283.576C1277.61 287.304 1280.54 290.331 1284.27 290.331Z" fill="white"/>
<path d="M1300.62 286.049C1300.64 285.846 1300.65 285.606 1300.65 285.348C1300.65 282.746 1298.77 280.587 1296.22 280.587C1293.6 280.587 1291.67 282.746 1291.67 285.459C1291.67 288.227 1293.57 290.331 1296.32 290.331C1299.25 290.331 1300.34 288.079 1300.49 287.175H1298.51C1298.33 287.729 1297.65 288.596 1296.32 288.596C1294.69 288.596 1293.81 287.47 1293.64 286.049H1300.62ZM1296.22 282.321C1297.65 282.321 1298.49 283.336 1298.7 284.61H1293.7C1293.94 283.318 1294.8 282.321 1296.22 282.321Z" fill="white"/>
<path d="M1307.14 280.587C1305.98 280.587 1305.11 281.122 1304.61 281.952V280.697H1302.69V290.22H1304.61V285.108C1304.61 283.281 1305.62 282.469 1307.06 282.469C1307.49 282.469 1307.84 282.524 1308.06 282.561V280.642C1307.84 280.624 1307.58 280.587 1307.14 280.587Z" fill="white"/>
<path d="M1313.46 288.541C1312.76 288.541 1312.3 288.227 1312.3 287.433V282.377H1314.74V280.697H1312.3V278.003H1310.38V280.697H1308.76V282.377H1310.38V287.47C1310.38 289.408 1311.43 290.331 1313.11 290.331C1313.78 290.331 1314.41 290.109 1314.74 289.98V288.19C1314.5 288.301 1313.96 288.541 1313.46 288.541Z" fill="white"/>
<path d="M1317.67 279.35C1318.45 279.35 1319.09 278.741 1319.09 277.966C1319.09 277.191 1318.47 276.582 1317.67 276.582C1316.9 276.582 1316.29 277.191 1316.29 277.966C1316.29 278.741 1316.9 279.35 1317.67 279.35ZM1318.61 280.697H1316.69V290.22H1318.61V280.697Z" fill="white"/>
<path d="M1324.04 280.697V279.812C1324.04 279 1324.59 278.631 1325.27 278.631C1325.73 278.631 1326.16 278.741 1326.42 278.852V277.08C1326.12 276.97 1325.48 276.822 1324.76 276.822C1323.13 276.822 1322.12 278.04 1322.12 279.775V280.697H1320.58V282.377H1322.12V290.22H1324.04V282.377H1326.49V280.697H1324.04Z" fill="white"/>
<path d="M1329.24 279.35C1330.02 279.35 1330.66 278.741 1330.66 277.966C1330.66 277.191 1330.04 276.582 1329.24 276.582C1328.47 276.582 1327.86 277.191 1327.86 277.966C1327.86 278.741 1328.47 279.35 1329.24 279.35ZM1330.18 280.697H1328.26V290.22H1330.18V280.697Z" fill="white"/>
<path d="M1341.31 286.049C1341.33 285.846 1341.35 285.606 1341.35 285.348C1341.35 282.746 1339.47 280.587 1336.92 280.587C1334.3 280.587 1332.36 282.746 1332.36 285.459C1332.36 288.227 1334.26 290.331 1337.01 290.331C1339.95 290.331 1341.03 288.079 1341.18 287.175H1339.21C1339.02 287.729 1338.34 288.596 1337.01 288.596C1335.39 288.596 1334.5 287.47 1334.33 286.049H1341.31ZM1336.92 282.321C1338.34 282.321 1339.19 283.336 1339.39 284.61H1334.39C1334.63 283.318 1335.5 282.321 1336.92 282.321Z" fill="white"/>
<path d="M1350.19 276.933V282.155C1349.58 281.251 1348.47 280.587 1347.18 280.587C1344.95 280.587 1343.01 282.654 1343.01 285.459C1343.01 288.264 1344.95 290.331 1347.18 290.331C1348.47 290.331 1349.51 289.833 1350.19 288.762V290.22H1352.11V276.933H1350.19ZM1347.62 288.467C1346.06 288.467 1344.93 287.12 1344.93 285.459C1344.93 283.798 1346.06 282.469 1347.62 282.469C1349.19 282.469 1350.19 283.798 1350.19 285.459C1350.19 287.12 1349.19 288.467 1347.62 288.467Z" fill="white"/>
<path d="M1221.36 303.566V323.113H1228.99C1234.33 323.113 1238.76 318.851 1238.76 313.34C1238.76 307.829 1234.31 303.566 1228.99 303.566H1221.36ZM1224.97 319.502V307.177H1228.99C1232.38 307.177 1235.15 309.946 1235.15 313.34C1235.15 316.733 1232.38 319.502 1228.99 319.502H1224.97ZM1250.76 310.896C1249.73 309.702 1248.29 308.942 1246.66 308.942C1243.32 308.942 1240.66 312.145 1240.66 316.109C1240.66 320.073 1243.32 323.276 1246.66 323.276C1248.29 323.276 1249.7 322.516 1250.76 321.321V323.113H1254.37V309.104H1250.76V310.896ZM1247.53 319.693C1245.71 319.693 1244.25 318.091 1244.25 316.109C1244.25 314.127 1245.71 312.552 1247.53 312.552C1249.35 312.552 1250.76 314.127 1250.76 316.109C1250.76 318.091 1249.35 319.693 1247.53 319.693ZM1264.34 319.964C1263.34 319.964 1262.63 319.557 1262.63 318.471V312.254H1265.95V309.104H1262.63V305.114H1259.02V309.104H1256.74V312.254H1259.02V318.552C1259.02 321.837 1260.76 323.276 1263.53 323.276C1264.32 323.276 1265.19 323.113 1265.95 322.896V319.693C1265.46 319.828 1264.89 319.964 1264.34 319.964ZM1277.67 310.896C1276.64 309.702 1275.2 308.942 1273.57 308.942C1270.23 308.942 1267.57 312.145 1267.57 316.109C1267.57 320.073 1270.23 323.276 1273.57 323.276C1275.2 323.276 1276.61 322.516 1277.67 321.321V323.113H1281.28V309.104H1277.67V310.896ZM1274.44 319.693C1272.62 319.693 1271.16 318.091 1271.16 316.109C1271.16 314.127 1272.62 312.552 1274.44 312.552C1276.26 312.552 1277.67 314.127 1277.67 316.109C1277.67 318.091 1276.26 319.693 1274.44 319.693ZM1310.48 323.113L1302.9 303.566H1298.96L1291.36 323.113H1295.27L1297.2 318.118H1304.64L1306.57 323.113H1310.48ZM1299.18 313.014C1299.86 311.331 1300.38 309.892 1300.89 308.317H1300.92C1301.49 309.892 1302 311.331 1302.66 313.014L1303.33 314.779H1298.5L1299.18 313.014ZM1319.97 308.942C1318.37 308.942 1316.9 309.702 1316.08 310.951V309.104H1312.58V323.113H1316.19V315.322C1316.19 313.665 1317.36 312.552 1318.85 312.552C1320.32 312.552 1321.49 313.638 1321.49 315.294V323.113H1325.1V314.86C1325.1 310.842 1323.09 308.942 1319.97 308.942ZM1337.94 310.896C1336.9 309.702 1335.47 308.942 1333.84 308.942C1330.5 308.942 1327.84 312.145 1327.84 316.109C1327.84 320.073 1330.5 323.276 1333.84 323.276C1335.47 323.276 1336.88 322.516 1337.94 321.321V323.113H1341.55V309.104H1337.94V310.896ZM1334.71 319.693C1332.89 319.693 1331.42 318.091 1331.42 316.109C1331.42 314.127 1332.89 312.552 1334.71 312.552C1336.52 312.552 1337.94 314.127 1337.94 316.109C1337.94 318.091 1336.52 319.693 1334.71 319.693ZM1345.33 303.566V323.113H1348.94V303.566H1345.33ZM1361.52 309.104V316.896C1361.52 318.389 1360.35 319.665 1358.86 319.665C1357.34 319.665 1356.23 318.417 1356.23 316.896V309.104H1352.62V317.548C1352.62 320.778 1354.22 323.276 1357.45 323.276C1359 323.276 1360.52 322.489 1361.52 321.376V322.842C1361.52 324.797 1360.33 326.425 1358.35 326.425C1356.64 326.425 1355.44 325.421 1355.28 324.063H1351.53C1351.67 326.67 1353.95 329.792 1358.29 329.792C1362.12 329.792 1365.13 326.86 1365.13 322.787V309.104H1361.52ZM1367.84 318.389C1367.87 320.67 1369.77 323.276 1373.35 323.276C1376.42 323.276 1378.72 321.593 1378.78 318.715C1378.83 316.733 1377.45 315.186 1374.71 314.561L1372.81 314.127C1372.1 313.964 1371.75 313.611 1371.75 313.041C1371.75 312.335 1372.37 311.819 1373.38 311.819C1374.38 311.819 1375.11 312.525 1375.14 313.53H1378.34C1378.34 311.276 1376.42 308.942 1373.4 308.942C1370.36 308.942 1368.19 310.652 1368.19 313.095C1368.19 315.104 1369.25 316.598 1371.88 317.249L1373.59 317.656C1374.68 317.928 1375.22 318.254 1375.22 318.96C1375.22 319.72 1374.46 320.181 1373.51 320.181C1372.4 320.181 1371.48 319.53 1371.45 318.389H1367.84ZM1387.36 319.964C1386.36 319.964 1385.65 319.557 1385.65 318.471V312.254H1388.96V309.104H1385.65V305.114H1382.04V309.104H1379.76V312.254H1382.04V318.552C1382.04 321.837 1383.78 323.276 1386.55 323.276C1387.34 323.276 1388.2 323.113 1388.96 322.896V319.693C1388.48 319.828 1387.91 319.964 1387.36 319.964Z" fill="white"/>
</g>
</g>
<defs>
<filter id="filter0_dd_7902_131704" x="1178.82" y="107.213" width="251.56" height="292.362" filterUnits="userSpaceOnUse" color-interpolation-filters="sRGB">
<feFlood flood-opacity="0" result="BackgroundImageFix"/>
<feColorMatrix in="SourceAlpha" type="matrix" values="0 0 0 0 0 0 0 0 0 0 0 0 0 0 0 0 0 0 127 0" result="hardAlpha"/>
<feMorphology radius="3.3936" operator="erode" in="SourceAlpha" result="effect1_dropShadow_7902_131704"/>
<feOffset dy="3.3936"/>
<feGaussianBlur stdDeviation="6.7872"/>
<feColorMatrix type="matrix" values="0 0 0 0 0.0196078 0 0 0 0 0.0980392 0 0 0 0 0.176471 0 0 0 0.3 0"/>
<feBlend mode="normal" in2="BackgroundImageFix" result="effect1_dropShadow_7902_131704"/>
<feColorMatrix in="SourceAlpha" type="matrix" values="0 0 0 0 0 0 0 0 0 0 0 0 0 0 0 0 0 0 127 0" result="hardAlpha"/>
<feOffset/>
<feGaussianBlur stdDeviation="1.6968"/>
<feColorMatrix type="matrix" values="0 0 0 0 0.0196078 0 0 0 0 0.0980392 0 0 0 0 0.176471 0 0 0 0.3 0"/>
<feBlend mode="normal" in2="effect1_dropShadow_7902_131704" result="effect2_dropShadow_7902_131704"/>
<feBlend mode="normal" in="SourceGraphic" in2="effect2_dropShadow_7902_131704" result="shape"/>
</filter>
<filter id="filter1_d_7902_131704" x="1212.08" y="170.3" width="185.038" height="185.038" filterUnits="userSpaceOnUse" color-interpolation-filters="sRGB">
<feFlood flood-opacity="0" result="BackgroundImageFix"/>
<feColorMatrix in="SourceAlpha" type="matrix" values="0 0 0 0 0 0 0 0 0 0 0 0 0 0 0 0 0 0 127 0" result="hardAlpha"/>
<feOffset dy="46.8153"/>
<feGaussianBlur stdDeviation="29.2596"/>
<feComposite in2="hardAlpha" operator="out"/>
<feColorMatrix type="matrix" values="0 0 0 0 0 0 0 0 0 0.0313726 0 0 0 0 0.12549 0 0 0 1 0"/>
<feBlend mode="normal" in2="BackgroundImageFix" result="effect1_dropShadow_7902_131704"/>
<feBlend mode="normal" in="SourceGraphic" in2="effect1_dropShadow_7902_131704" result="shape"/>
</filter>
<linearGradient id="paint0_linear_7902_131704" x1="27.8076" y1="56.1188" x2="112.331" y2="412.722" gradientUnits="userSpaceOnUse">
<stop stop-color="#06BDFC"/>
<stop offset="1" stop-color="#05192D"/>
</linearGradient>
<linearGradient id="paint1_linear_7902_131704" x1="12.0842" y1="-4.76364" x2="282.1" y2="-57.4259" gradientUnits="userSpaceOnUse">
<stop stop-color="#06BDFC"/>
<stop offset="1" stop-color="#05192D"/>
</linearGradient>
<linearGradient id="paint2_linear_7902_131704" x1="47.101" y1="132.388" x2="362.759" y2="132.388" gradientUnits="userSpaceOnUse">
<stop stop-color="#06BDFC"/>
<stop offset="1" stop-color="#05192D"/>
</linearGradient>
<linearGradient id="paint3_linear_7902_131704" x1="588.174" y1="-150.88" x2="511.045" y2="105.124" gradientUnits="userSpaceOnUse">
<stop stop-color="#06BDFC"/>
<stop offset="1" stop-color="#05192D"/>
</linearGradient>
<linearGradient id="paint4_linear_7902_131704" x1="8.40076" y1="136.093" x2="-31.9229" y2="-135.252" gradientUnits="userSpaceOnUse">
<stop stop-color="#06BDFC"/>
<stop offset="1" stop-color="#05192D"/>
</linearGradient>
<linearGradient id="paint5_linear_7902_131704" x1="293.4" y1="601.639" x2="689.093" y2="763.17" gradientUnits="userSpaceOnUse">
<stop stop-color="#06BDFC"/>
<stop offset="1" stop-color="#05192D"/>
</linearGradient>
<linearGradient id="paint6_linear_7902_131704" x1="295.673" y1="446.596" x2="313.688" y2="268.292" gradientUnits="userSpaceOnUse">
<stop stop-color="#06BDFC"/>
<stop offset="1" stop-color="#05192D"/>
</linearGradient>
<linearGradient id="paint7_linear_7902_131704" x1="1304.6" y1="144.602" x2="1304.6" y2="261.901" gradientUnits="userSpaceOnUse">
<stop stop-color="white" stop-opacity="0.24"/>
<stop offset="1" stop-color="#05192D"/>
</linearGradient>
<linearGradient id="paint8_linear_7902_131704" x1="1304.6" y1="168.402" x2="1304.6" y2="263.602" gradientUnits="userSpaceOnUse">
<stop stop-color="white" stop-opacity="0.24"/>
<stop offset="1" stop-color="white" stop-opacity="0"/>
</linearGradient>
<clipPath id="clip0_7902_131704">
<rect width="1500" height="500" fill="white"/>
</clipPath>
<clipPath id="clip1_7902_131704">
<rect width="153.141" height="31.9997" fill="white" transform="translate(979.859 299.572)"/>
</clipPath>
<clipPath id="clip2_7902_131704">
<rect width="14.4845" height="19.3127" fill="white" transform="translate(1257.09 273.801)"/>
</clipPath>
</defs>
</svg>
