<svg width="851" height="315" viewBox="0 0 851 315" fill="none" xmlns="http://www.w3.org/2000/svg">
<rect width="851" height="315" fill="#05192D"/>
<mask id="mask0_7902_131668" style="mask-type:alpha" maskUnits="userSpaceOnUse" x="0" y="0" width="851" height="315">
<rect width="851" height="315" fill="#05192D"/>
</mask>
<g mask="url(#mask0_7902_131668)">
<path d="M-1.01978 187.996V187.996C17.9092 187.996 33.2542 172.651 33.2542 153.722L33.2542 -2.74617L-1.01979 -2.74616" stroke="url(#paint0_linear_7902_131668)" stroke-width="1.22872"/>
<rect x="-4" y="-3.00195" width="161.297" height="64.0612" stroke="url(#paint1_linear_7902_131668)" stroke-width="1.22872"/>
<circle cx="157.869" cy="61.63" r="44.0421" stroke="url(#paint2_linear_7902_131668)" stroke-width="1.22872"/>
<path d="M283 20.9451C283 42.6408 300.588 60.2285 322.283 60.2285L538.762 60.2286L538.762 -3.39394L283 -3.39399L283 20.9451Z" stroke="url(#paint3_linear_7902_131668)" stroke-width="1.22761"/>
<rect width="114.318" height="119.61" rx="57.1589" transform="matrix(1 9.20383e-08 8.30387e-08 -1 481.682 60.2285)" stroke="url(#paint4_linear_7902_131668)" stroke-width="1.22761"/>
<path d="M462.03 288.935C462.03 272.909 449.038 259.918 433.013 259.918L115 259.918L115 336.171L462.03 336.171L462.03 288.935Z" stroke="url(#paint5_linear_7902_131668)" stroke-width="1.20904"/>
<path d="M239.729 222.523C239.729 198.485 220.242 178.998 196.204 178.998L115 178.998L115 286.524L239.729 286.524L239.729 222.523Z" stroke="url(#paint6_linear_7902_131668)" stroke-width="1.20904"/>
</g>
<path d="M447.513 136.558C452.648 136.558 456.014 133.049 456.67 129.169H452.733C452.02 131.423 449.909 132.764 447.513 132.764C443.833 132.764 440.923 129.797 440.923 126.117C440.923 122.437 443.833 119.47 447.513 119.47C449.795 119.47 452.077 121.011 452.705 123.15H456.642C456.014 119.641 452.733 115.676 447.513 115.676C441.75 115.676 437.129 120.354 437.129 126.117C437.129 131.879 441.75 136.558 447.513 136.558ZM472.868 130.082C472.897 129.825 472.925 129.398 472.925 128.97C472.925 124.862 469.901 121.496 466.079 121.496C462.028 121.496 458.804 124.776 458.804 129.027C458.804 133.363 461.942 136.558 466.193 136.558C470.9 136.558 472.497 132.849 472.668 131.566H468.874C468.589 132.364 467.676 133.22 466.193 133.22C463.996 133.22 462.969 131.822 462.741 130.082H472.868ZM466.079 124.833C467.79 124.833 468.76 125.974 469.074 127.543H462.855C463.197 125.974 464.281 124.833 466.079 124.833ZM483.52 121.496C481.837 121.496 480.411 122.18 479.527 123.635V121.667H475.732V136.387H479.527V129.084C479.527 126.374 480.924 125.204 483.121 125.204C484.062 125.204 484.804 125.347 485.146 125.404V121.61C484.804 121.581 484.262 121.496 483.52 121.496ZM494.078 133.078C493.023 133.078 492.281 132.65 492.281 131.509V124.976H495.762V121.667H492.281V117.473H488.487V121.667H486.091V124.976H488.487V131.594C488.487 135.046 490.313 136.558 493.223 136.558C494.05 136.558 494.963 136.387 495.762 136.159V132.792C495.248 132.935 494.649 133.078 494.078 133.078ZM500.515 120.041C501.884 120.041 503.111 118.9 503.111 117.473C503.111 116.075 501.941 114.963 500.515 114.963C499.089 114.963 497.976 116.075 497.976 117.473C497.976 118.9 499.089 120.041 500.515 120.041ZM502.398 121.667H498.604V136.387H502.398V121.667ZM511.313 121.667V120.754C511.313 119.556 512.112 119.156 513.111 119.156C513.767 119.156 514.394 119.327 514.565 119.385V116.047C514.252 115.933 513.196 115.676 511.912 115.676C509.088 115.676 507.519 117.787 507.519 120.725V121.667H505.151V124.976H507.519V136.387H511.313V124.976H514.794V121.667H511.313ZM519.208 120.041C520.577 120.041 521.804 118.9 521.804 117.473C521.804 116.075 520.634 114.963 519.208 114.963C517.782 114.963 516.669 116.075 516.669 117.473C516.669 118.9 517.782 120.041 519.208 120.041ZM521.091 121.667H517.297V136.387H521.091V121.667ZM538.057 130.082C538.086 129.825 538.114 129.398 538.114 128.97C538.114 124.862 535.09 121.496 531.268 121.496C527.217 121.496 523.993 124.776 523.993 129.027C523.993 133.363 527.131 136.558 531.382 136.558C536.089 136.558 537.686 132.849 537.857 131.566H534.063C533.778 132.364 532.865 133.22 531.382 133.22C529.185 133.22 528.158 131.822 527.93 130.082H538.057ZM531.268 124.833C532.979 124.833 533.949 125.974 534.263 127.543H528.044C528.386 125.974 529.47 124.833 531.268 124.833ZM551.042 115.847V123.664C550.1 122.408 548.531 121.496 546.791 121.496C543.34 121.496 540.43 124.605 540.43 129.027C540.43 133.448 543.34 136.558 546.791 136.558C548.531 136.558 550.043 135.93 551.042 134.39V136.387H554.836V115.847H551.042ZM547.647 132.792C545.736 132.792 544.195 131.109 544.195 129.027C544.195 126.944 545.736 125.261 547.647 125.261C549.587 125.261 551.042 126.944 551.042 129.027C551.042 131.109 549.587 132.792 547.647 132.792ZM577.006 123.55C575.922 122.294 574.41 121.496 572.698 121.496C569.19 121.496 566.394 124.862 566.394 129.027C566.394 133.192 569.19 136.558 572.698 136.558C574.41 136.558 575.893 135.759 577.006 134.504V136.387H580.8V121.667H577.006V123.55ZM573.611 132.792C571.7 132.792 570.16 131.109 570.16 129.027C570.16 126.944 571.7 125.29 573.611 125.29C575.523 125.29 577.006 126.944 577.006 129.027C577.006 131.109 575.523 132.792 573.611 132.792ZM583.66 131.423C583.689 133.819 585.686 136.558 589.451 136.558C592.675 136.558 595.1 134.789 595.157 131.765C595.214 129.683 593.759 128.057 590.878 127.401L588.881 126.944C588.139 126.773 587.768 126.402 587.768 125.803C587.768 125.061 588.424 124.519 589.48 124.519C590.535 124.519 591.305 125.261 591.334 126.317H594.7C594.7 123.949 592.675 121.496 589.508 121.496C586.313 121.496 584.031 123.293 584.031 125.86C584.031 127.971 585.144 129.54 587.911 130.225L589.708 130.653C590.849 130.938 591.42 131.28 591.42 132.022C591.42 132.821 590.621 133.306 589.622 133.306C588.453 133.306 587.483 132.621 587.454 131.423H583.66ZM616.259 123.55C615.175 122.294 613.663 121.496 611.951 121.496C608.442 121.496 605.647 124.862 605.647 129.027C605.647 133.192 608.442 136.558 611.951 136.558C613.663 136.558 615.146 135.759 616.259 134.504V136.387H620.053V121.667H616.259V123.55ZM612.864 132.792C610.953 132.792 609.412 131.109 609.412 129.027C609.412 126.944 610.953 125.29 612.864 125.29C614.775 125.29 616.259 126.944 616.259 129.027C616.259 131.109 614.775 132.792 612.864 132.792ZM303.85 151.847V172.387H311.866C317.486 172.387 322.136 167.908 322.136 162.117C322.136 156.326 317.457 151.847 311.866 151.847H303.85ZM307.644 168.593V155.641H311.866C315.432 155.641 318.342 158.551 318.342 162.117C318.342 165.683 315.432 168.593 311.866 168.593H307.644ZM334.748 159.55C333.664 158.294 332.152 157.496 330.441 157.496C326.932 157.496 324.136 160.862 324.136 165.027C324.136 169.192 326.932 172.558 330.441 172.558C332.152 172.558 333.636 171.759 334.748 170.504V172.387H338.542V157.667H334.748V159.55ZM331.353 168.792C329.442 168.792 327.902 167.109 327.902 165.027C327.902 162.944 329.442 161.29 331.353 161.29C333.265 161.29 334.748 162.944 334.748 165.027C334.748 167.109 333.265 168.792 331.353 168.792ZM349.019 169.078C347.964 169.078 347.222 168.65 347.222 167.509V160.976H350.702V157.667H347.222V153.473H343.428V157.667H341.031V160.976H343.428V167.594C343.428 171.046 345.253 172.558 348.163 172.558C348.991 172.558 349.903 172.387 350.702 172.159V168.792C350.189 168.935 349.59 169.078 349.019 169.078ZM363.025 159.55C361.941 158.294 360.429 157.496 358.717 157.496C355.208 157.496 352.412 160.862 352.412 165.027C352.412 169.192 355.208 172.558 358.717 172.558C360.429 172.558 361.912 171.759 363.025 170.504V172.387H366.819V157.667H363.025V159.55ZM359.63 168.792C357.719 168.792 356.178 167.109 356.178 165.027C356.178 162.944 357.719 161.29 359.63 161.29C361.541 161.29 363.025 162.944 363.025 165.027C363.025 167.109 361.541 168.792 359.63 168.792ZM397.492 172.387L389.533 151.847H385.396L377.409 172.387H381.517L383.542 167.138H391.358L393.384 172.387H397.492ZM385.625 161.775C386.338 160.006 386.88 158.494 387.422 156.839H387.45C388.049 158.494 388.591 160.006 389.276 161.775L389.989 163.629H384.911L385.625 161.775ZM407.466 157.496C405.783 157.496 404.242 158.294 403.386 159.607V157.667H399.706V172.387H403.501V164.199C403.501 162.459 404.727 161.29 406.296 161.29C407.837 161.29 409.063 162.431 409.063 164.171V172.387H412.857V163.714C412.857 159.492 410.746 157.496 407.466 157.496ZM426.347 159.55C425.263 158.294 423.751 157.496 422.039 157.496C418.531 157.496 415.735 160.862 415.735 165.027C415.735 169.192 418.531 172.558 422.039 172.558C423.751 172.558 425.234 171.759 426.347 170.504V172.387H430.141V157.667H426.347V159.55ZM422.952 168.792C421.041 168.792 419.501 167.109 419.501 165.027C419.501 162.944 421.041 161.29 422.952 161.29C424.864 161.29 426.347 162.944 426.347 165.027C426.347 167.109 424.864 168.792 422.952 168.792ZM434.114 151.847V172.387H437.908V151.847H434.114ZM451.13 157.667V165.854C451.13 167.423 449.904 168.764 448.335 168.764C446.737 168.764 445.568 167.452 445.568 165.854V157.667H441.774V166.539C441.774 169.933 443.457 172.558 446.851 172.558C448.477 172.558 450.075 171.731 451.13 170.561V172.101C451.13 174.155 449.875 175.867 447.793 175.867C445.996 175.867 444.74 174.812 444.569 173.385H440.632C440.775 176.124 443.171 179.404 447.736 179.404C451.758 179.404 454.925 176.323 454.925 172.044V157.667H451.13ZM457.767 167.423C457.796 169.819 459.793 172.558 463.558 172.558C466.782 172.558 469.207 170.789 469.264 167.765C469.321 165.683 467.866 164.057 464.985 163.401L462.988 162.944C462.246 162.773 461.875 162.402 461.875 161.803C461.875 161.061 462.531 160.519 463.587 160.519C464.642 160.519 465.413 161.261 465.441 162.317H468.807C468.807 159.949 466.782 157.496 463.616 157.496C460.42 157.496 458.138 159.293 458.138 161.86C458.138 163.971 459.251 165.54 462.018 166.225L463.815 166.653C464.956 166.938 465.527 167.28 465.527 168.022C465.527 168.821 464.728 169.306 463.73 169.306C462.56 169.306 461.59 168.621 461.562 167.423H457.767ZM478.283 169.078C477.227 169.078 476.485 168.65 476.485 167.509V160.976H479.966V157.667H476.485V153.473H472.691V157.667H470.295V160.976H472.691V167.594C472.691 171.046 474.517 172.558 477.427 172.558C478.254 172.558 479.167 172.387 479.966 172.159V168.792C479.452 168.935 478.853 169.078 478.283 169.078ZM509.65 172.387L501.691 151.847H497.555L489.567 172.387H493.675L495.701 167.138H503.517L505.542 172.387H509.65ZM497.783 161.775C498.496 160.006 499.038 158.494 499.58 156.839H499.609C500.208 158.494 500.75 160.006 501.434 161.775L502.148 163.629H497.07L497.783 161.775ZM510.838 167.423C510.866 169.819 512.863 172.558 516.629 172.558C519.853 172.558 522.277 170.789 522.334 167.765C522.391 165.683 520.937 164.057 518.055 163.401L516.058 162.944C515.317 162.773 514.946 162.402 514.946 161.803C514.946 161.061 515.602 160.519 516.658 160.519C517.713 160.519 518.483 161.261 518.512 162.317H521.878C521.878 159.949 519.853 157.496 516.686 157.496C513.491 157.496 511.209 159.293 511.209 161.86C511.209 163.971 512.321 165.54 515.089 166.225L516.886 166.653C518.027 166.938 518.597 167.28 518.597 168.022C518.597 168.821 517.799 169.306 516.8 169.306C515.631 169.306 514.661 168.621 514.632 167.423H510.838ZM524.21 167.423C524.239 169.819 526.235 172.558 530.001 172.558C533.225 172.558 535.649 170.789 535.707 167.765C535.764 165.683 534.309 164.057 531.427 163.401L529.431 162.944C528.689 162.773 528.318 162.402 528.318 161.803C528.318 161.061 528.974 160.519 530.03 160.519C531.085 160.519 531.855 161.261 531.884 162.317H535.25C535.25 159.949 533.225 157.496 530.058 157.496C526.863 157.496 524.581 159.293 524.581 161.86C524.581 163.971 525.693 165.54 528.461 166.225L530.258 166.653C531.399 166.938 531.969 167.28 531.969 168.022C531.969 168.821 531.171 169.306 530.172 169.306C529.003 169.306 528.033 168.621 528.004 167.423H524.21ZM545.142 172.558H545.17C549.193 172.558 552.445 169.163 552.445 165.027C552.445 160.89 549.193 157.496 545.17 157.496H545.142C541.091 157.496 537.839 160.862 537.839 165.027C537.839 169.192 541.091 172.558 545.142 172.558ZM545.142 168.792C543.145 168.792 541.604 167.081 541.604 165.027C541.604 162.973 543.145 161.29 545.142 161.261H545.17C547.11 161.261 548.651 162.973 548.651 165.027C548.651 167.081 547.139 168.792 545.17 168.792H545.142ZM568.841 163.144C568.67 160.833 566.474 157.496 562.052 157.496C558.001 157.496 554.749 160.862 554.749 165.027C554.749 169.192 558.001 172.558 562.052 172.558C566.046 172.558 568.67 169.078 568.784 166.91H565.019C564.762 168.051 563.507 168.963 562.052 168.963C559.941 168.963 558.515 167.081 558.515 165.027C558.515 162.973 559.827 161.09 562.052 161.09C563.393 161.09 564.619 161.889 564.99 163.144H568.841ZM573.671 156.041C575.041 156.041 576.267 154.9 576.267 153.473C576.267 152.075 575.098 150.963 573.671 150.963C572.245 150.963 571.133 152.075 571.133 153.473C571.133 154.9 572.245 156.041 573.671 156.041ZM575.554 157.667H571.76V172.387H575.554V157.667ZM589.069 159.55C587.985 158.294 586.473 157.496 584.761 157.496C581.252 157.496 578.457 160.862 578.457 165.027C578.457 169.192 581.252 172.558 584.761 172.558C586.473 172.558 587.956 171.759 589.069 170.504V172.387H592.863V157.667H589.069V159.55ZM585.674 168.792C583.763 168.792 582.222 167.109 582.222 165.027C582.222 162.944 583.763 161.29 585.674 161.29C587.585 161.29 589.069 162.944 589.069 165.027C589.069 167.109 587.585 168.792 585.674 168.792ZM603.34 169.078C602.284 169.078 601.542 168.65 601.542 167.509V160.976H605.023V157.667H601.542V153.473H597.748V157.667H595.352V160.976H597.748V167.594C597.748 171.046 599.574 172.558 602.484 172.558C603.311 172.558 604.224 172.387 605.023 172.159V168.792C604.509 168.935 603.91 169.078 603.34 169.078ZM620.797 166.082C620.825 165.825 620.854 165.398 620.854 164.97C620.854 160.862 617.83 157.496 614.007 157.496C609.957 157.496 606.733 160.776 606.733 165.027C606.733 169.363 609.871 172.558 614.122 172.558C618.829 172.558 620.426 168.849 620.597 167.566H616.803C616.518 168.364 615.605 169.22 614.122 169.22C611.925 169.22 610.898 167.822 610.67 166.082H620.797ZM614.007 160.833C615.719 160.833 616.689 161.974 617.003 163.543H610.784C611.126 161.974 612.21 160.833 614.007 160.833Z" fill="white"/>
<path d="M516.916 195.74C517.622 195.348 518.131 194.59 518.131 193.728C518.131 192.343 516.89 191.206 515.44 191.206H511.69V200.613H515.819C517.23 200.613 518.497 199.477 518.497 198.092C518.51 197.099 517.935 196.171 516.916 195.753V195.74ZM515.44 192.565C516.184 192.565 516.772 193.153 516.772 193.884C516.772 194.551 516.224 195.139 515.492 195.152H513.049V192.565H515.44ZM513.049 199.254V196.524H515.819C516.55 196.524 517.138 197.164 517.138 197.896C517.138 198.64 516.55 199.254 515.819 199.254H513.049ZM524.295 193.871V197.791C524.295 198.627 523.615 199.346 522.753 199.346C521.904 199.346 521.224 198.64 521.224 197.791V193.871H519.865V197.948C519.865 199.477 520.78 200.692 522.27 200.692C523.106 200.692 523.837 200.247 524.295 199.699V200.535C524.295 201.75 523.615 202.547 522.531 202.547C521.499 202.547 520.924 202.011 520.819 201.175H519.395C519.473 202.521 520.545 203.827 522.505 203.827C524.334 203.827 525.654 202.456 525.654 200.483V193.871H524.295Z" fill="white"/>
<g clip-path="url(#clip0_7902_131668)">
<path fill-rule="evenodd" clip-rule="evenodd" d="M555.995 199.381C554.403 199.381 553.113 198.086 553.113 196.488C553.113 194.89 554.403 193.594 555.995 193.594C557.586 193.594 558.876 194.89 558.876 196.488C558.876 197.255 558.573 197.991 558.032 198.533C557.492 199.076 556.759 199.381 555.995 199.381ZM558.881 188.902V193.401C557.208 191.823 554.586 191.878 552.98 193.524C551.375 195.17 551.375 197.804 552.98 199.45C554.586 201.097 557.208 201.151 558.881 199.574V200.506H560.213V188.902H558.881ZM595.962 199.381C594.371 199.381 593.081 198.086 593.081 196.488C593.081 194.89 594.371 193.594 595.962 193.594C597.554 193.594 598.844 194.89 598.844 196.488C598.844 197.255 598.54 197.991 598 198.533C597.459 199.076 596.726 199.381 595.962 199.381ZM600.179 196.488V192.297H598.848V193.401C597.175 191.823 594.553 191.878 592.947 193.524C591.341 195.17 591.341 197.804 592.947 199.45C594.553 201.097 597.175 201.151 598.848 199.574V200.506H600.18V196.488H600.179ZM610.799 192.609C610.918 192.412 611.131 192.292 611.36 192.293H611.616C612.161 192.293 612.602 192.735 612.602 193.282V200.506H611.242V194.386C610.616 195.402 608.371 199.086 607.699 200.191C607.579 200.387 607.367 200.506 607.138 200.506H606.861C606.498 200.506 606.204 200.211 606.204 199.847V194.371C605.47 195.561 603.215 199.261 602.505 200.444L602.468 200.506H601.165V192.295H602.523V192.312L602.492 197.976L605.75 192.61C605.869 192.414 606.082 192.294 606.311 192.294H606.569C607.112 192.294 607.553 192.736 607.555 193.281C607.555 194.791 607.562 197.54 607.562 197.94L610.799 192.609ZM591.61 198.981C590.526 200.477 588.599 201.093 586.853 200.501C585.107 199.909 583.946 198.247 583.987 196.397C584.028 194.547 585.26 192.937 587.031 192.423C588.801 191.909 590.699 192.61 591.717 194.153L590.44 194.819C589.751 193.844 588.524 193.414 587.38 193.745C586.236 194.077 585.426 195.098 585.361 196.291C585.295 197.485 585.989 198.589 587.089 199.045C588.189 199.501 589.457 199.208 590.248 198.315L591.61 198.981ZM617.692 199.387C616.168 199.387 614.909 198.195 614.818 196.668V196.322C614.912 194.749 616.241 193.541 617.809 193.604C619.377 193.667 620.606 194.978 620.575 196.553C620.543 198.128 619.263 199.389 617.694 199.388L617.692 199.387ZM617.694 192.261C616.626 192.259 615.597 192.666 614.818 193.399V192.297H613.486V203.858H614.818V199.59C616.2 200.885 618.272 201.098 619.886 200.111C621.501 199.124 622.265 197.178 621.754 195.351C621.244 193.523 619.584 192.26 617.694 192.26V192.261ZM572.55 193.579V198.628C572.55 198.928 572.792 199.17 573.09 199.17H574.641V200.506H573.091C572.058 200.505 571.222 199.665 571.221 198.628L571.216 193.579H569.78V192.278H571.216V190.033H572.549V192.283H574.913V193.579H572.55ZM579.005 199.38C577.414 199.38 576.124 198.085 576.124 196.487C576.124 194.889 577.414 193.593 579.005 193.593C580.597 193.593 581.887 194.889 581.887 196.487C581.887 197.254 581.583 197.99 581.043 198.533C580.502 199.075 579.77 199.38 579.005 199.38ZM581.891 192.297V193.401C580.218 191.823 577.596 191.878 575.99 193.524C574.384 195.17 574.384 197.804 575.99 199.45C577.596 201.097 580.218 201.151 581.891 199.574V200.506H583.223V192.295L581.891 192.297ZM564.964 199.381C563.372 199.381 562.082 198.086 562.082 196.488C562.082 194.89 563.372 193.594 564.964 193.594C566.555 193.594 567.845 194.89 567.845 196.488C567.846 197.255 567.542 197.991 567.002 198.534C566.461 199.076 565.728 199.381 564.964 199.381ZM567.849 192.297V193.401C566.177 191.823 563.555 191.878 561.949 193.524C560.343 195.17 560.343 197.804 561.949 199.45C563.555 201.097 566.177 201.151 567.849 199.574V200.506H569.18V192.295L567.849 192.297Z" fill="white"/>
<path fill-rule="evenodd" clip-rule="evenodd" d="M540.379 189.939V194.173L535.905 196.735V187.361L540.379 189.939ZM541.826 198.834V195.018L547.817 191.585L546.36 190.747L541.826 193.344V189.515C541.825 189.255 541.687 189.015 541.463 188.884L536.005 185.743C535.99 185.734 535.976 185.726 535.961 185.719C535.637 185.561 535.254 185.581 534.949 185.773C534.643 185.966 534.458 186.303 534.459 186.665V197.429C534.457 197.791 534.643 198.129 534.948 198.321C535.254 198.514 535.637 198.535 535.962 198.377L536.003 198.355L540.375 195.849V199.264C540.376 199.524 540.515 199.765 540.74 199.895L546.351 203.092L547.809 202.253L541.826 198.834Z" fill="#03EF62"/>
</g>
<g filter="url(#filter0_dd_7902_131668)">
<path d="M655.946 145.3C655.946 109.758 684.758 80.9463 720.3 80.9463C755.841 80.9463 784.653 109.758 784.653 145.3V227.214C784.653 230.439 782.039 233.053 778.814 233.053H661.785C658.561 233.053 655.946 230.439 655.946 227.214V145.3Z" fill="#05192D" stroke="#06BDFC" stroke-width="3.89267"/>
<circle cx="720.3" cy="143.35" r="46.7997" stroke="url(#paint7_linear_7902_131668)" stroke-width="1.94633"/>
<circle cx="720.3" cy="137.501" r="27.2998" fill="url(#paint8_linear_7902_131668)"/>
<g filter="url(#filter1_d_7902_131668)">
<circle cx="720.299" cy="137.502" r="19.4999" fill="white"/>
</g>
<path fill-rule="evenodd" clip-rule="evenodd" d="M720.299 127.102C724.248 127.102 727.449 130.303 727.449 134.252C727.449 136.472 726.437 138.456 724.849 139.767V146.791C724.849 147.694 723.96 148.306 723.133 148.023L722.996 147.968L720.297 146.698L717.603 147.967C716.786 148.352 715.853 147.808 715.757 146.939L715.749 146.791V139.767C714.161 138.456 713.149 136.472 713.149 134.252C713.149 130.303 716.35 127.102 720.299 127.102ZM718.349 141.132V144.74L719.742 144.086C720.043 143.945 720.384 143.924 720.696 144.025L720.849 144.086L722.249 144.743V141.132C721.629 141.308 720.975 141.401 720.299 141.401C719.623 141.401 718.969 141.308 718.349 141.132ZM720.299 129.7C717.786 129.7 715.749 131.737 715.749 134.25C715.749 136.763 717.786 138.8 720.299 138.8C722.812 138.8 724.849 136.763 724.849 134.25C724.849 131.737 722.812 129.7 720.299 129.7Z" fill="#05192D"/>
<path d="M654 211.6H786.599V227.214C786.599 231.514 783.114 234.999 778.814 234.999H661.785C657.486 234.999 654 231.514 654 227.214V211.6Z" fill="#06BDFC"/>
<path d="M689.822 226.551L686.564 218.143H684.87L681.6 226.551H683.282L684.111 224.402H687.311L688.14 226.551H689.822ZM684.964 222.207C685.256 221.483 685.477 220.864 685.699 220.186H685.711C685.956 220.864 686.178 221.483 686.458 222.207L686.75 222.966H684.672L684.964 222.207ZM691.856 223.608C691.868 225.476 693.281 226.621 694.974 226.621C696.644 226.621 697.823 225.582 697.823 224.087C697.823 222.79 697.041 221.996 695.465 221.599L694.507 221.354C693.876 221.191 693.689 220.84 693.689 220.502C693.689 220.046 694.098 219.556 694.822 219.556C695.535 219.556 696.025 220.069 696.025 220.77H697.555C697.555 219.322 696.527 218.073 694.892 218.073C693.397 218.073 692.09 219.065 692.09 220.49C692.09 221.623 692.895 222.51 694.262 222.849L695.243 223.094C695.862 223.246 696.224 223.62 696.224 224.11C696.224 224.612 695.815 225.126 694.974 225.126C694.051 225.126 693.433 224.577 693.421 223.608H691.856ZM700.187 223.608C700.199 225.476 701.612 226.621 703.305 226.621C704.975 226.621 706.155 225.582 706.155 224.087C706.155 222.79 705.372 221.996 703.796 221.599L702.838 221.354C702.208 221.191 702.021 220.84 702.021 220.502C702.021 220.046 702.429 219.556 703.153 219.556C703.866 219.556 704.356 220.069 704.356 220.77H705.886C705.886 219.322 704.858 218.073 703.224 218.073C701.729 218.073 700.421 219.065 700.421 220.49C700.421 221.623 701.227 222.51 702.593 222.849L703.574 223.094C704.193 223.246 704.555 223.62 704.555 224.11C704.555 224.612 704.146 225.126 703.305 225.126C702.383 225.126 701.764 224.577 701.752 223.608H700.187ZM712.746 226.621C715.105 226.621 717.008 224.706 717.008 222.347C717.008 219.988 715.105 218.073 712.746 218.073C710.387 218.073 708.495 219.988 708.495 222.347C708.495 224.706 710.387 226.621 712.746 226.621ZM712.746 225.068C711.239 225.068 710.048 223.853 710.048 222.347C710.048 220.84 711.239 219.626 712.746 219.626C714.252 219.626 715.455 220.84 715.455 222.347C715.455 223.853 714.252 225.068 712.746 225.068ZM723.723 226.621C725.825 226.621 727.203 225.184 727.472 223.596H725.86C725.568 224.519 724.704 225.068 723.723 225.068C722.216 225.068 721.025 223.853 721.025 222.347C721.025 220.84 722.216 219.626 723.723 219.626C724.657 219.626 725.591 220.256 725.848 221.132H727.46C727.203 219.696 725.86 218.073 723.723 218.073C721.364 218.073 719.472 219.988 719.472 222.347C719.472 224.706 721.364 226.621 723.723 226.621ZM730.299 218.143V226.551H731.853V218.143H730.299ZM742.626 226.551L739.368 218.143H737.674L734.405 226.551H736.086L736.915 224.402H740.115L740.944 226.551H742.626ZM737.768 222.207C738.06 221.483 738.282 220.864 738.504 220.186H738.515C738.76 220.864 738.982 221.483 739.263 222.207L739.555 222.966H737.476L737.768 222.207ZM750.133 218.143H743.523V219.696H746.045V226.551H747.599V219.696H750.133V218.143ZM752.693 218.143V226.551H758.567V224.998H754.246V223.117H758.123V221.576H754.246V219.696H758.567V218.143H752.693Z" fill="#05192D"/>
<g clip-path="url(#clip1_7902_131668)">
<path fill-rule="evenodd" clip-rule="evenodd" d="M696.651 173.344V175.981L693.93 177.577V171.739L696.651 173.344ZM697.531 178.885V176.508L701.174 174.37L700.288 173.848L697.531 175.465V173.08C697.53 172.918 697.446 172.769 697.31 172.688L693.991 170.731C693.982 170.725 693.974 170.721 693.965 170.716C693.768 170.618 693.535 170.63 693.349 170.75C693.163 170.87 693.051 171.08 693.051 171.305V178.009C693.05 178.235 693.163 178.445 693.349 178.565C693.535 178.685 693.768 178.698 693.965 178.6L693.99 178.587L696.649 177.025V179.152C696.649 179.315 696.734 179.465 696.871 179.546L700.282 181.537L701.168 181.014L697.531 178.885Z" fill="#03EF62"/>
</g>
<path d="M708.641 180.131C710.419 180.131 711.678 178.988 712.028 177.517H710.863C710.525 178.459 709.646 179.031 708.641 179.031C707.106 179.031 705.92 177.792 705.92 176.258C705.92 174.723 707.106 173.484 708.641 173.484C709.561 173.484 710.546 174.109 710.832 174.987H711.996C711.678 173.611 710.376 172.384 708.641 172.384C706.503 172.384 704.82 174.12 704.82 176.258C704.82 178.396 706.503 180.131 708.641 180.131Z" fill="white"/>
<path d="M718.016 177.676C718.026 177.559 718.037 177.422 718.037 177.274C718.037 175.781 716.957 174.543 715.497 174.543C713.994 174.543 712.882 175.781 712.882 177.337C712.882 178.925 713.972 180.131 715.549 180.131C717.232 180.131 717.857 178.84 717.942 178.322H716.809C716.703 178.639 716.312 179.136 715.549 179.136C714.618 179.136 714.11 178.491 714.015 177.676H718.016ZM715.497 175.538C716.312 175.538 716.798 176.12 716.915 176.85H714.047C714.184 176.109 714.682 175.538 715.497 175.538Z" fill="white"/>
<path d="M721.756 174.543C721.089 174.543 720.591 174.85 720.306 175.326V174.606H719.205V180.068H720.306V177.136C720.306 176.088 720.888 175.622 721.713 175.622C721.957 175.622 722.158 175.654 722.285 175.675V174.575C722.158 174.564 722.01 174.543 721.756 174.543Z" fill="white"/>
<path d="M725.384 179.105C724.982 179.105 724.717 178.925 724.717 178.47V175.57H726.114V174.606H724.717V173.061H723.617V174.606H722.685V175.57H723.617V178.491C723.617 179.602 724.22 180.131 725.183 180.131C725.564 180.131 725.924 180.004 726.114 179.93V178.904C725.977 178.967 725.67 179.105 725.384 179.105Z" fill="white"/>
<path d="M727.797 173.834C728.242 173.834 728.612 173.484 728.612 173.04C728.612 172.595 728.252 172.246 727.797 172.246C727.353 172.246 727.003 172.595 727.003 173.04C727.003 173.484 727.353 173.834 727.797 173.834ZM728.337 174.606H727.236V180.068H728.337V174.606Z" fill="white"/>
<path d="M731.447 174.606V174.098C731.447 173.633 731.765 173.421 732.156 173.421C732.421 173.421 732.664 173.484 732.813 173.548V172.532C732.643 172.468 732.273 172.384 731.86 172.384C730.929 172.384 730.346 173.082 730.346 174.077V174.606H729.468V175.57H730.346V180.068H731.447V175.57H732.855V174.606H731.447Z" fill="white"/>
<path d="M734.433 173.834C734.878 173.834 735.248 173.484 735.248 173.04C735.248 172.595 734.888 172.246 734.433 172.246C733.988 172.246 733.639 172.595 733.639 173.04C733.639 173.484 733.988 173.834 734.433 173.834ZM734.973 174.606H733.872V180.068H734.973V174.606Z" fill="white"/>
<path d="M741.355 177.676C741.366 177.559 741.376 177.422 741.376 177.274C741.376 175.781 740.296 174.543 738.836 174.543C737.333 174.543 736.222 175.781 736.222 177.337C736.222 178.925 737.312 180.131 738.889 180.131C740.572 180.131 741.196 178.84 741.281 178.322H740.148C740.042 178.639 739.651 179.136 738.889 179.136C737.957 179.136 737.449 178.491 737.354 177.676H741.355ZM738.836 175.538C739.651 175.538 740.138 176.12 740.254 176.85H737.386C737.523 176.109 738.021 175.538 738.836 175.538Z" fill="white"/>
<path d="M746.448 172.447V175.443C746.098 174.924 745.463 174.543 744.722 174.543C743.442 174.543 742.33 175.728 742.33 177.337C742.33 178.946 743.442 180.131 744.722 180.131C745.463 180.131 746.056 179.846 746.448 179.232V180.068H747.548V172.447H746.448ZM744.976 179.062C744.077 179.062 743.431 178.29 743.431 177.337C743.431 176.385 744.077 175.622 744.976 175.622C745.876 175.622 746.448 176.385 746.448 177.337C746.448 178.29 745.876 179.062 744.976 179.062Z" fill="white"/>
<path d="M672.558 187.516V198.727H676.934C680.001 198.727 682.539 196.282 682.539 193.121C682.539 189.96 679.985 187.516 676.934 187.516H672.558ZM674.629 196.656V189.587H676.934C678.88 189.587 680.468 191.175 680.468 193.121C680.468 195.067 678.88 196.656 676.934 196.656H674.629ZM689.423 191.72C688.831 191.035 688.006 190.599 687.072 190.599C685.157 190.599 683.631 192.436 683.631 194.709C683.631 196.983 685.157 198.82 687.072 198.82C688.006 198.82 688.816 198.384 689.423 197.699V198.727H691.494V190.692H689.423V191.72ZM687.57 196.765C686.527 196.765 685.686 195.846 685.686 194.709C685.686 193.573 686.527 192.67 687.57 192.67C688.613 192.67 689.423 193.573 689.423 194.709C689.423 195.846 688.613 196.765 687.57 196.765ZM697.212 196.92C696.636 196.92 696.231 196.687 696.231 196.064V192.498H698.131V190.692H696.231V188.403H694.161V190.692H692.853V192.498H694.161V196.111C694.161 197.995 695.157 198.82 696.745 198.82C697.197 198.82 697.695 198.727 698.131 198.602V196.765C697.851 196.843 697.524 196.92 697.212 196.92ZM704.857 191.72C704.265 191.035 703.44 190.599 702.506 190.599C700.591 190.599 699.065 192.436 699.065 194.709C699.065 196.983 700.591 198.82 702.506 198.82C703.44 198.82 704.25 198.384 704.857 197.699V198.727H706.928V190.692H704.857V191.72ZM703.004 196.765C701.961 196.765 701.12 195.846 701.12 194.709C701.12 193.573 701.961 192.67 703.004 192.67C704.047 192.67 704.857 193.573 704.857 194.709C704.857 195.846 704.047 196.765 703.004 196.765ZM723.67 198.727L719.326 187.516H717.068L712.708 198.727H714.95L716.056 195.862H720.322L721.428 198.727H723.67ZM717.192 192.934C717.582 191.969 717.877 191.144 718.173 190.241H718.189C718.516 191.144 718.812 191.969 719.185 192.934L719.575 193.946H716.803L717.192 192.934ZM729.114 190.599C728.195 190.599 727.354 191.035 726.887 191.751V190.692H724.879V198.727H726.949V194.258C726.949 193.308 727.619 192.67 728.475 192.67C729.316 192.67 729.986 193.292 729.986 194.242V198.727H732.057V193.993C732.057 191.689 730.904 190.599 729.114 190.599ZM739.42 191.72C738.828 191.035 738.003 190.599 737.068 190.599C735.153 190.599 733.627 192.436 733.627 194.709C733.627 196.983 735.153 198.82 737.068 198.82C738.003 198.82 738.812 198.384 739.42 197.699V198.727H741.49V190.692H739.42V191.72ZM737.567 196.765C736.523 196.765 735.683 195.846 735.683 194.709C735.683 193.573 736.523 192.67 737.567 192.67C738.61 192.67 739.42 193.573 739.42 194.709C739.42 195.846 738.61 196.765 737.567 196.765ZM743.659 187.516V198.727H745.73V187.516H743.659ZM752.947 190.692V195.161C752.947 196.017 752.277 196.749 751.421 196.749C750.549 196.749 749.911 196.033 749.911 195.161V190.692H747.84V195.535C747.84 197.387 748.758 198.82 750.611 198.82C751.499 198.82 752.371 198.368 752.947 197.73V198.571C752.947 199.692 752.262 200.626 751.125 200.626C750.144 200.626 749.459 200.05 749.366 199.272H747.217C747.295 200.766 748.603 202.557 751.094 202.557C753.289 202.557 755.018 200.875 755.018 198.54V190.692H752.947ZM756.569 196.017C756.585 197.325 757.675 198.82 759.73 198.82C761.49 198.82 762.813 197.855 762.844 196.204C762.876 195.067 762.081 194.18 760.509 193.822L759.419 193.573C759.014 193.479 758.812 193.277 758.812 192.95C758.812 192.545 759.17 192.249 759.746 192.249C760.322 192.249 760.742 192.654 760.758 193.23H762.595C762.595 191.938 761.49 190.599 759.761 190.599C758.017 190.599 756.772 191.58 756.772 192.981C756.772 194.133 757.379 194.99 758.889 195.363L759.87 195.597C760.493 195.753 760.805 195.939 760.805 196.344C760.805 196.78 760.369 197.045 759.824 197.045C759.185 197.045 758.656 196.671 758.64 196.017H756.569ZM767.767 196.92C767.191 196.92 766.786 196.687 766.786 196.064V192.498H768.686V190.692H766.786V188.403H764.715V190.692H763.407V192.498H764.715V196.111C764.715 197.995 765.712 198.82 767.3 198.82C767.751 198.82 768.25 198.727 768.686 198.602V196.765C768.405 196.843 768.078 196.92 767.767 196.92Z" fill="white"/>
</g>
<defs>
<filter id="filter0_dd_7902_131668" x="648.161" y="75.1073" width="144.277" height="167.678" filterUnits="userSpaceOnUse" color-interpolation-filters="sRGB">
<feFlood flood-opacity="0" result="BackgroundImageFix"/>
<feColorMatrix in="SourceAlpha" type="matrix" values="0 0 0 0 0 0 0 0 0 0 0 0 0 0 0 0 0 0 127 0" result="hardAlpha"/>
<feMorphology radius="1.94633" operator="erode" in="SourceAlpha" result="effect1_dropShadow_7902_131668"/>
<feOffset dy="1.94633"/>
<feGaussianBlur stdDeviation="3.89267"/>
<feColorMatrix type="matrix" values="0 0 0 0 0.0196078 0 0 0 0 0.0980392 0 0 0 0 0.176471 0 0 0 0.3 0"/>
<feBlend mode="normal" in2="BackgroundImageFix" result="effect1_dropShadow_7902_131668"/>
<feColorMatrix in="SourceAlpha" type="matrix" values="0 0 0 0 0 0 0 0 0 0 0 0 0 0 0 0 0 0 127 0" result="hardAlpha"/>
<feOffset/>
<feGaussianBlur stdDeviation="0.973167"/>
<feColorMatrix type="matrix" values="0 0 0 0 0.0196078 0 0 0 0 0.0980392 0 0 0 0 0.176471 0 0 0 0.3 0"/>
<feBlend mode="normal" in2="effect1_dropShadow_7902_131668" result="effect2_dropShadow_7902_131668"/>
<feBlend mode="normal" in="SourceGraphic" in2="effect2_dropShadow_7902_131668" result="shape"/>
</filter>
<filter id="filter1_d_7902_131668" x="667.237" y="111.289" width="106.125" height="106.125" filterUnits="userSpaceOnUse" color-interpolation-filters="sRGB">
<feFlood flood-opacity="0" result="BackgroundImageFix"/>
<feColorMatrix in="SourceAlpha" type="matrix" values="0 0 0 0 0 0 0 0 0 0 0 0 0 0 0 0 0 0 127 0" result="hardAlpha"/>
<feOffset dy="26.85"/>
<feGaussianBlur stdDeviation="16.7813"/>
<feComposite in2="hardAlpha" operator="out"/>
<feColorMatrix type="matrix" values="0 0 0 0 0 0 0 0 0 0.0313726 0 0 0 0 0.12549 0 0 0 1 0"/>
<feBlend mode="normal" in2="BackgroundImageFix" result="effect1_dropShadow_7902_131668"/>
<feBlend mode="normal" in="SourceGraphic" in2="effect1_dropShadow_7902_131668" result="shape"/>
</filter>
<linearGradient id="paint0_linear_7902_131668" x1="15.3723" y1="31.5278" x2="63.3103" y2="233.778" gradientUnits="userSpaceOnUse">
<stop stop-color="#06BDFC"/>
<stop offset="1" stop-color="#05192D"/>
</linearGradient>
<linearGradient id="paint1_linear_7902_131668" x1="6.45462" y1="-3.00194" x2="159.596" y2="-32.8697" gradientUnits="userSpaceOnUse">
<stop stop-color="#06BDFC"/>
<stop offset="1" stop-color="#05192D"/>
</linearGradient>
<linearGradient id="paint2_linear_7902_131668" x1="26.3146" y1="74.7854" x2="205.343" y2="74.7854" gradientUnits="userSpaceOnUse">
<stop stop-color="#06BDFC"/>
<stop offset="1" stop-color="#05192D"/>
</linearGradient>
<linearGradient id="paint3_linear_7902_131668" x1="322.8" y1="-95.0534" x2="274.208" y2="66.2289" gradientUnits="userSpaceOnUse">
<stop stop-color="#06BDFC"/>
<stop offset="1" stop-color="#05192D"/>
</linearGradient>
<linearGradient id="paint4_linear_7902_131668" x1="5.29248" y1="85.7383" x2="-20.1115" y2="-85.209" gradientUnits="userSpaceOnUse">
<stop stop-color="#06BDFC"/>
<stop offset="1" stop-color="#05192D"/>
</linearGradient>
<linearGradient id="paint5_linear_7902_131668" x1="184.842" y1="379.033" x2="434.128" y2="480.797" gradientUnits="userSpaceOnUse">
<stop stop-color="#06BDFC"/>
<stop offset="1" stop-color="#05192D"/>
</linearGradient>
<linearGradient id="paint6_linear_7902_131668" x1="186.274" y1="281.355" x2="197.623" y2="169.023" gradientUnits="userSpaceOnUse">
<stop stop-color="#06BDFC"/>
<stop offset="1" stop-color="#05192D"/>
</linearGradient>
<linearGradient id="paint7_linear_7902_131668" x1="720.3" y1="96.5508" x2="720.3" y2="163.825" gradientUnits="userSpaceOnUse">
<stop stop-color="white" stop-opacity="0.24"/>
<stop offset="1" stop-color="#05192D"/>
</linearGradient>
<linearGradient id="paint8_linear_7902_131668" x1="720.3" y1="110.201" x2="720.3" y2="164.801" gradientUnits="userSpaceOnUse">
<stop stop-color="white" stop-opacity="0.24"/>
<stop offset="1" stop-color="white" stop-opacity="0"/>
</linearGradient>
<clipPath id="clip0_7902_131668">
<rect width="87.5415" height="18.2922" fill="white" transform="translate(534.458 185.613)"/>
</clipPath>
<clipPath id="clip1_7902_131668">
<rect width="8.30733" height="11.0764" fill="white" transform="translate(693.051 170.65)"/>
</clipPath>
</defs>
</svg>
