<svg width="1128" height="191" viewBox="0 0 1128 191" fill="none" xmlns="http://www.w3.org/2000/svg">
<g clip-path="url(#clip0_12166_730)">
<rect width="1128" height="191" fill="#05192D"/>
<mask id="mask0_12166_730" style="mask-type:alpha" maskUnits="userSpaceOnUse" x="0" y="0" width="1128" height="191">
<rect width="1128" height="191" fill="#05192D"/>
</mask>
<g mask="url(#mask0_12166_730)">
<path d="M527.99 172.628C527.99 157.566 515.78 145.355 500.718 145.355L252 145.355L252 205.999L527.99 205.999L527.99 172.628Z" stroke="url(#paint0_linear_12166_730)" stroke-width="1.13636"/>
<path d="M351.196 121.909C351.196 99.3156 332.881 81 310.287 81L252 81L252 166.515L351.196 166.515L351.196 121.909Z" stroke="url(#paint1_linear_12166_730)" stroke-width="1.13636"/>
<path d="M-1.27881 171.387V171.387C16.0037 171.387 30.0139 157.376 30.0139 140.094L30.0139 -2.76403L-1.27882 -2.76403" stroke="url(#paint2_linear_12166_730)"/>
<rect x="-4" y="-3" width="147.267" height="58.4889" stroke="url(#paint3_linear_12166_730)"/>
<circle cx="143.789" cy="56.0099" r="40.2111" stroke="url(#paint4_linear_12166_730)"/>
<path d="M349 16C349 33.6731 363.327 48 381 48L636 48.0001L636 -11L349 -11.0001L349 16Z" stroke="url(#paint5_linear_12166_730)"/>
<rect width="106.088" height="111" rx="53.0442" transform="matrix(1 9.20383e-08 8.30387e-08 -1 583.38 48)" stroke="url(#paint6_linear_12166_730)"/>
</g>
<path d="M794.977 79.9448C790.129 79.9448 786.241 76.0088 786.241 71.1608C786.241 66.3128 790.129 62.3768 794.977 62.3768C799.369 62.3768 802.129 65.7128 802.657 68.6648H799.345C798.817 66.8648 796.897 65.5688 794.977 65.5688C791.881 65.5688 789.433 68.0648 789.433 71.1608C789.433 74.2568 791.881 76.7528 794.977 76.7528C796.993 76.7528 798.769 75.6248 799.369 73.7288H802.681C802.129 76.9928 799.297 79.9448 794.977 79.9448ZM816.308 74.4968H807.788C807.98 75.9608 808.844 77.1368 810.692 77.1368C811.94 77.1368 812.708 76.4168 812.948 75.7448H816.14C815.996 76.8248 814.652 79.9448 810.692 79.9448C807.116 79.9448 804.476 77.2568 804.476 73.6088C804.476 70.0328 807.188 67.2728 810.596 67.2728C813.812 67.2728 816.356 70.1048 816.356 73.5608C816.356 73.9208 816.332 74.2808 816.308 74.4968ZM810.596 70.0808C809.084 70.0808 808.172 71.0408 807.884 72.3608H813.116C812.852 71.0408 812.036 70.0808 810.596 70.0808ZM825.27 67.2728C825.894 67.2728 826.35 67.3448 826.638 67.3688V70.5608C826.35 70.5128 825.726 70.3928 824.934 70.3928C823.086 70.3928 821.91 71.3768 821.91 73.6568V79.8008H818.718V67.4168H821.91V69.0728C822.654 67.8488 823.854 67.2728 825.27 67.2728ZM834.153 77.0168C834.633 77.0168 835.137 76.8968 835.569 76.7768V79.6088C834.897 79.8008 834.129 79.9448 833.433 79.9448C830.985 79.9448 829.449 78.6728 829.449 75.7688V70.2008H827.433V67.4168H829.449V63.8888H832.641V67.4168H835.569V70.2008H832.641V75.6968C832.641 76.6568 833.265 77.0168 834.153 77.0168ZM839.568 66.0488C838.368 66.0488 837.432 65.0888 837.432 63.8888C837.432 62.7128 838.368 61.7768 839.568 61.7768C840.768 61.7768 841.752 62.7128 841.752 63.8888C841.752 65.0888 840.72 66.0488 839.568 66.0488ZM841.152 67.4168V79.8008H837.96V67.4168H841.152ZM848.652 67.4168H851.58V70.2008H848.652V79.8008H845.46V70.2008H843.468V67.4168H845.46V66.6248C845.46 64.1528 846.78 62.3768 849.156 62.3768C850.236 62.3768 851.124 62.5928 851.388 62.6888V65.4968C851.244 65.4488 850.716 65.3048 850.164 65.3048C849.324 65.3048 848.652 65.6408 848.652 66.6488V67.4168ZM855.294 66.0488C854.094 66.0488 853.158 65.0888 853.158 63.8888C853.158 62.7128 854.094 61.7768 855.294 61.7768C856.494 61.7768 857.478 62.7128 857.478 63.8888C857.478 65.0888 856.446 66.0488 855.294 66.0488ZM856.878 67.4168V79.8008H853.686V67.4168H856.878ZM871.152 74.4968H862.632C862.824 75.9608 863.688 77.1368 865.536 77.1368C866.784 77.1368 867.552 76.4168 867.792 75.7448H870.984C870.84 76.8248 869.496 79.9448 865.536 79.9448C861.96 79.9448 859.32 77.2568 859.32 73.6088C859.32 70.0328 862.032 67.2728 865.44 67.2728C868.656 67.2728 871.2 70.1048 871.2 73.5608C871.2 73.9208 871.176 74.2808 871.152 74.4968ZM865.44 70.0808C863.928 70.0808 863.016 71.0408 862.728 72.3608H867.96C867.696 71.0408 866.88 70.0808 865.44 70.0808ZM882.076 62.5208H885.268V79.8008H882.076V78.1208C881.236 79.4168 879.964 79.9448 878.5 79.9448C875.596 79.9448 873.148 77.3288 873.148 73.6088C873.148 69.8888 875.596 67.2728 878.5 67.2728C879.964 67.2728 881.284 68.0408 882.076 69.0968V62.5208ZM879.22 76.7768C880.852 76.7768 882.076 75.3608 882.076 73.6088C882.076 71.8568 880.852 70.4408 879.22 70.4408C877.612 70.4408 876.316 71.8568 876.316 73.6088C876.316 75.3608 877.612 76.7768 879.22 76.7768ZM903.92 69.0008V67.4168H907.112V79.8008H903.92V78.2168C902.984 79.2728 901.736 79.9448 900.296 79.9448C897.344 79.9448 894.992 77.1128 894.992 73.6088C894.992 70.1048 897.344 67.2728 900.296 67.2728C901.736 67.2728 903.008 67.9448 903.92 69.0008ZM901.064 76.7768C902.672 76.7768 903.92 75.3608 903.92 73.6088C903.92 71.8568 902.672 70.4648 901.064 70.4648C899.456 70.4648 898.16 71.8568 898.16 73.6088C898.16 75.3608 899.456 76.7768 901.064 76.7768ZM909.518 75.6248H912.71C912.734 76.6328 913.55 77.2088 914.534 77.2088C915.374 77.2088 916.046 76.8008 916.046 76.1288C916.046 75.5048 915.566 75.2168 914.606 74.9768L913.094 74.6168C910.766 74.0408 909.83 72.7208 909.83 70.9448C909.83 68.7848 911.75 67.2728 914.438 67.2728C917.102 67.2728 918.806 69.3368 918.806 71.3288H915.974C915.95 70.4408 915.302 69.8168 914.414 69.8168C913.526 69.8168 912.974 70.2728 912.974 70.8968C912.974 71.4008 913.286 71.7128 913.91 71.8568L915.59 72.2408C918.014 72.7928 919.238 74.1608 919.19 75.9128C919.142 78.4568 917.102 79.9448 914.39 79.9448C911.222 79.9448 909.542 77.6408 909.518 75.6248ZM756.125 103.753H759.341C759.365 105.745 760.637 106.873 762.533 106.873C764.261 106.873 765.101 105.817 765.101 104.785C765.101 103.777 764.357 103.009 763.085 102.697L761.069 102.193C758.261 101.497 756.605 99.6728 756.605 97.3448C756.605 94.4168 759.293 92.3768 762.365 92.3768C765.725 92.3768 767.837 94.9448 767.837 97.9208H764.693C764.693 96.4808 763.685 95.4248 762.221 95.4248C760.733 95.4248 759.893 96.4328 759.893 97.3688C759.893 98.0648 760.277 98.7848 761.573 99.1208L763.541 99.6248C766.781 100.441 768.389 102.073 768.389 104.737C768.389 107.809 765.965 109.945 762.533 109.945C759.053 109.945 756.149 107.593 756.125 103.753ZM785.479 106.777L787.519 109.201L785.263 111.145L783.199 108.721C781.903 109.489 780.367 109.945 778.735 109.945C773.887 109.945 769.999 106.009 769.999 101.161C769.999 96.3128 773.887 92.3768 778.735 92.3768C783.583 92.3768 787.495 96.3128 787.495 101.161C787.495 103.297 786.727 105.265 785.479 106.777ZM778.735 106.753C779.575 106.753 780.391 106.561 781.087 106.225L777.223 101.665L779.479 99.7208L783.367 104.281C783.943 103.393 784.303 102.313 784.303 101.161C784.303 98.0648 781.831 95.5688 778.735 95.5688C775.639 95.5688 773.191 98.0648 773.191 101.161C773.191 104.257 775.639 106.753 778.735 106.753ZM793.414 92.5208V106.609H800.854V109.801H790.222V92.5208H793.414ZM825.48 109.801H822.024L820.32 105.385H813.744L812.04 109.801H808.584L815.304 92.5208H818.784L825.48 109.801ZM815.496 100.873L814.896 102.433H819.168L818.568 100.873C817.992 99.3848 817.536 98.1128 817.032 96.7208H817.008C816.552 98.1128 816.096 99.3848 815.496 100.873ZM826.479 105.625H829.671C829.695 106.633 830.511 107.209 831.495 107.209C832.335 107.209 833.007 106.801 833.007 106.129C833.007 105.505 832.527 105.217 831.567 104.977L830.055 104.617C827.727 104.041 826.791 102.721 826.791 100.945C826.791 98.7848 828.711 97.2728 831.399 97.2728C834.063 97.2728 835.767 99.3368 835.767 101.329H832.935C832.911 100.441 832.263 99.8168 831.375 99.8168C830.487 99.8168 829.935 100.273 829.935 100.897C829.935 101.401 830.247 101.713 830.871 101.857L832.551 102.241C834.975 102.793 836.199 104.161 836.151 105.913C836.103 108.457 834.063 109.945 831.351 109.945C828.183 109.945 826.503 107.641 826.479 105.625ZM837.729 105.625H840.921C840.945 106.633 841.761 107.209 842.745 107.209C843.585 107.209 844.257 106.801 844.257 106.129C844.257 105.505 843.777 105.217 842.817 104.977L841.305 104.617C838.977 104.041 838.041 102.721 838.041 100.945C838.041 98.7848 839.961 97.2728 842.649 97.2728C845.313 97.2728 847.017 99.3368 847.017 101.329H844.185C844.161 100.441 843.513 99.8168 842.625 99.8168C841.737 99.8168 841.185 100.273 841.185 100.897C841.185 101.401 841.497 101.713 842.121 101.857L843.801 102.241C846.225 102.793 847.449 104.161 847.401 105.913C847.353 108.457 845.313 109.945 842.601 109.945C839.433 109.945 837.753 107.641 837.729 105.625ZM855.339 109.945C851.931 109.945 849.195 107.113 849.195 103.609C849.195 100.105 851.931 97.2728 855.339 97.2728H855.363C858.747 97.2728 861.483 100.129 861.483 103.609C861.483 107.089 858.747 109.945 855.363 109.945H855.339ZM855.339 106.777H855.363C857.019 106.777 858.291 105.337 858.291 103.609C858.291 101.881 856.995 100.441 855.363 100.441H855.339C853.659 100.465 852.363 101.881 852.363 103.609C852.363 105.337 853.659 106.777 855.339 106.777ZM875.278 102.025H872.038C871.726 100.969 870.694 100.297 869.566 100.297C867.694 100.297 866.59 101.881 866.59 103.609C866.59 105.337 867.79 106.921 869.566 106.921C870.79 106.921 871.846 106.153 872.062 105.193H875.23C875.134 107.017 872.926 109.945 869.566 109.945C866.158 109.945 863.422 107.113 863.422 103.609C863.422 100.105 866.158 97.2728 869.566 97.2728C873.286 97.2728 875.134 100.081 875.278 102.025ZM879.341 96.0488C878.141 96.0488 877.205 95.0888 877.205 93.8888C877.205 92.7128 878.141 91.7768 879.341 91.7768C880.541 91.7768 881.525 92.7128 881.525 93.8888C881.525 95.0888 880.493 96.0488 879.341 96.0488ZM880.925 97.4168V109.801H877.733V97.4168H880.925ZM892.295 99.0008V97.4168H895.487V109.801H892.295V108.217C891.359 109.273 890.111 109.945 888.671 109.945C885.719 109.945 883.367 107.113 883.367 103.609C883.367 100.105 885.719 97.2728 888.671 97.2728C890.111 97.2728 891.383 97.9448 892.295 99.0008ZM889.439 106.777C891.047 106.777 892.295 105.361 892.295 103.609C892.295 101.857 891.047 100.465 889.439 100.465C887.831 100.465 886.535 101.857 886.535 103.609C886.535 105.361 887.831 106.777 889.439 106.777ZM904.301 107.017C904.781 107.017 905.285 106.897 905.717 106.777V109.609C905.045 109.801 904.277 109.945 903.581 109.945C901.133 109.945 899.597 108.673 899.597 105.769V100.201H897.581V97.4168H899.597V93.8888H902.789V97.4168H905.717V100.201H902.789V105.697C902.789 106.657 903.413 107.017 904.301 107.017ZM918.988 104.497H910.468C910.66 105.961 911.524 107.137 913.372 107.137C914.62 107.137 915.388 106.417 915.628 105.745H918.82C918.676 106.825 917.332 109.945 913.372 109.945C909.796 109.945 907.156 107.257 907.156 103.609C907.156 100.033 909.868 97.2728 913.276 97.2728C916.492 97.2728 919.036 100.105 919.036 103.561C919.036 103.921 919.012 104.281 918.988 104.497ZM913.276 100.081C911.764 100.081 910.852 101.041 910.564 102.361H915.796C915.532 101.041 914.716 100.081 913.276 100.081Z" fill="white"/>
<path d="M831.323 128.099C831.916 127.769 832.345 127.132 832.345 126.406C832.345 125.241 831.301 124.285 830.081 124.285H826.926V132.199H830.399C831.587 132.199 832.653 131.243 832.653 130.078C832.664 129.242 832.18 128.462 831.323 128.11V128.099ZM830.081 125.428C830.707 125.428 831.202 125.923 831.202 126.538C831.202 127.099 830.74 127.593 830.125 127.604H828.069V125.428H830.081ZM828.069 131.056V128.759H830.399C831.015 128.759 831.51 129.297 831.51 129.913C831.51 130.539 831.015 131.056 830.399 131.056H828.069ZM837.53 126.527V129.825C837.53 130.528 836.959 131.133 836.233 131.133C835.519 131.133 834.947 130.539 834.947 129.825V126.527H833.804V129.957C833.804 131.243 834.573 132.265 835.827 132.265C836.53 132.265 837.146 131.891 837.53 131.43V132.133C837.53 133.156 836.959 133.826 836.046 133.826C835.178 133.826 834.694 133.375 834.606 132.672H833.408C833.474 133.804 834.376 134.903 836.024 134.903C837.563 134.903 838.674 133.749 838.674 132.089V126.527H837.53Z" fill="white"/>
<g clip-path="url(#clip1_12166_730)">
<path fill-rule="evenodd" clip-rule="evenodd" d="M864.469 131.782C863.13 131.782 862.045 130.693 862.045 129.348C862.045 128.004 863.13 126.914 864.469 126.914C865.808 126.914 866.893 128.004 866.893 129.348C866.893 129.994 866.638 130.613 866.183 131.07C865.729 131.526 865.112 131.782 864.469 131.782ZM866.897 122.967V126.751C865.49 125.424 863.284 125.47 861.933 126.855C860.582 128.24 860.582 130.456 861.933 131.841C863.284 133.226 865.49 133.272 866.897 131.945V132.729H868.018V122.967H866.897ZM898.094 131.782C896.755 131.782 895.67 130.693 895.67 129.348C895.67 128.004 896.755 126.914 898.094 126.914C899.433 126.914 900.518 128.004 900.518 129.348C900.518 129.994 900.263 130.613 899.808 131.07C899.353 131.526 898.737 131.782 898.094 131.782ZM901.641 129.348V125.823H900.521V126.751C899.114 125.424 896.908 125.47 895.557 126.855C894.206 128.24 894.206 130.456 895.557 131.841C896.908 133.226 899.114 133.272 900.521 131.945V132.729H901.642V129.348H901.641ZM910.576 126.085C910.676 125.92 910.855 125.819 911.048 125.819H911.264C911.722 125.819 912.093 126.192 912.093 126.651V132.729H910.949V127.58C910.422 128.435 908.534 131.534 907.968 132.464C907.868 132.629 907.689 132.729 907.496 132.729H907.263C906.958 132.729 906.71 132.481 906.71 132.174V127.567C906.093 128.569 904.196 131.681 903.598 132.677L903.567 132.729H902.471V125.821H903.614V125.835L903.587 130.601L906.328 126.086C906.429 125.921 906.608 125.82 906.8 125.82H907.018C907.475 125.82 907.845 126.192 907.847 126.651C907.847 127.921 907.853 130.234 907.853 130.57L910.576 126.085ZM894.433 131.446C893.52 132.705 891.9 133.223 890.431 132.725C888.962 132.227 887.985 130.828 888.019 129.272C888.053 127.715 889.09 126.362 890.58 125.929C892.069 125.497 893.666 126.086 894.522 127.384L893.448 127.945C892.868 127.125 891.836 126.762 890.874 127.041C889.911 127.32 889.23 128.179 889.175 129.183C889.12 130.187 889.703 131.117 890.629 131.5C891.555 131.883 892.621 131.637 893.286 130.886L894.433 131.446ZM916.375 131.788C915.093 131.787 914.034 130.785 913.957 129.5V129.209C914.036 127.886 915.155 126.869 916.474 126.922C917.793 126.975 918.827 128.078 918.801 129.403C918.774 130.729 917.697 131.789 916.377 131.789L916.375 131.788ZM916.377 125.792C915.478 125.791 914.613 126.133 913.957 126.75V125.823H912.837V135.549H913.957V131.958C915.12 133.048 916.863 133.227 918.221 132.397C919.58 131.566 920.222 129.929 919.793 128.392C919.363 126.854 917.967 125.791 916.377 125.792V125.792ZM878.397 126.901V131.149C878.397 131.401 878.601 131.605 878.851 131.605H880.156V132.729H878.852C877.983 132.728 877.279 132.021 877.279 131.149L877.275 126.901H876.066V125.807H877.275V123.918H878.396V125.811H880.385V126.901H878.397ZM883.828 131.782C882.489 131.782 881.404 130.692 881.404 129.348C881.404 128.003 882.489 126.913 883.828 126.913C885.167 126.913 886.252 128.003 886.252 129.348C886.252 129.993 885.997 130.612 885.542 131.069C885.087 131.525 884.471 131.782 883.828 131.782ZM886.256 125.822V126.751C884.848 125.424 882.642 125.47 881.291 126.855C879.94 128.24 879.94 130.456 881.291 131.841C882.642 133.226 884.848 133.272 886.256 131.945V132.729H887.376V125.821L886.256 125.822ZM872.015 131.782C870.676 131.782 869.591 130.693 869.591 129.348C869.591 128.004 870.676 126.914 872.015 126.914C873.354 126.914 874.439 128.004 874.439 129.348C874.439 129.994 874.184 130.613 873.729 131.07C873.275 131.526 872.658 131.783 872.015 131.782ZM874.442 125.823V126.751C873.035 125.424 870.829 125.47 869.478 126.855C868.127 128.24 868.127 130.456 869.478 131.841C870.829 133.226 873.035 133.272 874.442 131.945V132.729H875.562V125.821L874.442 125.823Z" fill="white"/>
<path fill-rule="evenodd" clip-rule="evenodd" d="M851.331 123.838V127.4L847.567 129.556V121.669L851.331 123.838ZM852.549 131.322V128.112L857.59 125.223L856.363 124.518L852.549 126.703V123.482C852.548 123.263 852.432 123.061 852.243 122.951L847.652 120.308C847.639 120.301 847.627 120.294 847.615 120.288C847.342 120.155 847.02 120.172 846.763 120.334C846.506 120.496 846.35 120.779 846.351 121.084V130.14C846.35 130.445 846.505 130.728 846.763 130.891C847.02 131.053 847.342 131.07 847.615 130.937L847.65 130.919L851.328 128.811V131.683C851.329 131.903 851.446 132.105 851.636 132.215L856.356 134.904L857.582 134.198L852.549 131.322Z" fill="#03EF62"/>
</g>
<g filter="url(#filter0_dd_12166_730)">
<rect x="952.8" y="30" width="112.2" height="132" rx="6.59998" fill="#05192D"/>
<rect x="952.8" y="30" width="112.2" height="132" rx="6.59998" fill="url(#paint7_radial_12166_730)"/>
<mask id="mask1_12166_730" style="mask-type:alpha" maskUnits="userSpaceOnUse" x="952" y="142" width="113" height="21">
<rect x="952.8" y="142.201" width="112.2" height="19.7999" fill="#D9D9D9"/>
</mask>
<g mask="url(#mask1_12166_730)">
<rect x="952.8" y="30.002" width="112.2" height="132" rx="6.59998" fill="#72E5FE"/>
<path d="M983.062 154.852H981.637L980.934 153.03H978.221L977.518 154.852H976.093L978.865 147.724H980.3L983.062 154.852ZM978.944 151.169L978.696 151.812H980.459L980.211 151.169C979.974 150.555 979.785 150.03 979.578 149.456H979.568C979.38 150.03 979.191 150.555 978.944 151.169ZM984.787 152.357H986.114C986.123 153.178 986.648 153.644 987.43 153.644C988.143 153.644 988.49 153.208 988.49 152.782C988.49 152.367 988.183 152.05 987.658 151.921L986.826 151.713C985.668 151.426 984.985 150.674 984.985 149.713C984.985 148.506 986.094 147.664 987.361 147.664C988.747 147.664 989.618 148.723 989.618 149.951H988.321C988.321 149.357 987.905 148.921 987.302 148.921C986.688 148.921 986.341 149.337 986.341 149.723C986.341 150.01 986.5 150.307 987.034 150.446L987.846 150.654C989.183 150.991 989.846 151.664 989.846 152.763C989.846 154.03 988.846 154.911 987.43 154.911C985.995 154.911 984.797 153.941 984.787 152.357ZM991.85 152.357H993.176C993.186 153.178 993.711 153.644 994.493 153.644C995.206 153.644 995.552 153.208 995.552 152.782C995.552 152.367 995.245 152.05 994.721 151.921L993.889 151.713C992.731 151.426 992.048 150.674 992.048 149.713C992.048 148.506 993.157 147.664 994.424 147.664C995.81 147.664 996.681 148.723 996.681 149.951H995.384C995.384 149.357 994.968 148.921 994.364 148.921C993.751 148.921 993.404 149.337 993.404 149.723C993.404 150.01 993.562 150.307 994.097 150.446L994.909 150.654C996.245 150.991 996.909 151.664 996.909 152.763C996.909 154.03 995.909 154.911 994.493 154.911C993.058 154.911 991.86 153.941 991.85 152.357ZM1002.5 154.911C1000.5 154.911 998.893 153.287 998.893 151.288C998.893 149.288 1000.5 147.664 1002.5 147.664C1004.5 147.664 1006.11 149.288 1006.11 151.288C1006.11 153.287 1004.5 154.911 1002.5 154.911ZM1002.5 153.594C1003.77 153.594 1004.79 152.565 1004.79 151.288C1004.79 150.01 1003.77 148.981 1002.5 148.981C1001.22 148.981 1000.21 150.01 1000.21 151.288C1000.21 152.565 1001.22 153.594 1002.5 153.594ZM1011.8 154.911C1009.8 154.911 1008.2 153.287 1008.2 151.288C1008.2 149.288 1009.8 147.664 1011.8 147.664C1013.61 147.664 1014.75 149.04 1014.97 150.258H1013.6C1013.39 149.515 1012.59 148.981 1011.8 148.981C1010.52 148.981 1009.52 150.01 1009.52 151.288C1009.52 152.565 1010.52 153.594 1011.8 153.594C1012.63 153.594 1013.37 153.129 1013.61 152.347H1014.98C1014.75 153.693 1013.58 154.911 1011.8 154.911ZM1017.38 147.724H1018.69V154.852H1017.38V147.724ZM1027.83 154.852H1026.4L1025.7 153.03H1022.99L1022.28 154.852H1020.86L1023.63 147.724H1025.06L1027.83 154.852ZM1023.71 151.169L1023.46 151.812H1025.22L1024.98 151.169C1024.74 150.555 1024.55 150.03 1024.34 149.456H1024.33C1024.14 150.03 1023.96 150.555 1023.71 151.169ZM1034.19 147.724V149.04H1032.04V154.852H1030.73V149.04H1028.59V147.724H1034.19ZM1036.36 147.724H1041.34V149.04H1037.68V150.634H1040.96V151.941H1037.68V153.535H1041.34V154.852H1036.36V147.724Z" fill="#05192D"/>
</g>
<rect x="954.45" y="31.65" width="108.9" height="128.7" rx="4.94998" stroke="#72E5FE" stroke-width="3.29999"/>
<circle cx="1008.9" cy="81.1503" r="41.2499" stroke="url(#paint8_linear_12166_730)" stroke-width="1.64999"/>
<circle cx="1008.9" cy="79.5003" r="23.0999" fill="url(#paint9_linear_12166_730)"/>
<g filter="url(#filter1_d_12166_730)">
<circle cx="1008.9" cy="79.5019" r="16.4999" fill="white"/>
</g>
<path fill-rule="evenodd" clip-rule="evenodd" d="M1003.69 76.9629C1003.63 77.0019 1003.55 77.021 1003.47 77.021C1003.39 77.021 1003.3 76.9893 1003.2 76.9278C1003.11 76.8717 1003 76.8097 1002.89 76.7429C1002.77 76.6768 1002.63 76.6164 1002.47 76.5614C1002.32 76.5081 1002.13 76.4811 1001.92 76.4811C1001.73 76.4811 1001.56 76.5045 1001.42 76.551C1001.28 76.597 1001.17 76.6605 1001.07 76.7413C1000.98 76.8213 1000.91 76.9164 1000.86 77.0274C1000.82 77.1401 1000.79 77.264 1000.79 77.3994C1000.79 77.5684 1000.84 77.7069 1000.93 77.817C1001.03 77.9324 1001.15 78.0314 1001.31 78.1142C1001.48 78.1989 1001.66 78.2751 1001.87 78.3424C1002.08 78.4089 1002.3 78.4815 1002.52 78.5614C1002.75 78.6399 1002.97 78.7307 1003.18 78.8341C1003.4 78.9397 1003.6 79.0728 1003.77 79.2337C1003.94 79.3964 1004.08 79.5951 1004.19 79.8295C1004.29 80.0656 1004.34 80.35 1004.34 80.6822C1004.34 81.0425 1004.28 81.3806 1004.16 81.6963C1004.04 82.0123 1003.86 82.2881 1003.62 82.5233C1003.39 82.758 1003.1 82.9427 1002.76 83.0774C1002.43 83.2117 1002.04 83.2787 1001.61 83.2787C1001.36 83.2787 1001.11 83.254 1000.87 83.2046C1000.63 83.1554 1000.4 83.0849 1000.18 82.9933C999.954 82.9018 999.747 82.7918 999.554 82.6635C999.36 82.5349 999.187 82.3916 999.035 82.2336L999 82.1979L999.026 82.1553L999.445 81.4524C999.489 81.396 999.541 81.3486 999.603 81.3102C999.668 81.2698 999.741 81.2494 999.82 81.2494C999.923 81.2494 1000.03 81.291 1000.14 81.3719C1000.25 81.4463 1000.37 81.5279 1000.51 81.6158C1000.64 81.7036 1000.8 81.7837 1000.99 81.8557C1001.17 81.9265 1001.39 81.9621 1001.65 81.9621C1002.04 81.9621 1002.35 81.8686 1002.56 81.6836C1002.76 81.5005 1002.87 81.2367 1002.87 80.8875C1002.87 80.696 1002.82 80.5426 1002.73 80.4252C1002.64 80.3032 1002.51 80.2002 1002.35 80.1156C1002.19 80.0295 1002 79.9564 1001.79 79.8964C1001.58 79.8351 1001.36 79.7683 1001.14 79.696C1000.92 79.623 1000.7 79.5356 1000.48 79.4339C1000.27 79.3301 1000.07 79.1947 999.898 79.0279C999.725 78.8599 999.587 78.65 999.482 78.3991C999.377 78.1476 999.325 77.8396 999.325 77.475C999.325 77.1822 999.383 76.8966 999.498 76.6185C999.613 76.3403 999.781 76.0937 1000 75.879C1000.22 75.6643 1000.49 75.4924 1000.81 75.3635C1001.13 75.2343 1001.5 75.1699 1001.91 75.1699C1002.37 75.1699 1002.79 75.2433 1003.18 75.39C1003.57 75.5367 1003.91 75.7429 1004.18 76.0084L1004.22 76.0417L1003.85 76.7701C1003.8 76.859 1003.75 76.9235 1003.69 76.9629ZM1009.63 83.2403C1009.44 83.2658 1009.24 83.2785 1009.03 83.2785C1008.44 83.2785 1007.9 83.1772 1007.41 82.9742C1006.92 82.7709 1006.51 82.4879 1006.16 82.1253C1005.81 81.7629 1005.54 81.3335 1005.35 80.8377C1005.16 80.3426 1005.06 79.8045 1005.06 79.2242C1005.06 78.644 1005.16 78.1059 1005.35 77.6107C1005.54 77.115 1005.81 76.6856 1006.16 76.323C1006.51 75.9604 1006.92 75.6774 1007.41 75.4741C1007.9 75.2712 1008.44 75.1699 1009.03 75.1699C1009.62 75.1699 1010.16 75.2722 1010.65 75.4771C1011.13 75.682 1011.55 75.965 1011.9 76.3259C1012.24 76.6865 1012.51 77.1151 1012.7 77.6107C1012.89 78.1061 1012.99 78.6442 1012.99 79.2242C1012.99 79.5779 1012.95 79.9167 1012.88 80.2399C1012.81 80.5636 1012.71 80.8661 1012.57 81.1476C1012.44 81.4294 1012.27 81.6883 1012.08 81.9246C1011.9 82.1425 1011.69 82.3363 1011.47 82.5057L1013.47 84.7203H1012.14C1011.97 84.7203 1011.81 84.6958 1011.66 84.6466C1011.52 84.5961 1011.38 84.5036 1011.26 84.3698L1010.16 83.1354C1009.99 83.1814 1009.81 83.2163 1009.63 83.2403ZM1011.39 79.2244C1011.39 78.8027 1011.34 78.4255 1011.23 78.0921C1011.12 77.7604 1010.96 77.4792 1010.76 77.2483C1010.56 77.0181 1010.31 76.842 1010.02 76.7197C1009.73 76.5971 1009.4 76.5356 1009.03 76.5356C1008.66 76.5356 1008.33 76.5971 1008.04 76.7198C1007.75 76.842 1007.5 77.0182 1007.29 77.2485C1007.09 77.4793 1006.93 77.7605 1006.82 78.0925C1006.71 78.4254 1006.65 78.8024 1006.65 79.2244C1006.65 79.6464 1006.71 80.0234 1006.82 80.3564C1006.93 80.6883 1007.09 80.9685 1007.29 81.1972C1007.5 81.4259 1007.75 81.6013 1008.04 81.7236C1008.33 81.8463 1008.66 81.9077 1009.03 81.9077C1009.4 81.9077 1009.73 81.8463 1010.02 81.7237C1010.31 81.6013 1010.56 81.426 1010.76 81.1974C1010.96 80.9686 1011.12 80.6883 1011.23 80.3566C1011.34 80.0232 1011.39 79.646 1011.39 79.2244ZM1018.8 81.8656V83.1932H1014.16V75.2571H1015.72V81.8656H1018.8Z" fill="#05192D"/>
<g clip-path="url(#clip2_12166_730)">
<path fill-rule="evenodd" clip-rule="evenodd" d="M988.852 109.835V112.07L986.546 113.423V108.473L988.852 109.835ZM989.598 114.531V112.517L992.686 110.704L991.935 110.261L989.598 111.633V109.611C989.598 109.473 989.526 109.347 989.411 109.278L986.597 107.619C986.59 107.614 986.582 107.611 986.575 107.607C986.408 107.523 986.21 107.534 986.053 107.635C985.895 107.737 985.8 107.915 985.8 108.106V113.789C985.8 113.981 985.895 114.159 986.053 114.261C986.21 114.363 986.408 114.373 986.575 114.29L986.597 114.279L988.85 112.955V114.758C988.851 114.896 988.922 115.023 989.038 115.092L991.931 116.779L992.682 116.336L989.598 114.531Z" fill="#03EF62"/>
</g>
<path d="M999.017 115.589C1000.52 115.589 1001.59 114.62 1001.89 113.373H1000.9C1000.61 114.171 999.869 114.656 999.017 114.656C997.715 114.656 996.711 113.606 996.711 112.305C996.711 111.004 997.715 109.954 999.017 109.954C999.797 109.954 1000.63 110.484 1000.87 111.228H1001.86C1001.59 110.062 1000.49 109.021 999.017 109.021C997.204 109.021 995.777 110.492 995.777 112.305C995.777 114.118 997.204 115.589 999.017 115.589Z" fill="white"/>
<path d="M1006.96 113.507C1006.97 113.409 1006.98 113.292 1006.98 113.166C1006.98 111.901 1006.07 110.851 1004.83 110.851C1003.55 110.851 1002.61 111.901 1002.61 113.22C1002.61 114.566 1003.54 115.589 1004.87 115.589C1006.3 115.589 1006.83 114.494 1006.9 114.055H1005.94C1005.85 114.324 1005.52 114.746 1004.87 114.746C1004.08 114.746 1003.65 114.198 1003.57 113.507H1006.96ZM1004.83 111.695C1005.52 111.695 1005.93 112.188 1006.03 112.807H1003.6C1003.72 112.179 1004.14 111.695 1004.83 111.695Z" fill="white"/>
<path d="M1010.13 110.851C1009.57 110.851 1009.15 111.112 1008.91 111.515V110.905H1007.97V115.535H1008.91V113.05C1008.91 112.161 1009.4 111.767 1010.1 111.767C1010.31 111.767 1010.48 111.794 1010.58 111.811V110.878C1010.48 110.869 1010.35 110.851 1010.13 110.851Z" fill="white"/>
<path d="M1013.21 114.719C1012.87 114.719 1012.65 114.566 1012.65 114.18V111.722H1013.83V110.905H1012.65V109.595H1011.71V110.905H1010.92V111.722H1011.71V114.198C1011.71 115.14 1012.22 115.589 1013.04 115.589C1013.36 115.589 1013.67 115.481 1013.83 115.419V114.548C1013.71 114.602 1013.45 114.719 1013.21 114.719Z" fill="white"/>
<path d="M1015.26 110.25C1015.63 110.25 1015.95 109.954 1015.95 109.577C1015.95 109.2 1015.64 108.904 1015.26 108.904C1014.88 108.904 1014.58 109.2 1014.58 109.577C1014.58 109.954 1014.88 110.25 1015.26 110.25ZM1015.71 110.905H1014.78V115.535H1015.71V110.905Z" fill="white"/>
<path d="M1018.35 110.905V110.475C1018.35 110.08 1018.62 109.9 1018.95 109.9C1019.18 109.9 1019.38 109.954 1019.51 110.008V109.147C1019.36 109.093 1019.05 109.021 1018.7 109.021C1017.91 109.021 1017.42 109.613 1017.42 110.457V110.905H1016.67V111.722H1017.42V115.535H1018.35V111.722H1019.54V110.905H1018.35Z" fill="white"/>
<path d="M1020.88 110.25C1021.26 110.25 1021.57 109.954 1021.57 109.577C1021.57 109.2 1021.27 108.904 1020.88 108.904C1020.51 108.904 1020.21 109.2 1020.21 109.577C1020.21 109.954 1020.51 110.25 1020.88 110.25ZM1021.34 110.905H1020.41V115.535H1021.34V110.905Z" fill="white"/>
<path d="M1026.75 113.507C1026.76 113.409 1026.77 113.292 1026.77 113.166C1026.77 111.901 1025.85 110.851 1024.61 110.851C1023.34 110.851 1022.4 111.901 1022.4 113.22C1022.4 114.566 1023.32 115.589 1024.66 115.589C1026.09 115.589 1026.62 114.494 1026.69 114.055H1025.73C1025.64 114.324 1025.31 114.746 1024.66 114.746C1023.87 114.746 1023.44 114.198 1023.36 113.507H1026.75ZM1024.61 111.695C1025.31 111.695 1025.72 112.188 1025.82 112.807H1023.39C1023.5 112.179 1023.92 111.695 1024.61 111.695Z" fill="white"/>
<path d="M1031.07 109.075V111.614C1030.77 111.174 1030.23 110.851 1029.6 110.851C1028.52 110.851 1027.58 111.856 1027.58 113.22C1027.58 114.584 1028.52 115.589 1029.6 115.589C1030.23 115.589 1030.74 115.347 1031.07 114.826V115.535H1032V109.075H1031.07ZM1029.82 114.683C1029.06 114.683 1028.51 114.028 1028.51 113.22C1028.51 112.413 1029.06 111.767 1029.82 111.767C1030.58 111.767 1031.07 112.413 1031.07 113.22C1031.07 114.028 1030.58 114.683 1029.82 114.683Z" fill="white"/>
<path d="M996.744 128.615H998.513C998.526 129.711 999.226 130.331 1000.27 130.331C1001.22 130.331 1001.68 129.75 1001.68 129.183C1001.68 128.628 1001.27 128.206 1000.57 128.034L999.464 127.757C997.919 127.374 997.008 126.371 997.008 125.091C997.008 123.48 998.487 122.358 1000.18 122.358C1002.02 122.358 1003.19 123.771 1003.19 125.407H1001.46C1001.46 124.615 1000.9 124.035 1000.1 124.035C999.279 124.035 998.817 124.589 998.817 125.104C998.817 125.487 999.028 125.883 999.741 126.067L1000.82 126.345C1002.61 126.793 1003.49 127.691 1003.49 129.156C1003.49 130.846 1002.16 132.021 1000.27 132.021C998.355 132.021 996.758 130.727 996.744 128.615ZM1012.89 130.278L1014.01 131.611L1012.77 132.681L1011.63 131.347C1010.92 131.77 1010.08 132.021 1009.18 132.021C1006.51 132.021 1004.37 129.856 1004.37 127.189C1004.37 124.523 1006.51 122.358 1009.18 122.358C1011.85 122.358 1014 124.523 1014 127.189C1014 128.364 1013.58 129.447 1012.89 130.278ZM1009.18 130.265C1009.64 130.265 1010.09 130.159 1010.47 129.975L1008.35 127.467L1009.59 126.397L1011.73 128.905C1012.04 128.417 1012.24 127.823 1012.24 127.189C1012.24 125.487 1010.88 124.114 1009.18 124.114C1007.48 124.114 1006.13 125.487 1006.13 127.189C1006.13 128.892 1007.48 130.265 1009.18 130.265ZM1017.25 122.437V130.186H1021.35V131.941H1015.5V122.437H1017.25Z" fill="white"/>
</g>
</g>
<defs>
<filter id="filter0_dd_12166_730" x="947.85" y="26.7" width="122.1" height="141.902" filterUnits="userSpaceOnUse" color-interpolation-filters="sRGB">
<feFlood flood-opacity="0" result="BackgroundImageFix"/>
<feColorMatrix in="SourceAlpha" type="matrix" values="0 0 0 0 0 0 0 0 0 0 0 0 0 0 0 0 0 0 127 0" result="hardAlpha"/>
<feMorphology radius="1.64999" operator="erode" in="SourceAlpha" result="effect1_dropShadow_12166_730"/>
<feOffset dy="1.64999"/>
<feGaussianBlur stdDeviation="3.29999"/>
<feColorMatrix type="matrix" values="0 0 0 0 0.0196078 0 0 0 0 0.0980392 0 0 0 0 0.176471 0 0 0 0.3 0"/>
<feBlend mode="normal" in2="BackgroundImageFix" result="effect1_dropShadow_12166_730"/>
<feColorMatrix in="SourceAlpha" type="matrix" values="0 0 0 0 0 0 0 0 0 0 0 0 0 0 0 0 0 0 127 0" result="hardAlpha"/>
<feOffset/>
<feGaussianBlur stdDeviation="0.824997"/>
<feColorMatrix type="matrix" values="0 0 0 0 0.0196078 0 0 0 0 0.0980392 0 0 0 0 0.176471 0 0 0 0.3 0"/>
<feBlend mode="normal" in2="effect1_dropShadow_12166_730" result="effect2_dropShadow_12166_730"/>
<feBlend mode="normal" in="SourceGraphic" in2="effect2_dropShadow_12166_730" result="shape"/>
</filter>
<filter id="filter1_d_12166_730" x="963.948" y="57.3115" width="89.9049" height="89.9049" filterUnits="userSpaceOnUse" color-interpolation-filters="sRGB">
<feFlood flood-opacity="0" result="BackgroundImageFix"/>
<feColorMatrix in="SourceAlpha" type="matrix" values="0 0 0 0 0 0 0 0 0 0 0 0 0 0 0 0 0 0 127 0" result="hardAlpha"/>
<feOffset dy="22.762"/>
<feGaussianBlur stdDeviation="14.2262"/>
<feComposite in2="hardAlpha" operator="out"/>
<feColorMatrix type="matrix" values="0 0 0 0 0 0 0 0 0 0.0313726 0 0 0 0 0.12549 0 0 0 1 0"/>
<feBlend mode="normal" in2="BackgroundImageFix" result="effect1_dropShadow_12166_730"/>
<feBlend mode="normal" in="SourceGraphic" in2="effect1_dropShadow_12166_730" result="shape"/>
</filter>
<linearGradient id="paint0_linear_12166_730" x1="307.545" y1="240.086" x2="505.8" y2="321.019" gradientUnits="userSpaceOnUse">
<stop stop-color="#72E5FE"/>
<stop offset="1" stop-color="#05192D"/>
</linearGradient>
<linearGradient id="paint1_linear_12166_730" x1="308.684" y1="162.403" x2="317.71" y2="73.067" gradientUnits="userSpaceOnUse">
<stop stop-color="#72E5FE"/>
<stop offset="1" stop-color="#05192D"/>
</linearGradient>
<linearGradient id="paint2_linear_12166_730" x1="13.6874" y1="28.5287" x2="57.4556" y2="213.187" gradientUnits="userSpaceOnUse">
<stop stop-color="#72E5FE"/>
<stop offset="1" stop-color="#05192D"/>
</linearGradient>
<linearGradient id="paint3_linear_12166_730" x1="5.54523" y1="-2.99998" x2="145.366" y2="-30.2698" gradientUnits="userSpaceOnUse">
<stop stop-color="#72E5FE"/>
<stop offset="1" stop-color="#05192D"/>
</linearGradient>
<linearGradient id="paint4_linear_12166_730" x1="23.6776" y1="68.021" x2="187.133" y2="68.021" gradientUnits="userSpaceOnUse">
<stop stop-color="#72E5FE"/>
<stop offset="1" stop-color="#05192D"/>
</linearGradient>
<linearGradient id="paint5_linear_12166_730" x1="393.661" y1="-96" x2="355.412" y2="57.6174" gradientUnits="userSpaceOnUse">
<stop stop-color="#72E5FE"/>
<stop offset="1" stop-color="#05192D"/>
</linearGradient>
<linearGradient id="paint6_linear_12166_730" x1="4.9115" y1="79.5664" x2="-18.6637" y2="-79.0752" gradientUnits="userSpaceOnUse">
<stop stop-color="#72E5FE"/>
<stop offset="1" stop-color="#05192D"/>
</linearGradient>
<radialGradient id="paint7_radial_12166_730" cx="0" cy="0" r="1" gradientUnits="userSpaceOnUse" gradientTransform="translate(1008.9 95.9998) rotate(90) scale(70.9498 60.3073)">
<stop stop-color="#213147"/>
<stop offset="1" stop-color="#213147" stop-opacity="0"/>
</radialGradient>
<linearGradient id="paint8_linear_12166_730" x1="1008.9" y1="39.9004" x2="1008.9" y2="99.1971" gradientUnits="userSpaceOnUse">
<stop stop-color="#72E5FE"/>
<stop offset="1" stop-color="#72E5FE" stop-opacity="0"/>
</linearGradient>
<linearGradient id="paint9_linear_12166_730" x1="1008.9" y1="56.4004" x2="1008.9" y2="102.6" gradientUnits="userSpaceOnUse">
<stop stop-color="white" stop-opacity="0.24"/>
<stop offset="1" stop-color="#DADADA" stop-opacity="0"/>
</linearGradient>
<clipPath id="clip0_12166_730">
<rect width="1128" height="191" fill="white"/>
</clipPath>
<clipPath id="clip1_12166_730">
<rect width="73.649" height="15.3893" fill="white" transform="translate(846.351 120.199)"/>
</clipPath>
<clipPath id="clip2_12166_730">
<rect width="7.0425" height="9.39" fill="white" transform="translate(985.8 107.551)"/>
</clipPath>
</defs>
</svg>
