<svg width="851" height="315" viewBox="0 0 851 315" fill="none" xmlns="http://www.w3.org/2000/svg">
<g clip-path="url(#clip0_12166_768)">
<rect width="851" height="315" fill="#05192D"/>
<mask id="mask0_12166_768" style="mask-type:alpha" maskUnits="userSpaceOnUse" x="0" y="0" width="851" height="315">
<rect width="851" height="315" fill="#05192D"/>
</mask>
<g mask="url(#mask0_12166_768)">
<path d="M-1.02002 187.996V187.996C17.909 187.996 33.254 172.651 33.254 153.722L33.254 -2.74617L-1.02004 -2.74616" stroke="url(#paint0_linear_12166_768)" stroke-width="1.22872"/>
<rect x="-4" y="-3.00195" width="161.297" height="64.0612" stroke="url(#paint1_linear_12166_768)" stroke-width="1.22872"/>
<circle cx="157.869" cy="61.63" r="44.0421" stroke="url(#paint2_linear_12166_768)" stroke-width="1.22872"/>
<path d="M283 20.9451C283 42.6408 300.588 60.2285 322.283 60.2285L538.762 60.2286L538.762 -3.39394L283 -3.39399L283 20.9451Z" stroke="url(#paint3_linear_12166_768)" stroke-width="1.22761"/>
<rect width="114.318" height="119.61" rx="57.1589" transform="matrix(1 9.20383e-08 8.30387e-08 -1 481.682 60.2285)" stroke="url(#paint4_linear_12166_768)" stroke-width="1.22761"/>
<path d="M462.03 288.935C462.03 272.909 449.038 259.918 433.013 259.918L115 259.918L115 336.171L462.03 336.171L462.03 288.935Z" stroke="url(#paint5_linear_12166_768)" stroke-width="1.20904"/>
<path d="M239.729 222.523C239.729 198.485 220.242 178.998 196.204 178.998L115 178.998L115 286.524L239.729 286.524L239.729 222.523Z" stroke="url(#paint6_linear_12166_768)" stroke-width="1.20904"/>
</g>
<path d="M473.393 136.558C467.631 136.558 463.01 131.879 463.01 126.117C463.01 120.354 467.631 115.676 473.393 115.676C478.614 115.676 481.895 119.641 482.522 123.15H478.585C477.958 121.011 475.676 119.47 473.393 119.47C469.713 119.47 466.804 122.437 466.804 126.117C466.804 129.797 469.713 132.764 473.393 132.764C475.79 132.764 477.901 131.423 478.614 129.169H482.551C481.895 133.049 478.528 136.558 473.393 136.558ZM498.749 130.082H488.622C488.85 131.822 489.877 133.22 492.073 133.22C493.557 133.22 494.47 132.364 494.755 131.566H498.549C498.378 132.849 496.78 136.558 492.073 136.558C487.823 136.558 484.685 133.363 484.685 129.027C484.685 124.776 487.908 121.496 491.959 121.496C495.782 121.496 498.806 124.862 498.806 128.97C498.806 129.398 498.777 129.825 498.749 130.082ZM491.959 124.833C490.162 124.833 489.078 125.974 488.736 127.543H494.955C494.641 125.974 493.671 124.833 491.959 124.833ZM509.401 121.496C510.143 121.496 510.685 121.581 511.027 121.61V125.404C510.685 125.347 509.943 125.204 509.002 125.204C506.805 125.204 505.407 126.374 505.407 129.084V136.387H501.613V121.667H505.407V123.635C506.291 122.18 507.718 121.496 509.401 121.496ZM519.959 133.078C520.53 133.078 521.129 132.935 521.642 132.792V136.159C520.843 136.387 519.931 136.558 519.103 136.558C516.193 136.558 514.368 135.046 514.368 131.594V124.976H511.971V121.667H514.368V117.473H518.162V121.667H521.642V124.976H518.162V131.509C518.162 132.65 518.904 133.078 519.959 133.078ZM526.396 120.041C524.969 120.041 523.857 118.9 523.857 117.473C523.857 116.075 524.969 114.963 526.396 114.963C527.822 114.963 528.991 116.075 528.991 117.473C528.991 118.9 527.765 120.041 526.396 120.041ZM528.278 121.667V136.387H524.484V121.667H528.278ZM537.194 121.667H540.674V124.976H537.194V136.387H533.4V124.976H531.032V121.667H533.4V120.725C533.4 117.787 534.969 115.676 537.793 115.676C539.077 115.676 540.132 115.933 540.446 116.047V119.385C540.275 119.327 539.647 119.156 538.991 119.156C537.993 119.156 537.194 119.556 537.194 120.754V121.667ZM545.089 120.041C543.662 120.041 542.55 118.9 542.55 117.473C542.55 116.075 543.662 114.963 545.089 114.963C546.515 114.963 547.685 116.075 547.685 117.473C547.685 118.9 546.458 120.041 545.089 120.041ZM546.971 121.667V136.387H543.177V121.667H546.971ZM563.938 130.082H553.811C554.039 131.822 555.066 133.22 557.262 133.22C558.746 133.22 559.659 132.364 559.944 131.566H563.738C563.567 132.849 561.969 136.558 557.262 136.558C553.012 136.558 549.874 133.363 549.874 129.027C549.874 124.776 553.097 121.496 557.148 121.496C560.971 121.496 563.995 124.862 563.995 128.97C563.995 129.398 563.966 129.825 563.938 130.082ZM557.148 124.833C555.351 124.833 554.267 125.974 553.925 127.543H560.144C559.83 125.974 558.86 124.833 557.148 124.833ZM576.922 115.847H580.717V136.387H576.922V134.39C575.924 135.93 574.412 136.558 572.672 136.558C569.22 136.558 566.31 133.448 566.31 129.027C566.31 124.605 569.22 121.496 572.672 121.496C574.412 121.496 575.981 122.408 576.922 123.664V115.847ZM573.528 132.792C575.468 132.792 576.922 131.109 576.922 129.027C576.922 126.944 575.468 125.261 573.528 125.261C571.616 125.261 570.076 126.944 570.076 129.027C570.076 131.109 571.616 132.792 573.528 132.792ZM602.887 123.55V121.667H606.681V136.387H602.887V134.504C601.774 135.759 600.291 136.558 598.579 136.558C595.07 136.558 592.275 133.192 592.275 129.027C592.275 124.862 595.07 121.496 598.579 121.496C600.291 121.496 601.803 122.294 602.887 123.55ZM599.492 132.792C601.403 132.792 602.887 131.109 602.887 129.027C602.887 126.944 601.403 125.29 599.492 125.29C597.581 125.29 596.04 126.944 596.04 129.027C596.04 131.109 597.581 132.792 599.492 132.792ZM609.541 131.423H613.335C613.363 132.621 614.333 133.306 615.503 133.306C616.501 133.306 617.3 132.821 617.3 132.022C617.3 131.28 616.73 130.938 615.589 130.653L613.791 130.225C611.024 129.54 609.912 127.971 609.912 125.86C609.912 123.293 612.194 121.496 615.389 121.496C618.555 121.496 620.581 123.949 620.581 126.317H617.215C617.186 125.261 616.416 124.519 615.36 124.519C614.305 124.519 613.649 125.061 613.649 125.803C613.649 126.402 614.02 126.773 614.761 126.944L616.758 127.401C619.639 128.057 621.094 129.683 621.037 131.765C620.98 134.789 618.555 136.558 615.332 136.558C611.566 136.558 609.569 133.819 609.541 131.423ZM427.213 165.198H431.035C431.064 167.566 432.576 168.906 434.829 168.906C436.883 168.906 437.882 167.651 437.882 166.425C437.882 165.226 436.997 164.314 435.486 163.943L433.089 163.344C429.752 162.516 427.783 160.348 427.783 157.581C427.783 154.101 430.978 151.676 434.63 151.676C438.624 151.676 441.134 154.728 441.134 158.266H437.397C437.397 156.554 436.199 155.299 434.459 155.299C432.69 155.299 431.691 156.497 431.691 157.61C431.691 158.437 432.148 159.293 433.688 159.692L436.028 160.291C439.879 161.261 441.79 163.201 441.79 166.367C441.79 170.019 438.909 172.558 434.829 172.558C430.693 172.558 427.241 169.762 427.213 165.198ZM462.104 168.792L464.528 171.674L461.847 173.984L459.393 171.103C457.853 172.016 456.027 172.558 454.087 172.558C448.325 172.558 443.704 167.879 443.704 162.117C443.704 156.354 448.325 151.676 454.087 151.676C459.85 151.676 464.5 156.354 464.5 162.117C464.5 164.656 463.587 166.995 462.104 168.792ZM454.087 168.764C455.086 168.764 456.056 168.536 456.883 168.136L452.29 162.716L454.972 160.405L459.593 165.825C460.278 164.77 460.706 163.486 460.706 162.117C460.706 158.437 457.767 155.47 454.087 155.47C450.407 155.47 447.498 158.437 447.498 162.117C447.498 165.797 450.407 168.764 454.087 168.764ZM471.536 151.847V168.593H480.379V172.387H467.742V151.847H471.536ZM509.65 172.387H505.542L503.517 167.138H495.701L493.675 172.387H489.567L497.555 151.847H501.691L509.65 172.387ZM497.783 161.775L497.07 163.629H502.148L501.434 161.775C500.75 160.006 500.208 158.494 499.609 156.839H499.58C499.038 158.494 498.496 160.006 497.783 161.775ZM510.838 167.423H514.632C514.661 168.621 515.631 169.306 516.8 169.306C517.799 169.306 518.597 168.821 518.597 168.022C518.597 167.28 518.027 166.938 516.886 166.653L515.089 166.225C512.321 165.54 511.209 163.971 511.209 161.86C511.209 159.293 513.491 157.496 516.686 157.496C519.853 157.496 521.878 159.949 521.878 162.317H518.512C518.483 161.261 517.713 160.519 516.658 160.519C515.602 160.519 514.946 161.061 514.946 161.803C514.946 162.402 515.317 162.773 516.058 162.944L518.055 163.401C520.937 164.057 522.391 165.683 522.334 167.765C522.277 170.789 519.853 172.558 516.629 172.558C512.863 172.558 510.866 169.819 510.838 167.423ZM524.21 167.423H528.004C528.033 168.621 529.003 169.306 530.172 169.306C531.171 169.306 531.969 168.821 531.969 168.022C531.969 167.28 531.399 166.938 530.258 166.653L528.461 166.225C525.693 165.54 524.581 163.971 524.581 161.86C524.581 159.293 526.863 157.496 530.058 157.496C533.225 157.496 535.25 159.949 535.25 162.317H531.884C531.855 161.261 531.085 160.519 530.03 160.519C528.974 160.519 528.318 161.061 528.318 161.803C528.318 162.402 528.689 162.773 529.431 162.944L531.427 163.401C534.309 164.057 535.764 165.683 535.707 167.765C535.649 170.789 533.225 172.558 530.001 172.558C526.235 172.558 524.239 169.819 524.21 167.423ZM545.142 172.558C541.091 172.558 537.839 169.192 537.839 165.027C537.839 160.862 541.091 157.496 545.142 157.496H545.17C549.193 157.496 552.445 160.89 552.445 165.027C552.445 169.163 549.193 172.558 545.17 172.558H545.142ZM545.142 168.792H545.17C547.139 168.792 548.651 167.081 548.651 165.027C548.651 162.973 547.11 161.261 545.17 161.261H545.142C543.145 161.29 541.605 162.973 541.605 165.027C541.605 167.081 543.145 168.792 545.142 168.792ZM568.841 163.144H564.99C564.619 161.889 563.393 161.09 562.052 161.09C559.827 161.09 558.515 162.973 558.515 165.027C558.515 167.081 559.941 168.963 562.052 168.963C563.507 168.963 564.762 168.051 565.019 166.91H568.784C568.67 169.078 566.046 172.558 562.052 172.558C558.001 172.558 554.749 169.192 554.749 165.027C554.749 160.862 558.001 157.496 562.052 157.496C566.474 157.496 568.67 160.833 568.841 163.144ZM573.671 156.041C572.245 156.041 571.133 154.9 571.133 153.473C571.133 152.075 572.245 150.963 573.671 150.963C575.098 150.963 576.267 152.075 576.267 153.473C576.267 154.9 575.041 156.041 573.671 156.041ZM575.554 157.667V172.387H571.76V157.667H575.554ZM589.069 159.55V157.667H592.863V172.387H589.069V170.504C587.956 171.759 586.473 172.558 584.761 172.558C581.252 172.558 578.457 169.192 578.457 165.027C578.457 160.862 581.252 157.496 584.761 157.496C586.473 157.496 587.985 158.294 589.069 159.55ZM585.674 168.792C587.585 168.792 589.069 167.109 589.069 165.027C589.069 162.944 587.585 161.29 585.674 161.29C583.763 161.29 582.222 162.944 582.222 165.027C582.222 167.109 583.763 168.792 585.674 168.792ZM603.34 169.078C603.91 169.078 604.509 168.935 605.023 168.792V172.159C604.224 172.387 603.311 172.558 602.484 172.558C599.574 172.558 597.748 171.046 597.748 167.594V160.976H595.352V157.667H597.748V153.473H601.542V157.667H605.023V160.976H601.542V167.509C601.542 168.65 602.284 169.078 603.34 169.078ZM620.797 166.082H610.67C610.898 167.822 611.925 169.22 614.122 169.22C615.605 169.22 616.518 168.364 616.803 167.566H620.597C620.426 168.849 618.829 172.558 614.122 172.558C609.871 172.558 606.733 169.363 606.733 165.027C606.733 160.776 609.957 157.496 614.008 157.496C617.83 157.496 620.854 160.862 620.854 164.97C620.854 165.398 620.826 165.825 620.797 166.082ZM614.008 160.833C612.21 160.833 611.126 161.974 610.784 163.543H617.003C616.689 161.974 615.719 160.833 614.008 160.833Z" fill="white"/>
<path d="M516.916 195.74C517.622 195.348 518.131 194.59 518.131 193.728C518.131 192.343 516.89 191.206 515.44 191.206H511.69V200.613H515.819C517.23 200.613 518.497 199.477 518.497 198.092C518.51 197.099 517.935 196.171 516.916 195.753V195.74ZM515.44 192.565C516.185 192.565 516.773 193.153 516.773 193.884C516.773 194.551 516.224 195.139 515.492 195.152H513.049V192.565H515.44ZM513.049 199.254V196.524H515.819C516.55 196.524 517.138 197.164 517.138 197.896C517.138 198.64 516.55 199.254 515.819 199.254H513.049ZM524.295 193.871V197.791C524.295 198.627 523.615 199.346 522.753 199.346C521.904 199.346 521.224 198.64 521.224 197.791V193.871H519.866V197.948C519.866 199.477 520.78 200.692 522.27 200.692C523.106 200.692 523.838 200.247 524.295 199.699V200.535C524.295 201.75 523.615 202.547 522.531 202.547C521.499 202.547 520.924 202.011 520.819 201.175H519.395C519.474 202.521 520.545 203.827 522.505 203.827C524.334 203.827 525.654 202.456 525.654 200.483V193.871H524.295Z" fill="white"/>
<g clip-path="url(#clip1_12166_768)">
<path fill-rule="evenodd" clip-rule="evenodd" d="M555.995 199.381C554.403 199.381 553.113 198.086 553.113 196.488C553.113 194.89 554.403 193.594 555.995 193.594C557.586 193.594 558.876 194.89 558.876 196.488C558.876 197.255 558.572 197.991 558.032 198.533C557.492 199.076 556.759 199.381 555.995 199.381ZM558.881 188.902V193.401C557.208 191.823 554.586 191.878 552.98 193.524C551.374 195.17 551.374 197.804 552.98 199.45C554.586 201.097 557.208 201.151 558.881 199.574V200.506H560.213V188.902H558.881ZM595.962 199.381C594.371 199.381 593.081 198.086 593.081 196.488C593.081 194.89 594.371 193.594 595.962 193.594C597.553 193.594 598.843 194.89 598.843 196.488C598.843 197.255 598.54 197.991 598 198.533C597.459 199.076 596.726 199.381 595.962 199.381ZM600.179 196.488V192.297H598.848V193.401C597.175 191.823 594.553 191.878 592.947 193.524C591.341 195.17 591.341 197.804 592.947 199.45C594.553 201.097 597.175 201.151 598.848 199.574V200.506H600.179V196.488H600.179ZM610.798 192.609C610.918 192.412 611.13 192.292 611.36 192.293H611.616C612.16 192.293 612.602 192.735 612.602 193.282V200.506H611.242V194.386C610.616 195.402 608.371 199.086 607.698 200.191C607.579 200.387 607.367 200.506 607.138 200.506H606.86C606.498 200.506 606.204 200.211 606.204 199.847V194.371C605.469 195.561 603.215 199.261 602.505 200.444L602.467 200.506H601.165V192.295H602.523V192.312L602.492 197.976L605.75 192.61C605.869 192.414 606.082 192.294 606.311 192.294H606.569C607.112 192.294 607.553 192.736 607.554 193.281C607.554 194.791 607.562 197.54 607.562 197.94L610.798 192.609ZM591.61 198.981C590.526 200.477 588.599 201.093 586.853 200.501C585.107 199.909 583.946 198.247 583.987 196.397C584.027 194.547 585.26 192.937 587.031 192.423C588.801 191.909 590.699 192.61 591.716 194.153L590.439 194.819C589.751 193.844 588.523 193.414 587.38 193.745C586.236 194.077 585.426 195.098 585.361 196.291C585.295 197.485 585.988 198.589 587.089 199.045C588.189 199.501 589.456 199.208 590.248 198.315L591.61 198.981ZM617.692 199.387C616.168 199.387 614.909 198.195 614.818 196.668V196.322C614.911 194.749 616.241 193.541 617.809 193.604C619.377 193.667 620.606 194.978 620.575 196.553C620.543 198.128 619.262 199.389 617.693 199.388L617.692 199.387ZM617.693 192.261C616.625 192.259 615.597 192.666 614.818 193.399V192.297H613.486V203.858H614.818V199.59C616.2 200.885 618.271 201.098 619.886 200.111C621.501 199.124 622.264 197.178 621.754 195.351C621.243 193.523 619.584 192.26 617.693 192.26V192.261ZM572.55 193.579V198.628C572.55 198.928 572.792 199.17 573.09 199.17H574.64V200.506H573.091C572.058 200.505 571.221 199.665 571.22 198.628L571.216 193.579H569.779V192.278H571.216V190.033H572.549V192.283H574.913V193.579H572.55ZM579.005 199.38C577.414 199.38 576.124 198.085 576.124 196.487C576.124 194.889 577.414 193.593 579.005 193.593C580.596 193.593 581.887 194.889 581.887 196.487C581.887 197.254 581.583 197.99 581.043 198.533C580.502 199.075 579.769 199.38 579.005 199.38ZM581.891 192.297V193.401C580.218 191.823 577.596 191.878 575.99 193.524C574.384 195.17 574.384 197.804 575.99 199.45C577.596 201.097 580.218 201.151 581.891 199.574V200.506H583.222V192.295L581.891 192.297ZM564.964 199.381C563.372 199.381 562.082 198.086 562.082 196.488C562.082 194.89 563.372 193.594 564.964 193.594C566.555 193.594 567.845 194.89 567.845 196.488C567.845 197.255 567.542 197.991 567.001 198.534C566.461 199.076 565.728 199.381 564.964 199.381ZM567.849 192.297V193.401C566.176 191.823 563.554 191.878 561.949 193.524C560.343 195.17 560.343 197.804 561.949 199.45C563.554 201.097 566.176 201.151 567.849 199.574V200.506H569.18V192.295L567.849 192.297Z" fill="white"/>
<path fill-rule="evenodd" clip-rule="evenodd" d="M540.379 189.939V194.173L535.905 196.735V187.361L540.379 189.939ZM541.826 198.834V195.018L547.817 191.585L546.36 190.747L541.826 193.344V189.515C541.825 189.255 541.687 189.015 541.463 188.884L536.005 185.743C535.99 185.734 535.976 185.726 535.961 185.719C535.637 185.561 535.254 185.581 534.949 185.773C534.643 185.966 534.458 186.303 534.459 186.665V197.429C534.457 197.791 534.643 198.129 534.948 198.321C535.254 198.514 535.637 198.535 535.962 198.377L536.003 198.355L540.375 195.849V199.264C540.376 199.524 540.515 199.765 540.74 199.895L546.351 203.092L547.809 202.253L541.826 198.834Z" fill="#03EF62"/>
</g>
<g filter="url(#filter0_dd_12166_768)">
<rect x="654" y="79" width="132.6" height="156" rx="7.79997" fill="#05192D"/>
<rect x="654" y="79" width="132.6" height="156" rx="7.79997" fill="url(#paint7_radial_12166_768)"/>
<mask id="mask1_12166_768" style="mask-type:alpha" maskUnits="userSpaceOnUse" x="654" y="211" width="133" height="24">
<rect x="654" y="211.6" width="132.6" height="23.4" fill="#D9D9D9"/>
</mask>
<g mask="url(#mask1_12166_768)">
<rect x="654" y="79" width="132.6" height="156" rx="7.79997" fill="#72E5FE"/>
<path d="M689.764 226.549H688.08L687.249 224.396H684.043L683.212 226.549H681.528L684.804 218.125H686.5L689.764 226.549ZM684.897 222.196L684.605 222.957H686.687L686.395 222.196C686.114 221.471 685.892 220.851 685.646 220.172H685.634C685.412 220.851 685.19 221.471 684.897 222.196ZM691.803 223.6H693.37C693.382 224.572 694.002 225.121 694.926 225.121C695.769 225.121 696.178 224.607 696.178 224.104C696.178 223.612 695.816 223.238 695.196 223.086L694.213 222.84C692.844 222.501 692.037 221.611 692.037 220.477C692.037 219.049 693.347 218.055 694.845 218.055C696.483 218.055 697.512 219.307 697.512 220.757H695.979C695.979 220.055 695.488 219.541 694.774 219.541C694.049 219.541 693.639 220.032 693.639 220.488C693.639 220.828 693.827 221.179 694.458 221.342L695.418 221.588C696.997 221.986 697.781 222.781 697.781 224.08C697.781 225.578 696.6 226.619 694.926 226.619C693.23 226.619 691.814 225.472 691.803 223.6ZM700.149 223.6H701.717C701.729 224.572 702.349 225.121 703.273 225.121C704.116 225.121 704.525 224.607 704.525 224.104C704.525 223.612 704.163 223.238 703.542 223.086L702.56 222.84C701.191 222.501 700.383 221.611 700.383 220.477C700.383 219.049 701.694 218.055 703.191 218.055C704.829 218.055 705.859 219.307 705.859 220.757H704.326C704.326 220.055 703.835 219.541 703.121 219.541C702.396 219.541 701.986 220.032 701.986 220.488C701.986 220.828 702.174 221.179 702.805 221.342L703.765 221.588C705.344 221.986 706.128 222.781 706.128 224.08C706.128 225.578 704.946 226.619 703.273 226.619C701.577 226.619 700.161 225.472 700.149 223.6ZM712.732 226.619C710.368 226.619 708.473 224.7 708.473 222.337C708.473 219.973 710.368 218.055 712.732 218.055C715.095 218.055 717.002 219.973 717.002 222.337C717.002 224.7 715.095 226.619 712.732 226.619ZM712.732 225.063C714.241 225.063 715.446 223.846 715.446 222.337C715.446 220.828 714.241 219.611 712.732 219.611C711.222 219.611 710.029 220.828 710.029 222.337C710.029 223.846 711.222 225.063 712.732 225.063ZM723.729 226.619C721.366 226.619 719.471 224.7 719.471 222.337C719.471 219.973 721.366 218.055 723.729 218.055C725.87 218.055 727.216 219.681 727.473 221.12H725.859C725.601 220.243 724.665 219.611 723.729 219.611C722.22 219.611 721.027 220.828 721.027 222.337C721.027 223.846 722.22 225.063 723.729 225.063C724.712 225.063 725.578 224.513 725.87 223.589H727.485C727.216 225.18 725.835 226.619 723.729 226.619ZM730.318 218.125H731.874V226.549H730.318V218.125ZM742.668 226.549H740.983L740.152 224.396H736.947L736.116 226.549H734.431L737.707 218.125H739.404L742.668 226.549ZM737.801 222.196L737.508 222.957H739.591L739.298 222.196C739.017 221.471 738.795 220.851 738.549 220.172H738.538C738.315 220.851 738.093 221.471 737.801 222.196ZM750.189 218.125V219.681H747.65V226.549H746.094V219.681H743.567V218.125H750.189ZM752.754 218.125H758.639V219.681H754.31V221.565H758.194V223.109H754.31V224.993H758.639V226.549H752.754V218.125Z" fill="#05192D"/>
</g>
<rect x="655.95" y="80.95" width="128.7" height="152.1" rx="5.84998" stroke="#72E5FE" stroke-width="3.89999"/>
<circle cx="720.3" cy="139.451" r="48.75" stroke="url(#paint8_linear_12166_768)" stroke-width="1.94999"/>
<circle cx="720.3" cy="137.499" r="27.3" fill="url(#paint9_linear_12166_768)"/>
<g filter="url(#filter1_d_12166_768)">
<circle cx="720.3" cy="137.502" r="19.5" fill="white"/>
</g>
<path fill-rule="evenodd" clip-rule="evenodd" d="M714.139 134.502C714.066 134.548 713.98 134.57 713.883 134.57C713.783 134.57 713.676 134.533 713.561 134.46C713.455 134.394 713.332 134.321 713.192 134.242C713.055 134.164 712.892 134.092 712.705 134.027C712.522 133.964 712.305 133.932 712.053 133.932C711.825 133.932 711.629 133.96 711.463 134.015C711.298 134.069 711.16 134.144 711.048 134.24C710.937 134.334 710.856 134.447 710.801 134.578C710.747 134.711 710.719 134.858 710.719 135.018C710.719 135.217 710.773 135.381 710.881 135.511C710.994 135.648 711.144 135.765 711.332 135.862C711.526 135.963 711.747 136.053 711.994 136.132C712.239 136.211 712.495 136.297 712.766 136.391C713.031 136.484 713.291 136.591 713.544 136.713C713.803 136.838 714.033 136.995 714.236 137.185C714.44 137.378 714.604 137.613 714.728 137.89C714.852 138.169 714.914 138.505 714.914 138.897C714.914 139.323 714.842 139.723 714.698 140.096C714.554 140.469 714.343 140.795 714.065 141.073C713.787 141.351 713.448 141.569 713.049 141.728C712.65 141.887 712.194 141.966 711.682 141.966C711.387 141.966 711.097 141.937 710.812 141.878C710.526 141.82 710.253 141.737 709.99 141.629C709.728 141.52 709.482 141.39 709.254 141.239C709.025 141.087 708.821 140.918 708.641 140.731L708.601 140.689L708.631 140.638L709.126 139.808C709.178 139.741 709.24 139.685 709.313 139.64C709.39 139.592 709.476 139.568 709.569 139.568C709.691 139.568 709.818 139.617 709.952 139.712C710.075 139.8 710.217 139.897 710.379 140.001C710.541 140.104 710.732 140.199 710.951 140.284C711.166 140.368 711.426 140.41 711.732 140.41C712.198 140.41 712.554 140.3 712.803 140.081C713.049 139.864 713.173 139.553 713.173 139.14C713.173 138.914 713.118 138.732 713.01 138.594C712.898 138.449 712.748 138.328 712.559 138.228C712.367 138.126 712.147 138.04 711.901 137.969C711.648 137.896 711.392 137.817 711.131 137.732C710.867 137.646 710.608 137.542 710.355 137.422C710.096 137.299 709.864 137.139 709.662 136.942C709.457 136.744 709.293 136.496 709.17 136.199C709.046 135.902 708.985 135.538 708.985 135.107C708.985 134.761 709.053 134.423 709.188 134.095C709.325 133.766 709.523 133.475 709.784 133.221C710.045 132.967 710.365 132.764 710.742 132.612C711.12 132.459 711.551 132.383 712.034 132.383C712.579 132.383 713.083 132.47 713.544 132.643C714.006 132.816 714.401 133.06 714.727 133.374L714.768 133.413L714.327 134.274C714.275 134.379 714.213 134.455 714.139 134.502ZM721.166 141.921C720.938 141.951 720.701 141.966 720.455 141.966C719.758 141.966 719.12 141.846 718.543 141.606C717.965 141.366 717.471 141.032 717.059 140.603C716.647 140.175 716.328 139.667 716.102 139.081C715.877 138.496 715.764 137.86 715.764 137.174C715.764 136.489 715.877 135.853 716.102 135.268C716.328 134.682 716.647 134.174 717.059 133.746C717.471 133.317 717.965 132.983 718.543 132.743C719.12 132.503 719.757 132.383 720.455 132.383C721.152 132.383 721.789 132.504 722.364 132.746C722.939 132.988 723.432 133.323 723.842 133.749C724.251 134.175 724.569 134.682 724.795 135.268C725.021 135.853 725.133 136.489 725.133 137.174C725.133 137.592 725.091 137.993 725.006 138.375C724.921 138.757 724.798 139.115 724.638 139.448C724.479 139.781 724.284 140.087 724.053 140.366C723.841 140.623 723.601 140.852 723.334 141.053L725.701 143.67H724.134C723.925 143.67 723.735 143.641 723.566 143.583C723.392 143.523 723.234 143.414 723.091 143.256L721.789 141.797C721.586 141.851 721.379 141.892 721.166 141.921ZM723.246 137.175C723.246 136.676 723.182 136.231 723.052 135.837C722.923 135.445 722.739 135.112 722.499 134.839C722.259 134.567 721.967 134.359 721.623 134.215C721.279 134.07 720.889 133.997 720.454 133.997C720.019 133.997 719.629 134.07 719.282 134.215C718.936 134.359 718.642 134.567 718.4 134.84C718.158 135.112 717.971 135.445 717.841 135.837C717.709 136.23 717.643 136.676 717.643 137.175C717.643 137.673 717.709 138.119 717.841 138.512C717.971 138.905 718.158 139.236 718.4 139.506C718.642 139.777 718.936 139.984 719.282 140.128C719.629 140.273 720.019 140.346 720.454 140.346C720.889 140.346 721.279 140.273 721.623 140.128C721.967 139.984 722.259 139.777 722.499 139.506C722.739 139.236 722.923 138.905 723.052 138.513C723.182 138.119 723.246 137.673 723.246 137.175ZM732 140.296V141.865H726.517V132.486H728.359V140.296H732Z" fill="#05192D"/>
<g clip-path="url(#clip2_12166_768)">
<path fill-rule="evenodd" clip-rule="evenodd" d="M696.606 173.349V175.991L693.88 177.59V171.741L696.606 173.349ZM697.488 178.9V176.519L701.138 174.377L700.25 173.854L697.488 175.474V173.085C697.487 172.923 697.403 172.773 697.266 172.691L693.942 170.731C693.933 170.726 693.924 170.721 693.915 170.716C693.717 170.618 693.484 170.63 693.298 170.75C693.112 170.87 692.999 171.08 693 171.306V178.023C692.999 178.249 693.112 178.46 693.298 178.58C693.484 178.701 693.718 178.714 693.915 178.615L693.941 178.601L696.604 177.037V179.168C696.604 179.331 696.689 179.481 696.826 179.562L700.244 181.557L701.132 181.034L697.488 178.9Z" fill="#03EF62"/>
</g>
<path d="M708.619 180.148C710.4 180.148 711.662 179.003 712.012 177.529H710.846C710.506 178.473 709.626 179.045 708.619 179.045C707.081 179.045 705.893 177.805 705.893 176.267C705.893 174.729 707.081 173.489 708.619 173.489C709.541 173.489 710.527 174.114 710.814 174.995H711.98C711.662 173.616 710.358 172.386 708.619 172.386C706.477 172.386 704.791 174.125 704.791 176.267C704.791 178.409 706.477 180.148 708.619 180.148Z" fill="white"/>
<path d="M718.011 177.688C718.022 177.571 718.033 177.434 718.033 177.285C718.033 175.79 716.951 174.549 715.488 174.549C713.982 174.549 712.868 175.79 712.868 177.349C712.868 178.939 713.96 180.148 715.541 180.148C717.227 180.148 717.852 178.855 717.937 178.335H716.802C716.696 178.653 716.304 179.151 715.541 179.151C714.607 179.151 714.098 178.505 714.003 177.688H718.011ZM715.488 175.546C716.304 175.546 716.792 176.129 716.908 176.861H714.035C714.173 176.119 714.671 175.546 715.488 175.546Z" fill="white"/>
<path d="M721.758 174.549C721.09 174.549 720.592 174.857 720.306 175.334V174.613H719.203V180.085H720.306V177.147C720.306 176.097 720.889 175.631 721.716 175.631C721.96 175.631 722.161 175.663 722.289 175.684V174.581C722.161 174.57 722.013 174.549 721.758 174.549Z" fill="white"/>
<path d="M725.394 179.12C724.991 179.12 724.726 178.939 724.726 178.483V175.578H726.125V174.613H724.726V173.065H723.623V174.613H722.69V175.578H723.623V178.505C723.623 179.618 724.227 180.148 725.192 180.148C725.574 180.148 725.935 180.021 726.125 179.947V178.918C725.988 178.982 725.68 179.12 725.394 179.12Z" fill="white"/>
<path d="M727.811 173.839C728.257 173.839 728.628 173.489 728.628 173.043C728.628 172.598 728.267 172.248 727.811 172.248C727.366 172.248 727.016 172.598 727.016 173.043C727.016 173.489 727.366 173.839 727.811 173.839ZM728.352 174.613H727.249V180.085H728.352V174.613Z" fill="white"/>
<path d="M731.468 174.613V174.104C731.468 173.637 731.786 173.425 732.179 173.425C732.444 173.425 732.688 173.489 732.836 173.552V172.534C732.667 172.471 732.295 172.386 731.882 172.386C730.949 172.386 730.365 173.086 730.365 174.083V174.613H729.485V175.578H730.365V180.085H731.468V175.578H732.879V174.613H731.468Z" fill="white"/>
<path d="M734.46 173.839C734.905 173.839 735.276 173.489 735.276 173.043C735.276 172.598 734.916 172.248 734.46 172.248C734.014 172.248 733.664 172.598 733.664 173.043C733.664 173.489 734.014 173.839 734.46 173.839ZM735 174.613H733.898V180.085H735V174.613Z" fill="white"/>
<path d="M741.395 177.688C741.405 177.571 741.416 177.434 741.416 177.285C741.416 175.79 740.334 174.549 738.871 174.549C737.365 174.549 736.251 175.79 736.251 177.349C736.251 178.939 737.344 180.148 738.924 180.148C740.61 180.148 741.236 178.855 741.32 178.335H740.186C740.08 178.653 739.687 179.151 738.924 179.151C737.991 179.151 737.482 178.505 737.386 177.688H741.395ZM738.871 175.546C739.687 175.546 740.175 176.129 740.292 176.861H737.418C737.556 176.119 738.054 175.546 738.871 175.546Z" fill="white"/>
<path d="M746.497 172.45V175.451C746.147 174.931 745.511 174.549 744.768 174.549C743.485 174.549 742.372 175.737 742.372 177.349C742.372 178.961 743.485 180.148 744.768 180.148C745.511 180.148 746.104 179.862 746.497 179.247V180.085H747.6V172.45H746.497ZM745.023 179.077C744.121 179.077 743.475 178.303 743.475 177.349C743.475 176.394 744.121 175.631 745.023 175.631C745.924 175.631 746.497 176.394 746.497 177.349C746.497 178.303 745.924 179.077 745.023 179.077Z" fill="white"/>
<path d="M705.934 194.817H708.024C708.04 196.112 708.866 196.845 710.099 196.845C711.222 196.845 711.768 196.158 711.768 195.488C711.768 194.832 711.284 194.333 710.458 194.13L709.147 193.803C707.322 193.35 706.246 192.165 706.246 190.652C706.246 188.748 707.993 187.422 709.99 187.422C712.174 187.422 713.546 189.092 713.546 191.026H711.503C711.503 190.09 710.848 189.404 709.896 189.404C708.929 189.404 708.383 190.059 708.383 190.667C708.383 191.12 708.632 191.588 709.475 191.806L710.754 192.134C712.86 192.664 713.905 193.725 713.905 195.456C713.905 197.453 712.33 198.842 710.099 198.842C707.837 198.842 705.949 197.313 705.934 194.817ZM725.014 196.782L726.34 198.358L724.873 199.622L723.532 198.046C722.689 198.545 721.691 198.842 720.63 198.842C717.479 198.842 714.952 196.283 714.952 193.132C714.952 189.981 717.479 187.422 720.63 187.422C723.781 187.422 726.324 189.981 726.324 193.132C726.324 194.52 725.825 195.8 725.014 196.782ZM720.63 196.767C721.176 196.767 721.706 196.642 722.159 196.424L719.647 193.46L721.114 192.196L723.641 195.16C724.015 194.583 724.249 193.881 724.249 193.132C724.249 191.12 722.642 189.497 720.63 189.497C718.618 189.497 717.026 191.12 717.026 193.132C717.026 195.144 718.618 196.767 720.63 196.767ZM730.172 187.516V196.673H735.008V198.748H728.097V187.516H730.172Z" fill="white"/>
</g>
</g>
<defs>
<filter id="filter0_dd_12166_768" x="648.15" y="75.1" width="144.3" height="167.7" filterUnits="userSpaceOnUse" color-interpolation-filters="sRGB">
<feFlood flood-opacity="0" result="BackgroundImageFix"/>
<feColorMatrix in="SourceAlpha" type="matrix" values="0 0 0 0 0 0 0 0 0 0 0 0 0 0 0 0 0 0 127 0" result="hardAlpha"/>
<feMorphology radius="1.94999" operator="erode" in="SourceAlpha" result="effect1_dropShadow_12166_768"/>
<feOffset dy="1.94999"/>
<feGaussianBlur stdDeviation="3.89999"/>
<feColorMatrix type="matrix" values="0 0 0 0 0.0196078 0 0 0 0 0.0980392 0 0 0 0 0.176471 0 0 0 0.3 0"/>
<feBlend mode="normal" in2="BackgroundImageFix" result="effect1_dropShadow_12166_768"/>
<feColorMatrix in="SourceAlpha" type="matrix" values="0 0 0 0 0 0 0 0 0 0 0 0 0 0 0 0 0 0 127 0" result="hardAlpha"/>
<feOffset/>
<feGaussianBlur stdDeviation="0.974996"/>
<feColorMatrix type="matrix" values="0 0 0 0 0.0196078 0 0 0 0 0.0980392 0 0 0 0 0.176471 0 0 0 0.3 0"/>
<feBlend mode="normal" in2="effect1_dropShadow_12166_768" result="effect2_dropShadow_12166_768"/>
<feBlend mode="normal" in="SourceGraphic" in2="effect2_dropShadow_12166_768" result="shape"/>
</filter>
<filter id="filter1_d_12166_768" x="667.175" y="111.277" width="106.251" height="106.251" filterUnits="userSpaceOnUse" color-interpolation-filters="sRGB">
<feFlood flood-opacity="0" result="BackgroundImageFix"/>
<feColorMatrix in="SourceAlpha" type="matrix" values="0 0 0 0 0 0 0 0 0 0 0 0 0 0 0 0 0 0 127 0" result="hardAlpha"/>
<feOffset dy="26.9005"/>
<feGaussianBlur stdDeviation="16.8128"/>
<feComposite in2="hardAlpha" operator="out"/>
<feColorMatrix type="matrix" values="0 0 0 0 0 0 0 0 0 0.0313726 0 0 0 0 0.12549 0 0 0 1 0"/>
<feBlend mode="normal" in2="BackgroundImageFix" result="effect1_dropShadow_12166_768"/>
<feBlend mode="normal" in="SourceGraphic" in2="effect1_dropShadow_12166_768" result="shape"/>
</filter>
<linearGradient id="paint0_linear_12166_768" x1="15.3721" y1="31.5278" x2="63.3101" y2="233.778" gradientUnits="userSpaceOnUse">
<stop stop-color="#72E5FE"/>
<stop offset="1" stop-color="#05192D"/>
</linearGradient>
<linearGradient id="paint1_linear_12166_768" x1="6.45462" y1="-3.00194" x2="159.596" y2="-32.8697" gradientUnits="userSpaceOnUse">
<stop stop-color="#72E5FE"/>
<stop offset="1" stop-color="#05192D"/>
</linearGradient>
<linearGradient id="paint2_linear_12166_768" x1="26.3145" y1="74.7854" x2="205.343" y2="74.7854" gradientUnits="userSpaceOnUse">
<stop stop-color="#72E5FE"/>
<stop offset="1" stop-color="#05192D"/>
</linearGradient>
<linearGradient id="paint3_linear_12166_768" x1="322.8" y1="-95.0534" x2="274.208" y2="66.2289" gradientUnits="userSpaceOnUse">
<stop stop-color="#72E5FE"/>
<stop offset="1" stop-color="#05192D"/>
</linearGradient>
<linearGradient id="paint4_linear_12166_768" x1="5.29248" y1="85.7383" x2="-20.1115" y2="-85.209" gradientUnits="userSpaceOnUse">
<stop stop-color="#72E5FE"/>
<stop offset="1" stop-color="#05192D"/>
</linearGradient>
<linearGradient id="paint5_linear_12166_768" x1="184.842" y1="379.033" x2="434.128" y2="480.797" gradientUnits="userSpaceOnUse">
<stop stop-color="#72E5FE"/>
<stop offset="1" stop-color="#05192D"/>
</linearGradient>
<linearGradient id="paint6_linear_12166_768" x1="186.274" y1="281.355" x2="197.623" y2="169.023" gradientUnits="userSpaceOnUse">
<stop stop-color="#72E5FE"/>
<stop offset="1" stop-color="#05192D"/>
</linearGradient>
<radialGradient id="paint7_radial_12166_768" cx="0" cy="0" r="1" gradientUnits="userSpaceOnUse" gradientTransform="translate(720.3 157) rotate(90) scale(83.85 71.2725)">
<stop stop-color="#213147"/>
<stop offset="1" stop-color="#213147" stop-opacity="0"/>
</radialGradient>
<linearGradient id="paint8_linear_12166_768" x1="720.3" y1="90.7012" x2="720.3" y2="160.779" gradientUnits="userSpaceOnUse">
<stop stop-color="#72E5FE"/>
<stop offset="1" stop-color="#72E5FE" stop-opacity="0"/>
</linearGradient>
<linearGradient id="paint9_linear_12166_768" x1="720.3" y1="110.199" x2="720.3" y2="164.799" gradientUnits="userSpaceOnUse">
<stop stop-color="white" stop-opacity="0.24"/>
<stop offset="1" stop-color="#DADADA" stop-opacity="0"/>
</linearGradient>
<clipPath id="clip0_12166_768">
<rect width="851" height="315" fill="white"/>
</clipPath>
<clipPath id="clip1_12166_768">
<rect width="87.5415" height="18.2922" fill="white" transform="translate(534.458 185.613)"/>
</clipPath>
<clipPath id="clip2_12166_768">
<rect width="8.32298" height="11.0973" fill="white" transform="translate(693 170.65)"/>
</clipPath>
</defs>
</svg>
