<svg width="1500" height="500" viewBox="0 0 1500 500" fill="none" xmlns="http://www.w3.org/2000/svg">
<g clip-path="url(#clip0_12166_806)">
<rect width="1500" height="500" fill="#05192D"/>
<mask id="mask0_12166_806" style="mask-type:alpha" maskUnits="userSpaceOnUse" x="0" y="0" width="1500" height="500">
<rect width="1500" height="500" fill="#05192D"/>
</mask>
<g mask="url(#mask0_12166_806)">
<path d="M-1.09473 332V332C32.2805 332 59.3364 304.944 59.3364 271.569L59.3364 -4.31239L-1.09476 -4.31238" stroke="url(#paint0_linear_12166_806)" stroke-width="1.95036"/>
<rect x="-6.34912" y="-4.76367" width="284.395" height="112.951" stroke="url(#paint1_linear_12166_806)" stroke-width="1.95036"/>
<circle cx="279.054" cy="109.193" r="77.654" stroke="url(#paint2_linear_12166_806)" stroke-width="1.95036"/>
<path d="M525 33.245C525 67.6825 552.917 95.5996 587.355 95.5996L930.972 95.5997L930.972 -5.38841L525 -5.38849L525 33.245Z" stroke="url(#paint3_linear_12166_806)" stroke-width="1.94858"/>
<rect width="181.457" height="189.857" rx="90.7283" transform="matrix(1 9.20383e-08 8.30387e-08 -1 840.369 95.5996)" stroke="url(#paint4_linear_12166_806)" stroke-width="1.94858"/>
<path d="M733.38 458.627C733.38 433.189 712.759 412.568 687.322 412.568L182.54 412.568L182.54 533.605L733.38 533.605L733.38 458.627Z" stroke="url(#paint5_linear_12166_806)" stroke-width="1.91911"/>
<path d="M380.522 353.213C380.522 315.057 349.591 284.125 311.435 284.125L182.54 284.125L182.54 454.801L380.522 454.801L380.522 353.213Z" stroke="url(#paint6_linear_12166_806)" stroke-width="1.91911"/>
</g>
<path d="M873.034 215.727C862.954 215.727 854.869 207.543 854.869 197.462C854.869 187.382 862.954 179.197 873.034 179.197C882.167 179.197 887.906 186.134 889.003 192.272H882.117C881.019 188.529 877.026 185.835 873.034 185.835C866.597 185.835 861.506 191.025 861.506 197.462C861.506 203.9 866.597 209.09 873.034 209.09C877.226 209.09 880.919 206.744 882.167 202.802H889.053C887.906 209.589 882.017 215.727 873.034 215.727ZM917.39 204.399H899.674C900.073 207.443 901.869 209.888 905.712 209.888C908.307 209.888 909.904 208.391 910.403 206.994H917.04C916.741 209.24 913.946 215.727 905.712 215.727C898.276 215.727 892.787 210.138 892.787 202.552C892.787 195.117 898.426 189.378 905.512 189.378C912.2 189.378 917.489 195.266 917.489 202.453C917.489 203.201 917.439 203.95 917.39 204.399ZM905.512 195.217C902.368 195.217 900.472 197.213 899.873 199.957H910.752C910.203 197.213 908.507 195.217 905.512 195.217ZM936.024 189.378C937.322 189.378 938.27 189.527 938.869 189.577V196.215C938.27 196.115 936.972 195.865 935.325 195.865C931.483 195.865 929.038 197.911 929.038 202.652V215.428H922.4V189.677H929.038V193.121C930.585 190.575 933.08 189.378 936.024 189.378ZM954.494 209.639C955.492 209.639 956.54 209.389 957.438 209.14V215.029C956.041 215.428 954.444 215.727 952.997 215.727C947.907 215.727 944.713 213.082 944.713 207.044V195.466H940.521V189.677H944.713V182.341H951.35V189.677H957.438V195.466H951.35V206.894C951.35 208.89 952.648 209.639 954.494 209.639ZM965.754 186.833C963.258 186.833 961.312 184.836 961.312 182.341C961.312 179.896 963.258 177.95 965.754 177.95C968.249 177.95 970.295 179.896 970.295 182.341C970.295 184.836 968.149 186.833 965.754 186.833ZM969.047 189.677V215.428H962.41V189.677H969.047ZM984.644 189.677H990.732V195.466H984.644V215.428H978.007V195.466H973.865V189.677H978.007V188.03C978.007 182.89 980.751 179.197 985.692 179.197C987.938 179.197 989.784 179.646 990.333 179.846V185.685C990.034 185.585 988.936 185.286 987.788 185.286C986.041 185.286 984.644 185.984 984.644 188.08V189.677ZM998.455 186.833C995.959 186.833 994.013 184.836 994.013 182.341C994.013 179.896 995.959 177.95 998.455 177.95C1000.95 177.95 1003 179.896 1003 182.341C1003 184.836 1000.85 186.833 998.455 186.833ZM1001.75 189.677V215.428H995.111V189.677H1001.75ZM1031.43 204.399H1013.71C1014.11 207.443 1015.91 209.888 1019.75 209.888C1022.35 209.888 1023.94 208.391 1024.44 206.994H1031.08C1030.78 209.24 1027.98 215.727 1019.75 215.727C1012.32 215.727 1006.83 210.138 1006.83 202.552C1006.83 195.117 1012.46 189.378 1019.55 189.378C1026.24 189.378 1031.53 195.266 1031.53 202.453C1031.53 203.201 1031.48 203.95 1031.43 204.399ZM1019.55 195.217C1016.41 195.217 1014.51 197.213 1013.91 199.957H1024.79C1024.24 197.213 1022.55 195.217 1019.55 195.217ZM1054.14 179.497H1060.78V215.428H1054.14V211.934C1052.4 214.629 1049.75 215.727 1046.71 215.727C1040.67 215.727 1035.58 210.288 1035.58 202.552C1035.58 194.817 1040.67 189.378 1046.71 189.378C1049.75 189.378 1052.5 190.975 1054.14 193.17V179.497ZM1048.2 209.14C1051.6 209.14 1054.14 206.195 1054.14 202.552C1054.14 198.909 1051.6 195.965 1048.2 195.965C1044.86 195.965 1042.17 198.909 1042.17 202.552C1042.17 206.195 1044.86 209.14 1048.2 209.14ZM1099.56 192.971V189.677H1106.2V215.428H1099.56V212.134C1097.62 214.33 1095.02 215.727 1092.03 215.727C1085.89 215.727 1081 209.838 1081 202.552C1081 195.266 1085.89 189.378 1092.03 189.378C1095.02 189.378 1097.67 190.775 1099.56 192.971ZM1093.63 209.14C1096.97 209.14 1099.56 206.195 1099.56 202.552C1099.56 198.909 1096.97 196.015 1093.63 196.015C1090.28 196.015 1087.59 198.909 1087.59 202.552C1087.59 206.195 1090.28 209.14 1093.63 209.14ZM1111.2 206.744H1117.84C1117.89 208.84 1119.59 210.038 1121.63 210.038C1123.38 210.038 1124.78 209.19 1124.78 207.792C1124.78 206.495 1123.78 205.896 1121.78 205.397L1118.64 204.648C1113.8 203.451 1111.85 200.706 1111.85 197.013C1111.85 192.522 1115.85 189.378 1121.43 189.378C1126.97 189.378 1130.52 193.67 1130.52 197.812H1124.63C1124.58 195.965 1123.23 194.668 1121.38 194.668C1119.54 194.668 1118.39 195.616 1118.39 196.913C1118.39 197.961 1119.04 198.61 1120.34 198.909L1123.83 199.708C1128.87 200.856 1131.42 203.7 1131.32 207.343C1131.22 212.633 1126.97 215.727 1121.33 215.727C1114.75 215.727 1111.25 210.936 1111.2 206.744ZM792.248 264.852H798.935C798.985 268.994 801.63 271.339 805.572 271.339C809.165 271.339 810.912 269.144 810.912 266.998C810.912 264.902 809.365 263.305 806.72 262.656L802.528 261.608C796.689 260.161 793.246 256.368 793.246 251.527C793.246 245.439 798.835 241.197 805.223 241.197C812.209 241.197 816.601 246.537 816.601 252.725H810.063C810.063 249.731 807.967 247.535 804.923 247.535C801.829 247.535 800.082 249.631 800.082 251.577C800.082 253.025 800.881 254.522 803.576 255.22L807.668 256.268C814.405 257.965 817.749 261.359 817.749 266.898C817.749 273.286 812.708 277.727 805.572 277.727C798.336 277.727 792.297 272.837 792.248 264.852ZM853.284 271.14L857.526 276.18L852.835 280.222L848.543 275.182C845.848 276.779 842.655 277.727 839.261 277.727C829.181 277.727 821.096 269.543 821.096 259.462C821.096 249.382 829.181 241.197 839.261 241.197C849.342 241.197 857.476 249.382 857.476 259.462C857.476 263.904 855.879 267.996 853.284 271.14ZM839.261 271.09C841.008 271.09 842.705 270.691 844.152 269.992L836.117 260.51L840.808 256.468L848.893 265.95C850.09 264.103 850.839 261.858 850.839 259.462C850.839 253.025 845.699 247.835 839.261 247.835C832.824 247.835 827.733 253.025 827.733 259.462C827.733 265.9 832.824 271.09 839.261 271.09ZM869.785 241.497V270.79H885.255V277.428H863.147V241.497H869.785ZM936.46 277.428H929.274L925.731 268.245H912.057L908.514 277.428H901.328L915.301 241.497H922.537L936.46 277.428ZM915.7 258.863L914.453 262.107H923.336L922.088 258.863C920.89 255.769 919.942 253.124 918.894 250.23H918.844C917.896 253.124 916.948 255.769 915.7 258.863ZM938.538 268.744H945.175C945.225 270.84 946.922 272.038 948.968 272.038C950.715 272.038 952.112 271.19 952.112 269.792C952.112 268.495 951.114 267.896 949.118 267.397L945.974 266.648C941.133 265.451 939.187 262.706 939.187 259.013C939.187 254.522 943.179 251.378 948.768 251.378C954.308 251.378 957.851 255.67 957.851 259.812H951.962C951.912 257.965 950.565 256.668 948.718 256.668C946.872 256.668 945.724 257.616 945.724 258.913C945.724 259.961 946.373 260.61 947.67 260.909L951.164 261.708C956.204 262.856 958.749 265.7 958.649 269.343C958.55 274.633 954.308 277.727 948.669 277.727C942.081 277.727 938.588 272.936 938.538 268.744ZM961.931 268.744H968.568C968.618 270.84 970.314 272.038 972.361 272.038C974.107 272.038 975.505 271.19 975.505 269.792C975.505 268.495 974.506 267.896 972.51 267.397L969.366 266.648C964.526 265.451 962.579 262.706 962.579 259.013C962.579 254.522 966.572 251.378 972.161 251.378C977.7 251.378 981.243 255.67 981.243 259.812H975.355C975.305 257.965 973.957 256.668 972.111 256.668C970.265 256.668 969.117 257.616 969.117 258.913C969.117 259.961 969.766 260.61 971.063 260.909L974.556 261.708C979.597 262.856 982.142 265.7 982.042 269.343C981.942 274.633 977.7 277.727 972.061 277.727C965.474 277.727 961.98 272.936 961.931 268.744ZM998.548 277.727C991.461 277.727 985.772 271.838 985.772 264.552C985.772 257.266 991.461 251.378 998.548 251.378H998.598C1005.63 251.378 1011.32 257.316 1011.32 264.552C1011.32 271.789 1005.63 277.727 998.598 277.727H998.548ZM998.548 271.14H998.598C1002.04 271.14 1004.69 268.146 1004.69 264.552C1004.69 260.959 1001.99 257.965 998.598 257.965H998.548C995.054 258.015 992.36 260.959 992.36 264.552C992.36 268.146 995.054 271.14 998.548 271.14ZM1040.01 261.259H1033.27C1032.62 259.063 1030.48 257.666 1028.13 257.666C1024.24 257.666 1021.94 260.959 1021.94 264.552C1021.94 268.146 1024.44 271.439 1028.13 271.439C1030.67 271.439 1032.87 269.842 1033.32 267.846H1039.91C1039.71 271.639 1035.12 277.727 1028.13 277.727C1021.04 277.727 1015.35 271.838 1015.35 264.552C1015.35 257.266 1021.04 251.378 1028.13 251.378C1035.86 251.378 1039.71 257.217 1040.01 261.259ZM1048.46 248.833C1045.96 248.833 1044.01 246.836 1044.01 244.341C1044.01 241.896 1045.96 239.95 1048.46 239.95C1050.95 239.95 1053 241.896 1053 244.341C1053 246.836 1050.85 248.833 1048.46 248.833ZM1051.75 251.677V277.428H1045.11V251.677H1051.75ZM1075.39 254.971V251.677H1082.03V277.428H1075.39V274.134C1073.45 276.33 1070.85 277.727 1067.86 277.727C1061.72 277.727 1056.83 271.838 1056.83 264.552C1056.83 257.266 1061.72 251.378 1067.86 251.378C1070.85 251.378 1073.5 252.775 1075.39 254.971ZM1069.45 271.14C1072.8 271.14 1075.39 268.195 1075.39 264.552C1075.39 260.909 1072.8 258.015 1069.45 258.015C1066.11 258.015 1063.41 260.909 1063.41 264.552C1063.41 268.195 1066.11 271.14 1069.45 271.14ZM1100.36 271.639C1101.35 271.639 1102.4 271.389 1103.3 271.14V277.029C1101.9 277.428 1100.31 277.727 1098.86 277.727C1093.77 277.727 1090.58 275.082 1090.58 269.044V257.466H1086.38V251.677H1090.58V244.341H1097.21V251.677H1103.3V257.466H1097.21V268.894C1097.21 270.89 1098.51 271.639 1100.36 271.639ZM1130.9 266.399H1113.18C1113.58 269.443 1115.38 271.888 1119.22 271.888C1121.81 271.888 1123.41 270.391 1123.91 268.994H1130.55C1130.25 271.24 1127.45 277.727 1119.22 277.727C1111.78 277.727 1106.29 272.138 1106.29 264.552C1106.29 257.117 1111.93 251.378 1119.02 251.378C1125.71 251.378 1131 257.266 1131 264.453C1131 265.201 1130.95 265.95 1130.9 266.399ZM1119.02 257.217C1115.87 257.217 1113.98 259.213 1113.38 261.957H1124.26C1123.71 259.213 1122.01 257.217 1119.02 257.217Z" fill="white"/>
<path d="M949.166 316.047C950.4 315.361 951.291 314.035 951.291 312.527C951.291 310.104 949.12 308.115 946.583 308.115H940.023V324.572H947.246C949.714 324.572 951.931 322.584 951.931 320.161C951.954 318.424 950.948 316.801 949.166 316.07V316.047ZM946.583 310.492C947.886 310.492 948.914 311.521 948.914 312.801C948.914 313.967 947.954 314.995 946.674 315.018H942.4V310.492H946.583ZM942.4 322.195V317.418H947.246C948.526 317.418 949.554 318.538 949.554 319.818C949.554 321.121 948.526 322.195 947.246 322.195H942.4ZM962.073 312.778V319.635C962.073 321.098 960.885 322.355 959.376 322.355C957.891 322.355 956.702 321.121 956.702 319.635V312.778H954.325V319.909C954.325 322.584 955.925 324.709 958.531 324.709C959.993 324.709 961.273 323.932 962.073 322.972V324.435C962.073 326.561 960.885 327.955 958.988 327.955C957.182 327.955 956.176 327.018 955.993 325.555H953.502C953.639 327.909 955.513 330.195 958.942 330.195C962.142 330.195 964.45 327.795 964.45 324.344V312.778H962.073Z" fill="white"/>
<g clip-path="url(#clip1_12166_806)">
<path fill-rule="evenodd" clip-rule="evenodd" d="M1017.53 323.657C1014.75 323.657 1012.49 321.391 1012.49 318.595C1012.49 315.8 1014.75 313.534 1017.53 313.534C1020.32 313.534 1022.57 315.8 1022.57 318.595C1022.57 319.938 1022.04 321.225 1021.1 322.174C1020.15 323.124 1018.87 323.657 1017.53 323.657ZM1022.58 305.326V313.195C1019.66 310.435 1015.07 310.531 1012.26 313.411C1009.45 316.291 1009.45 320.898 1012.26 323.778C1015.07 326.658 1019.66 326.754 1022.58 323.994V325.625H1024.91V305.326H1022.58ZM1087.45 323.657C1084.67 323.657 1082.41 321.391 1082.41 318.595C1082.41 315.8 1084.67 313.534 1087.45 313.534C1090.23 313.534 1092.49 315.8 1092.49 318.595C1092.49 319.938 1091.96 321.225 1091.01 322.174C1090.07 323.124 1088.79 323.657 1087.45 323.657ZM1094.83 318.595V311.265H1092.5V313.195C1089.57 310.435 1084.99 310.531 1082.18 313.411C1079.37 316.291 1079.37 320.898 1082.18 323.778C1084.99 326.658 1089.57 326.754 1092.5 323.994V325.625H1094.83V318.595H1094.83ZM1113.4 311.81C1113.61 311.466 1113.99 311.256 1114.39 311.257H1114.84C1115.79 311.257 1116.56 312.032 1116.56 312.988V325.625H1114.18V314.919C1113.08 316.697 1109.16 323.141 1107.98 325.074C1107.77 325.417 1107.4 325.626 1107 325.625H1106.52C1105.88 325.625 1105.37 325.109 1105.37 324.472V314.892C1104.08 316.974 1100.14 323.447 1098.9 325.517L1098.83 325.625H1096.55V311.261H1098.93V311.291L1098.87 321.199L1104.57 311.813C1104.78 311.469 1105.15 311.26 1105.55 311.26H1106.01C1106.96 311.26 1107.73 312.032 1107.73 312.986C1107.73 315.627 1107.74 320.437 1107.74 321.137L1113.4 311.81ZM1079.84 322.957C1077.94 325.575 1074.57 326.652 1071.52 325.616C1068.46 324.581 1066.43 321.673 1066.5 318.437C1066.57 315.2 1068.73 312.385 1071.83 311.486C1074.92 310.587 1078.24 311.812 1080.02 314.511L1077.79 315.677C1076.58 313.972 1074.44 313.218 1072.44 313.798C1070.44 314.378 1069.02 316.165 1068.91 318.252C1068.79 320.34 1070 322.272 1071.93 323.07C1073.85 323.867 1076.07 323.354 1077.45 321.792L1079.84 322.957ZM1125.46 323.668C1122.8 323.667 1120.6 321.582 1120.44 318.911V318.305C1120.6 315.554 1122.93 313.44 1125.67 313.551C1128.41 313.661 1130.56 315.954 1130.51 318.71C1130.45 321.465 1128.21 323.67 1125.47 323.67L1125.46 323.668ZM1125.47 311.201C1123.6 311.198 1121.8 311.91 1120.44 313.192V311.265H1118.11V331.489H1120.44V324.023C1122.85 326.288 1126.48 326.66 1129.3 324.934C1132.13 323.207 1133.46 319.804 1132.57 316.606C1131.68 313.409 1128.77 311.199 1125.47 311.2V311.201ZM1046.49 313.507V322.34C1046.49 322.864 1046.92 323.289 1047.44 323.289H1050.15V325.625H1047.44C1045.63 325.624 1044.17 324.154 1044.17 322.34L1044.16 313.507H1041.65V311.231H1044.16V307.304H1046.49V311.24H1050.63V313.507H1046.49ZM1057.79 323.656C1055 323.656 1052.75 321.389 1052.75 318.594C1052.75 315.798 1055 313.532 1057.79 313.532C1060.57 313.532 1062.83 315.798 1062.83 318.594C1062.83 319.936 1062.3 321.224 1061.35 322.173C1060.41 323.122 1059.12 323.656 1057.79 323.656ZM1062.83 311.264V313.195C1059.91 310.435 1055.32 310.531 1052.51 313.411C1049.7 316.291 1049.7 320.898 1052.51 323.778C1055.32 326.658 1059.91 326.754 1062.83 323.994V325.625H1065.16V311.261L1062.83 311.264ZM1033.22 323.657C1030.44 323.657 1028.18 321.391 1028.18 318.595C1028.18 315.8 1030.44 313.534 1033.22 313.534C1036.01 313.534 1038.26 315.8 1038.26 318.595C1038.26 319.938 1037.73 321.226 1036.79 322.175C1035.84 323.124 1034.56 323.657 1033.22 323.657ZM1038.27 311.265V313.195C1035.35 310.435 1030.76 310.531 1027.95 313.411C1025.14 316.291 1025.14 320.898 1027.95 323.778C1030.76 326.658 1035.35 326.754 1038.27 323.994V325.625H1040.6V311.261L1038.27 311.265Z" fill="white"/>
<path fill-rule="evenodd" clip-rule="evenodd" d="M990.215 307.139V314.546L982.388 319.028V302.629L990.215 307.139ZM992.748 322.7V316.025L1003.23 310.019L1000.68 308.552L992.748 313.096V306.398C992.746 305.942 992.504 305.522 992.112 305.294L982.564 299.799C982.539 299.783 982.513 299.77 982.488 299.757C981.92 299.48 981.251 299.516 980.716 299.852C980.182 300.189 979.858 300.778 979.859 301.411V320.241C979.857 320.876 980.181 321.466 980.716 321.803C981.251 322.141 981.921 322.177 982.489 321.9L982.561 321.863L990.209 317.478V323.451C990.211 323.908 990.454 324.329 990.848 324.556L1000.66 330.149L1003.21 328.681L992.748 322.7Z" fill="#03EF62"/>
</g>
<g filter="url(#filter0_dd_12166_806)">
<rect x="1189" y="114" width="231.2" height="272" rx="13.6" fill="#05192D"/>
<rect x="1189" y="114" width="231.2" height="272" rx="13.6" fill="url(#paint7_radial_12166_806)"/>
<mask id="mask1_12166_806" style="mask-type:alpha" maskUnits="userSpaceOnUse" x="1189" y="345" width="232" height="41">
<rect x="1189" y="345.199" width="231.2" height="40.7999" fill="#D9D9D9"/>
</mask>
<g mask="url(#mask1_12166_806)">
<rect x="1189" y="114" width="231.2" height="272" rx="13.6" fill="#72E5FE"/>
<path d="M1251.36 371.598H1248.42L1246.97 367.844H1241.38L1239.93 371.598H1237L1242.71 356.91H1245.67L1251.36 371.598ZM1242.87 364.009L1242.36 365.335H1245.99L1245.48 364.009C1244.99 362.744 1244.61 361.663 1244.18 360.48H1244.16C1243.77 361.663 1243.38 362.744 1242.87 364.009ZM1254.91 366.457H1257.65C1257.67 368.15 1258.75 369.109 1260.36 369.109C1261.83 369.109 1262.54 368.211 1262.54 367.334C1262.54 366.477 1261.91 365.824 1260.83 365.559L1259.11 365.131C1256.73 364.539 1255.32 362.989 1255.32 361.01C1255.32 358.521 1257.61 356.787 1260.22 356.787C1263.07 356.787 1264.87 358.97 1264.87 361.5H1262.2C1262.2 360.276 1261.34 359.378 1260.09 359.378C1258.83 359.378 1258.12 360.235 1258.12 361.03C1258.12 361.622 1258.44 362.234 1259.54 362.52L1261.22 362.948C1263.97 363.642 1265.34 365.029 1265.34 367.293C1265.34 369.904 1263.28 371.72 1260.36 371.72C1257.4 371.72 1254.93 369.721 1254.91 366.457ZM1269.47 366.457H1272.2C1272.22 368.15 1273.3 369.109 1274.91 369.109C1276.38 369.109 1277.1 368.211 1277.1 367.334C1277.1 366.477 1276.46 365.824 1275.38 365.559L1273.67 365.131C1271.28 364.539 1269.87 362.989 1269.87 361.01C1269.87 358.521 1272.16 356.787 1274.77 356.787C1277.63 356.787 1279.42 358.97 1279.42 361.5H1276.75C1276.75 360.276 1275.89 359.378 1274.65 359.378C1273.38 359.378 1272.67 360.235 1272.67 361.03C1272.67 361.622 1273 362.234 1274.1 362.52L1275.77 362.948C1278.52 363.642 1279.89 365.029 1279.89 367.293C1279.89 369.904 1277.83 371.72 1274.91 371.72C1271.95 371.72 1269.49 369.721 1269.47 366.457ZM1291.4 371.72C1287.28 371.72 1283.98 368.374 1283.98 364.254C1283.98 360.133 1287.28 356.787 1291.4 356.787C1295.52 356.787 1298.85 360.133 1298.85 364.254C1298.85 368.374 1295.52 371.72 1291.4 371.72ZM1291.4 369.007C1294.04 369.007 1296.14 366.885 1296.14 364.254C1296.14 361.622 1294.04 359.5 1291.4 359.5C1288.77 359.5 1286.69 361.622 1286.69 364.254C1286.69 366.885 1288.77 369.007 1291.4 369.007ZM1310.58 371.72C1306.46 371.72 1303.15 368.374 1303.15 364.254C1303.15 360.133 1306.46 356.787 1310.58 356.787C1314.31 356.787 1316.66 359.623 1317.11 362.132H1314.29C1313.84 360.602 1312.21 359.5 1310.58 359.5C1307.95 359.5 1305.87 361.622 1305.87 364.254C1305.87 366.885 1307.95 369.007 1310.58 369.007C1312.29 369.007 1313.8 368.048 1314.31 366.436H1317.13C1316.66 369.211 1314.25 371.72 1310.58 371.72ZM1322.07 356.91H1324.78V371.598H1322.07V356.91ZM1343.6 371.598H1340.66L1339.21 367.844H1333.63L1332.18 371.598H1329.24L1334.95 356.91H1337.91L1343.6 371.598ZM1335.11 364.009L1334.6 365.335H1338.24L1337.73 364.009C1337.24 362.744 1336.85 361.663 1336.42 360.48H1336.4C1336.01 361.663 1335.62 362.744 1335.11 364.009ZM1356.71 356.91V359.623H1352.29V371.598H1349.57V359.623H1345.17V356.91H1356.71ZM1361.19 356.91H1371.45V359.623H1363.9V362.907H1370.67V365.6H1363.9V368.884H1371.45V371.598H1361.19V356.91Z" fill="#05192D"/>
</g>
<rect x="1192.4" y="117.4" width="224.4" height="265.2" rx="10.2" stroke="#72E5FE" stroke-width="6.79999"/>
<circle cx="1304.6" cy="219.4" r="84.9999" stroke="url(#paint8_linear_12166_806)" stroke-width="3.39999"/>
<circle cx="1304.6" cy="216" r="47.5999" fill="url(#paint9_linear_12166_806)"/>
<g filter="url(#filter1_d_12166_806)">
<circle cx="1304.6" cy="216" r="33.9999" fill="white"/>
</g>
<path fill-rule="evenodd" clip-rule="evenodd" d="M1293.86 210.771C1293.73 210.851 1293.58 210.891 1293.41 210.891C1293.24 210.891 1293.05 210.825 1292.85 210.698C1292.66 210.583 1292.45 210.455 1292.21 210.317C1291.97 210.181 1291.68 210.057 1291.36 209.943C1291.04 209.834 1290.66 209.778 1290.22 209.778C1289.82 209.778 1289.48 209.826 1289.19 209.922C1288.9 210.017 1288.66 210.148 1288.47 210.314C1288.27 210.479 1288.13 210.675 1288.04 210.904C1287.94 211.136 1287.89 211.391 1287.89 211.67C1287.89 212.018 1287.99 212.304 1288.18 212.531C1288.37 212.768 1288.63 212.973 1288.96 213.143C1289.3 213.318 1289.68 213.475 1290.12 213.613C1290.54 213.75 1290.99 213.9 1291.46 214.065C1291.93 214.226 1292.38 214.414 1292.82 214.627C1293.27 214.844 1293.67 215.118 1294.03 215.45C1294.38 215.785 1294.67 216.195 1294.88 216.678C1295.1 217.164 1295.21 217.75 1295.21 218.435C1295.21 219.177 1295.08 219.874 1294.83 220.524C1294.58 221.176 1294.21 221.744 1293.73 222.229C1293.24 222.712 1292.65 223.093 1291.96 223.37C1291.26 223.647 1290.46 223.785 1289.57 223.785C1289.06 223.785 1288.55 223.734 1288.06 223.632C1287.56 223.531 1287.08 223.386 1286.62 223.197C1286.17 223.008 1285.74 222.782 1285.34 222.518C1284.94 222.253 1284.58 221.957 1284.27 221.632L1284.2 221.558L1284.25 221.47L1285.12 220.022C1285.21 219.906 1285.31 219.808 1285.44 219.729C1285.58 219.646 1285.73 219.604 1285.89 219.604C1286.1 219.604 1286.32 219.689 1286.56 219.856C1286.77 220.009 1287.02 220.178 1287.3 220.359C1287.58 220.539 1287.92 220.705 1288.3 220.853C1288.67 220.999 1289.13 221.072 1289.66 221.072C1290.47 221.072 1291.09 220.88 1291.53 220.498C1291.96 220.121 1292.17 219.577 1292.17 218.858C1292.17 218.463 1292.08 218.147 1291.89 217.905C1291.69 217.654 1291.43 217.442 1291.1 217.267C1290.77 217.09 1290.38 216.939 1289.95 216.816C1289.51 216.689 1289.07 216.552 1288.61 216.403C1288.15 216.252 1287.7 216.072 1287.26 215.863C1286.81 215.649 1286.4 215.37 1286.05 215.026C1285.69 214.68 1285.41 214.247 1285.19 213.73C1284.98 213.212 1284.87 212.577 1284.87 211.826C1284.87 211.223 1284.99 210.634 1285.22 210.061C1285.46 209.488 1285.81 208.98 1286.26 208.537C1286.72 208.095 1287.28 207.741 1287.93 207.475C1288.59 207.209 1289.34 207.076 1290.19 207.076C1291.14 207.076 1292.01 207.227 1292.82 207.53C1293.63 207.832 1294.31 208.257 1294.88 208.804L1294.95 208.873L1294.18 210.373C1294.09 210.557 1293.99 210.69 1293.86 210.771ZM1306.11 223.706C1305.71 223.759 1305.3 223.785 1304.87 223.785C1303.65 223.785 1302.54 223.576 1301.53 223.158C1300.53 222.739 1299.67 222.156 1298.95 221.409C1298.23 220.662 1297.67 219.777 1297.28 218.755C1296.89 217.735 1296.69 216.626 1296.69 215.431C1296.69 214.235 1296.89 213.126 1297.28 212.106C1297.67 211.084 1298.23 210.199 1298.95 209.452C1299.67 208.705 1300.53 208.122 1301.53 207.703C1302.54 207.285 1303.65 207.076 1304.87 207.076C1306.08 207.076 1307.19 207.287 1308.2 207.709C1309.2 208.132 1310.06 208.715 1310.77 209.458C1311.49 210.201 1312.04 211.084 1312.44 212.106C1312.83 213.127 1313.03 214.236 1313.03 215.431C1313.03 216.159 1312.95 216.858 1312.8 217.524C1312.66 218.19 1312.44 218.814 1312.16 219.394C1311.88 219.975 1311.54 220.508 1311.14 220.995C1310.77 221.444 1310.35 221.843 1309.89 222.193L1314.02 226.756H1311.28C1310.92 226.756 1310.59 226.705 1310.29 226.604C1309.99 226.5 1309.71 226.309 1309.46 226.034L1307.19 223.49C1306.84 223.585 1306.48 223.657 1306.11 223.706ZM1309.74 215.431C1309.74 214.562 1309.62 213.785 1309.4 213.098C1309.17 212.414 1308.85 211.835 1308.43 211.359C1308.01 210.885 1307.51 210.522 1306.91 210.27C1306.3 210.017 1305.63 209.891 1304.87 209.891C1304.11 209.891 1303.43 210.017 1302.82 210.27C1302.22 210.522 1301.71 210.885 1301.29 211.359C1300.86 211.835 1300.54 212.414 1300.31 213.099C1300.08 213.785 1299.97 214.561 1299.97 215.431C1299.97 216.301 1300.08 217.077 1300.31 217.764C1300.54 218.447 1300.86 219.025 1301.29 219.496C1301.71 219.967 1302.22 220.329 1302.82 220.581C1303.43 220.834 1304.11 220.96 1304.87 220.96C1305.63 220.96 1306.3 220.834 1306.91 220.581C1307.51 220.329 1308.01 219.968 1308.43 219.497C1308.85 219.025 1309.17 218.448 1309.4 217.764C1309.62 217.077 1309.74 216.3 1309.74 215.431ZM1325 220.874V223.609H1315.44V207.256H1318.65V220.874H1325Z" fill="#05192D"/>
<g clip-path="url(#clip2_12166_806)">
<path fill-rule="evenodd" clip-rule="evenodd" d="M1263.29 278.507V283.113L1258.54 285.901V275.702L1263.29 278.507ZM1264.83 288.185V284.033L1271.19 280.298L1269.64 279.386L1264.83 282.212V278.046C1264.82 277.763 1264.68 277.501 1264.44 277.359L1258.64 273.942C1258.63 273.932 1258.61 273.924 1258.6 273.916C1258.25 273.744 1257.84 273.766 1257.52 273.975C1257.2 274.184 1257 274.551 1257 274.945V286.656C1257 287.05 1257.19 287.418 1257.52 287.627C1257.84 287.837 1258.25 287.86 1258.6 287.687L1258.64 287.664L1263.28 284.937V288.652C1263.29 288.936 1263.43 289.198 1263.67 289.34L1269.63 292.817L1271.18 291.905L1264.83 288.185Z" fill="#03EF62"/>
</g>
<path d="M1284.23 290.363C1287.34 290.363 1289.54 288.366 1290.15 285.796H1288.12C1287.52 287.441 1285.99 288.44 1284.23 288.44C1281.55 288.44 1279.48 286.276 1279.48 283.595C1279.48 280.914 1281.55 278.751 1284.23 278.751C1285.84 278.751 1287.56 279.842 1288.06 281.377H1290.09C1289.54 278.973 1287.27 276.828 1284.23 276.828C1280.5 276.828 1277.56 279.861 1277.56 283.595C1277.56 287.33 1280.5 290.363 1284.23 290.363Z" fill="white"/>
<path d="M1300.61 286.073C1300.63 285.87 1300.65 285.629 1300.65 285.37C1300.65 282.763 1298.76 280.6 1296.21 280.6C1293.58 280.6 1291.64 282.763 1291.64 285.481C1291.64 288.255 1293.55 290.363 1296.3 290.363C1299.24 290.363 1300.33 288.107 1300.48 287.201H1298.5C1298.32 287.756 1297.63 288.625 1296.3 288.625C1294.67 288.625 1293.79 287.497 1293.62 286.073H1300.61ZM1296.21 282.338C1297.63 282.338 1298.48 283.355 1298.69 284.631H1293.68C1293.92 283.337 1294.79 282.338 1296.21 282.338Z" fill="white"/>
<path d="M1307.14 280.6C1305.98 280.6 1305.11 281.136 1304.61 281.968V280.711H1302.69V290.252H1304.61V285.13C1304.61 283.3 1305.63 282.486 1307.07 282.486C1307.49 282.486 1307.85 282.541 1308.07 282.578V280.656C1307.85 280.637 1307.59 280.6 1307.14 280.6Z" fill="white"/>
<path d="M1313.48 288.569C1312.78 288.569 1312.32 288.255 1312.32 287.46V282.394H1314.76V280.711H1312.32V278.012H1310.39V280.711H1308.77V282.394H1310.39V287.497C1310.39 289.438 1311.45 290.363 1313.13 290.363C1313.8 290.363 1314.42 290.141 1314.76 290.011V288.218C1314.52 288.329 1313.98 288.569 1313.48 288.569Z" fill="white"/>
<path d="M1317.7 279.361C1318.47 279.361 1319.12 278.751 1319.12 277.975C1319.12 277.198 1318.49 276.588 1317.7 276.588C1316.92 276.588 1316.31 277.198 1316.31 277.975C1316.31 278.751 1316.92 279.361 1317.7 279.361ZM1318.64 280.711H1316.72V290.252H1318.64V280.711Z" fill="white"/>
<path d="M1324.07 280.711V279.824C1324.07 279.01 1324.63 278.64 1325.31 278.64C1325.77 278.64 1326.2 278.751 1326.46 278.862V277.087C1326.16 276.976 1325.52 276.828 1324.79 276.828C1323.17 276.828 1322.15 278.049 1322.15 279.787V280.711H1320.62V282.394H1322.15V290.252H1324.07V282.394H1326.53V280.711H1324.07Z" fill="white"/>
<path d="M1329.29 279.361C1330.07 279.361 1330.71 278.751 1330.71 277.975C1330.71 277.198 1330.08 276.588 1329.29 276.588C1328.51 276.588 1327.9 277.198 1327.9 277.975C1327.9 278.751 1328.51 279.361 1329.29 279.361ZM1330.23 280.711H1328.31V290.252H1330.23V280.711Z" fill="white"/>
<path d="M1341.38 286.073C1341.4 285.87 1341.42 285.629 1341.42 285.37C1341.42 282.763 1339.53 280.6 1336.98 280.6C1334.35 280.6 1332.41 282.763 1332.41 285.481C1332.41 288.255 1334.32 290.363 1337.07 290.363C1340.01 290.363 1341.1 288.107 1341.25 287.201H1339.27C1339.09 287.756 1338.4 288.625 1337.07 288.625C1335.45 288.625 1334.56 287.497 1334.39 286.073H1341.38ZM1336.98 282.338C1338.4 282.338 1339.25 283.355 1339.46 284.631H1334.45C1334.69 283.337 1335.56 282.338 1336.98 282.338Z" fill="white"/>
<path d="M1350.28 276.939V282.172C1349.67 281.266 1348.56 280.6 1347.26 280.6C1345.03 280.6 1343.08 282.671 1343.08 285.481C1343.08 288.292 1345.03 290.363 1347.26 290.363C1348.56 290.363 1349.59 289.863 1350.28 288.791V290.252H1352.2V276.939H1350.28ZM1347.71 288.495C1346.13 288.495 1345.01 287.145 1345.01 285.481C1345.01 283.817 1346.13 282.486 1347.71 282.486C1349.28 282.486 1350.28 283.817 1350.28 285.481C1350.28 287.145 1349.28 288.495 1347.71 288.495Z" fill="white"/>
<path d="M1279.55 316.296H1283.2C1283.22 318.554 1284.66 319.832 1286.81 319.832C1288.77 319.832 1289.72 318.635 1289.72 317.466C1289.72 316.323 1288.88 315.453 1287.44 315.099L1285.15 314.528C1281.97 313.739 1280.09 311.672 1280.09 309.034C1280.09 305.715 1283.14 303.403 1286.62 303.403C1290.43 303.403 1292.82 306.314 1292.82 309.686H1289.26C1289.26 308.054 1288.12 306.858 1286.46 306.858C1284.77 306.858 1283.82 308 1283.82 309.061C1283.82 309.85 1284.26 310.666 1285.73 311.046L1287.96 311.618C1291.63 312.542 1293.45 314.392 1293.45 317.411C1293.45 320.893 1290.7 323.314 1286.81 323.314C1282.87 323.314 1279.58 320.648 1279.55 316.296ZM1312.82 319.723L1315.13 322.47L1312.57 324.674L1310.23 321.926C1308.77 322.797 1307.02 323.314 1305.18 323.314C1299.68 323.314 1295.27 318.853 1295.27 313.358C1295.27 307.864 1299.68 303.403 1305.18 303.403C1310.67 303.403 1315.1 307.864 1315.1 313.358C1315.1 315.779 1314.23 318.01 1312.82 319.723ZM1305.18 319.696C1306.13 319.696 1307.05 319.478 1307.84 319.098L1303.46 313.93L1306.02 311.726L1310.42 316.894C1311.08 315.888 1311.49 314.664 1311.49 313.358C1311.49 309.85 1308.68 307.021 1305.18 307.021C1301.67 307.021 1298.89 309.85 1298.89 313.358C1298.89 316.867 1301.67 319.696 1305.18 319.696ZM1321.81 303.566V319.533H1330.24V323.15H1318.19V303.566H1321.81Z" fill="white"/>
</g>
</g>
<defs>
<filter id="filter0_dd_12166_806" x="1178.8" y="107.2" width="251.6" height="292.4" filterUnits="userSpaceOnUse" color-interpolation-filters="sRGB">
<feFlood flood-opacity="0" result="BackgroundImageFix"/>
<feColorMatrix in="SourceAlpha" type="matrix" values="0 0 0 0 0 0 0 0 0 0 0 0 0 0 0 0 0 0 127 0" result="hardAlpha"/>
<feMorphology radius="3.39999" operator="erode" in="SourceAlpha" result="effect1_dropShadow_12166_806"/>
<feOffset dy="3.39999"/>
<feGaussianBlur stdDeviation="6.79999"/>
<feColorMatrix type="matrix" values="0 0 0 0 0.0196078 0 0 0 0 0.0980392 0 0 0 0 0.176471 0 0 0 0.3 0"/>
<feBlend mode="normal" in2="BackgroundImageFix" result="effect1_dropShadow_12166_806"/>
<feColorMatrix in="SourceAlpha" type="matrix" values="0 0 0 0 0 0 0 0 0 0 0 0 0 0 0 0 0 0 127 0" result="hardAlpha"/>
<feOffset/>
<feGaussianBlur stdDeviation="1.7"/>
<feColorMatrix type="matrix" values="0 0 0 0 0.0196078 0 0 0 0 0.0980392 0 0 0 0 0.176471 0 0 0 0.3 0"/>
<feBlend mode="normal" in2="effect1_dropShadow_12166_806" result="effect2_dropShadow_12166_806"/>
<feBlend mode="normal" in="SourceGraphic" in2="effect2_dropShadow_12166_806" result="shape"/>
</filter>
<filter id="filter1_d_12166_806" x="1211.97" y="170.274" width="185.259" height="185.259" filterUnits="userSpaceOnUse" color-interpolation-filters="sRGB">
<feFlood flood-opacity="0" result="BackgroundImageFix"/>
<feColorMatrix in="SourceAlpha" type="matrix" values="0 0 0 0 0 0 0 0 0 0 0 0 0 0 0 0 0 0 127 0" result="hardAlpha"/>
<feOffset dy="46.9035"/>
<feGaussianBlur stdDeviation="29.3147"/>
<feComposite in2="hardAlpha" operator="out"/>
<feColorMatrix type="matrix" values="0 0 0 0 0 0 0 0 0 0.0313726 0 0 0 0 0.12549 0 0 0 1 0"/>
<feBlend mode="normal" in2="BackgroundImageFix" result="effect1_dropShadow_12166_806"/>
<feBlend mode="normal" in="SourceGraphic" in2="effect1_dropShadow_12166_806" result="shape"/>
</filter>
<linearGradient id="paint0_linear_12166_806" x1="27.8074" y1="56.1188" x2="112.331" y2="412.722" gradientUnits="userSpaceOnUse">
<stop stop-color="#72E5FE"/>
<stop offset="1" stop-color="#05192D"/>
</linearGradient>
<linearGradient id="paint1_linear_12166_806" x1="12.0842" y1="-4.76364" x2="282.1" y2="-57.4259" gradientUnits="userSpaceOnUse">
<stop stop-color="#72E5FE"/>
<stop offset="1" stop-color="#05192D"/>
</linearGradient>
<linearGradient id="paint2_linear_12166_806" x1="47.101" y1="132.388" x2="362.759" y2="132.388" gradientUnits="userSpaceOnUse">
<stop stop-color="#72E5FE"/>
<stop offset="1" stop-color="#05192D"/>
</linearGradient>
<linearGradient id="paint3_linear_12166_806" x1="588.174" y1="-150.88" x2="511.045" y2="105.124" gradientUnits="userSpaceOnUse">
<stop stop-color="#72E5FE"/>
<stop offset="1" stop-color="#05192D"/>
</linearGradient>
<linearGradient id="paint4_linear_12166_806" x1="8.40076" y1="136.093" x2="-31.9229" y2="-135.252" gradientUnits="userSpaceOnUse">
<stop stop-color="#72E5FE"/>
<stop offset="1" stop-color="#05192D"/>
</linearGradient>
<linearGradient id="paint5_linear_12166_806" x1="293.4" y1="601.639" x2="689.092" y2="763.17" gradientUnits="userSpaceOnUse">
<stop stop-color="#72E5FE"/>
<stop offset="1" stop-color="#05192D"/>
</linearGradient>
<linearGradient id="paint6_linear_12166_806" x1="295.673" y1="446.596" x2="313.687" y2="268.292" gradientUnits="userSpaceOnUse">
<stop stop-color="#72E5FE"/>
<stop offset="1" stop-color="#05192D"/>
</linearGradient>
<radialGradient id="paint7_radial_12166_806" cx="0" cy="0" r="1" gradientUnits="userSpaceOnUse" gradientTransform="translate(1304.6 250) rotate(90) scale(146.2 124.27)">
<stop stop-color="#213147"/>
<stop offset="1" stop-color="#213147" stop-opacity="0"/>
</radialGradient>
<linearGradient id="paint8_linear_12166_806" x1="1304.6" y1="134.4" x2="1304.6" y2="256.588" gradientUnits="userSpaceOnUse">
<stop stop-color="#72E5FE"/>
<stop offset="1" stop-color="#72E5FE" stop-opacity="0"/>
</linearGradient>
<linearGradient id="paint9_linear_12166_806" x1="1304.6" y1="168.4" x2="1304.6" y2="263.6" gradientUnits="userSpaceOnUse">
<stop stop-color="white" stop-opacity="0.24"/>
<stop offset="1" stop-color="#DADADA" stop-opacity="0"/>
</linearGradient>
<clipPath id="clip0_12166_806">
<rect width="1500" height="500" fill="white"/>
</clipPath>
<clipPath id="clip1_12166_806">
<rect width="153.141" height="31.9997" fill="white" transform="translate(979.859 299.572)"/>
</clipPath>
<clipPath id="clip2_12166_806">
<rect width="14.5118" height="19.3491" fill="white" transform="translate(1257 273.801)"/>
</clipPath>
</defs>
</svg>
